M48
; DRILL file KiCad 10.0.4 date 2026-07-24T16:51:04
; FORMAT={-:-/ absolute / metric / decimal}
; #@! TF.CreationDate,2026-07-24T16:51:04+08:00
; #@! TF.GenerationSoftware,Kicad,Pcbnew,10.0.4
; #@! TF.FileFunction,Plated,1,2,PTH
FMAT,2
METRIC
; #@! TA.AperFunction,Plated,PTH,ViaDrill
T1C0.300
; #@! TA.AperFunction,Plated,PTH,ComponentDrill
T2C0.800
; #@! TA.AperFunction,Plated,PTH,ComponentDrill
T3C1.000
; #@! TA.AperFunction,Plated,PTH,ComponentDrill
T4C1.524
%
G90
G05
T1
X231.0Y93.0
X240.0Y102.0
T2
X-31.432Y114.3
X-26.67Y95.25
X-24.289Y76.2
X-23.812Y114.3
X-19.526Y57.15
X-19.05Y95.25
X-16.669Y76.2
X-14.287Y51.435
X-14.287Y43.815
X-12.383Y114.3
X-11.906Y57.15
X-4.763Y114.3
X-2.857Y95.25
X1.905Y76.2
X4.763Y95.25
X6.667Y114.3
X9.525Y76.2
X9.525Y52.864
X9.525Y45.244
X11.43Y57.15
X14.287Y114.3
X16.192Y95.25
X19.05Y57.15
X20.955Y76.2
X23.812Y95.25
X25.717Y114.3
X28.575Y76.2
X30.48Y57.15
X33.337Y114.3
X33.337Y52.864
X33.337Y45.244
X35.242Y95.25
X38.1Y57.15
X40.005Y76.2
X42.862Y95.25
X44.767Y114.3
X47.625Y76.2
X49.53Y57.15
X52.387Y114.3
X54.292Y95.25
X57.15Y57.15
X59.055Y76.2
X61.912Y95.25
X63.817Y114.3
X66.675Y76.2
X68.58Y57.15
X71.438Y114.3
X73.343Y95.25
X76.2Y57.15
X78.105Y76.2
X80.962Y95.25
X82.867Y114.3
X85.725Y76.2
X87.63Y57.15
X90.487Y114.3
X92.392Y95.25
X95.25Y57.15
X97.155Y76.2
X100.012Y95.25
X101.917Y114.3
X102.394Y52.864
X102.394Y45.244
X104.775Y76.2
X106.68Y57.15
X109.537Y114.3
X111.442Y95.25
X114.3Y57.15
X116.205Y76.2
X119.062Y95.25
X120.968Y114.3
X123.825Y76.2
X125.73Y57.15
X128.588Y114.3
X130.493Y95.25
X133.35Y57.15
X135.255Y76.2
X138.112Y95.25
X140.017Y114.3
X142.875Y76.2
X146.209Y57.15
X147.637Y114.3
X149.542Y95.25
X153.829Y57.15
X154.305Y76.2
X157.162Y95.25
X159.067Y114.3
X161.925Y76.2
X163.83Y57.15
X166.688Y114.3
X168.593Y95.25
X171.45Y57.15
X173.355Y76.2
X176.213Y95.25
X176.213Y52.864
X176.213Y45.244
X178.117Y114.3
X180.975Y76.2
X182.88Y57.15
X185.737Y114.3
X187.642Y95.25
X190.5Y57.15
X192.405Y76.2
X195.262Y95.25
X197.167Y114.3
X200.025Y76.2
X200.025Y52.864
X200.025Y45.244
X203.69Y95.25
X204.787Y114.3
X211.31Y95.25
X218.599Y57.15
X220.028Y76.2
X223.837Y52.864
X223.837Y45.244
X225.742Y114.3
X225.742Y95.25
X226.219Y57.15
X227.647Y76.2
X233.362Y114.3
X233.362Y95.25
X236.696Y57.15
X244.316Y57.15
T3
X260.191Y136.317
X260.191Y133.778
X260.191Y131.237
X260.191Y128.697
X260.191Y126.157
X260.191Y123.617
X260.191Y121.078
X260.191Y118.537
X260.191Y115.997
X260.191Y113.457
X260.191Y110.917
X260.191Y108.377
X260.191Y105.837
X260.191Y103.297
X260.191Y100.757
X260.191Y98.218
X260.191Y95.677
X260.191Y93.138
X260.191Y90.597
X260.191Y88.057
X277.971Y136.317
X277.971Y133.778
X277.971Y131.237
X277.971Y128.697
X277.971Y126.157
X277.971Y123.617
X277.971Y121.078
X277.971Y118.537
X277.971Y115.997
X277.971Y113.457
X277.971Y110.917
X277.971Y108.377
X277.971Y105.837
X277.971Y103.297
X277.971Y100.757
X277.971Y98.218
X277.971Y95.677
X277.971Y93.138
X277.971Y90.597
X277.971Y88.057
T4
X-32.385Y126.365
X-30.004Y50.165
X-27.622Y107.315
X-26.035Y128.905
X-25.241Y88.265
X-23.654Y52.705
X-21.272Y109.855
X-20.479Y69.215
X-18.891Y90.805
X-14.129Y71.755
X-13.335Y126.365
X-6.985Y128.905
X-6.191Y50.165
X-3.81Y107.315
X0.159Y52.705
X0.952Y88.265
X2.54Y109.855
X5.715Y126.365
X7.302Y90.805
X10.477Y69.215
X12.065Y128.905
X15.24Y107.315
X16.828Y71.755
X17.621Y50.165
X20.002Y88.265
X21.59Y109.855
X23.971Y52.705
X24.765Y126.365
X26.352Y90.805
X29.527Y69.215
X31.115Y128.905
X34.29Y107.315
X35.877Y71.755
X39.052Y88.265
X40.64Y109.855
X43.815Y126.365
X45.402Y90.805
X48.578Y69.215
X50.165Y128.905
X53.34Y107.315
X54.927Y71.755
X58.102Y88.265
X59.69Y109.855
X62.865Y126.365
X64.453Y90.805
X67.627Y69.215
X69.215Y128.905
X72.39Y107.315
X73.977Y71.755
X77.153Y88.265
X78.74Y109.855
X81.915Y126.365
X83.502Y90.805
X86.677Y69.215
X88.265Y128.905
X89.059Y50.165
X91.44Y107.315
X93.027Y71.755
X95.409Y52.705
X96.203Y88.265
X97.79Y109.855
X100.965Y126.365
X102.552Y90.805
X105.727Y69.215
X107.315Y128.905
X110.49Y107.315
X112.078Y71.755
X115.252Y88.265
X116.84Y109.855
X120.015Y126.365
X121.602Y90.805
X124.777Y69.215
X126.365Y128.905
X129.54Y107.315
X131.127Y71.755
X134.302Y88.265
X135.89Y109.855
X139.065Y126.365
X140.653Y90.805
X143.827Y69.215
X145.415Y128.905
X148.59Y107.315
X150.177Y71.755
X153.352Y88.265
X154.94Y109.855
X158.115Y126.365
X159.702Y90.805
X160.496Y50.165
X162.877Y69.215
X164.465Y128.905
X166.846Y52.705
X167.64Y107.315
X169.227Y71.755
X172.403Y88.265
X173.99Y109.855
X177.165Y126.365
X178.752Y90.805
X181.927Y69.215
X183.515Y128.905
X184.309Y50.165
X186.69Y107.315
X188.278Y71.755
X190.659Y52.705
X191.452Y88.265
X193.04Y109.855
X196.215Y126.365
X197.802Y90.805
X202.565Y128.905
X205.74Y107.315
X208.121Y50.165
X212.09Y109.855
X214.471Y52.705
X217.646Y69.215
X222.409Y88.265
X223.996Y71.755
X224.79Y126.365
X228.759Y90.805
X229.552Y107.315
X231.14Y128.905
X231.934Y50.165
X235.903Y109.855
X238.284Y52.705
M30
