%TF.GenerationSoftware,KiCad,Pcbnew,10.0.4*%
%TF.CreationDate,2026-07-22T23:12:35+08:00*%
%TF.ProjectId,my-keeb,6d792d6b-6565-4622-9e6b-696361645f70,rev?*%
%TF.SameCoordinates,Original*%
%TF.FileFunction,Soldermask,Top*%
%TF.FilePolarity,Negative*%
%FSLAX46Y46*%
G04 Gerber Fmt 4.6, Leading zero omitted, Abs format (unit mm)*
G04 Created by KiCad (PCBNEW 10.0.4) date 2026-07-22 23:12:35*
%MOMM*%
%LPD*%
G01*
G04 APERTURE LIST*
G04 Aperture macros list*
%AMRoundRect*
0 Rectangle with rounded corners*
0 $1 Rounding radius*
0 $2 $3 $4 $5 $6 $7 $8 $9 X,Y pos of 4 corners*
0 Add a 4 corners polygon primitive as box body*
4,1,4,$2,$3,$4,$5,$6,$7,$8,$9,$2,$3,0*
0 Add four circle primitives for the rounded corners*
1,1,$1+$1,$2,$3*
1,1,$1+$1,$4,$5*
1,1,$1+$1,$6,$7*
1,1,$1+$1,$8,$9*
0 Add four rect primitives between the rounded corners*
20,1,$1+$1,$2,$3,$4,$5,0*
20,1,$1+$1,$4,$5,$6,$7,0*
20,1,$1+$1,$6,$7,$8,$9,0*
20,1,$1+$1,$8,$9,$2,$3,0*%
%AMFreePoly0*
4,1,37,0.603843,0.796157,0.639018,0.796157,0.711114,0.766294,0.766294,0.711114,0.796157,0.639018,0.796157,0.603843,0.800000,0.600000,0.800000,-0.600000,0.796157,-0.603843,0.796157,-0.639018,0.766294,-0.711114,0.711114,-0.766294,0.639018,-0.796157,0.603843,-0.796157,0.600000,-0.800000,0.000000,-0.800000,0.000000,-0.796148,-0.078414,-0.796148,-0.232228,-0.765552,-0.377117,-0.705537,
-0.507515,-0.618408,-0.618408,-0.507515,-0.705537,-0.377117,-0.765552,-0.232228,-0.796148,-0.078414,-0.796148,0.078414,-0.765552,0.232228,-0.705537,0.377117,-0.618408,0.507515,-0.507515,0.618408,-0.377117,0.705537,-0.232228,0.765552,-0.078414,0.796148,0.000000,0.796148,0.000000,0.800000,0.600000,0.800000,0.603843,0.796157,0.603843,0.796157,$1*%
%AMFreePoly1*
4,1,37,0.000000,0.796148,0.078414,0.796148,0.232228,0.765552,0.377117,0.705537,0.507515,0.618408,0.618408,0.507515,0.705537,0.377117,0.765552,0.232228,0.796148,0.078414,0.796148,-0.078414,0.765552,-0.232228,0.705537,-0.377117,0.618408,-0.507515,0.507515,-0.618408,0.377117,-0.705537,0.232228,-0.765552,0.078414,-0.796148,0.000000,-0.796148,0.000000,-0.800000,-0.600000,-0.800000,
-0.603843,-0.796157,-0.639018,-0.796157,-0.711114,-0.766294,-0.766294,-0.711114,-0.796157,-0.639018,-0.796157,-0.603843,-0.800000,-0.600000,-0.800000,0.600000,-0.796157,0.603843,-0.796157,0.639018,-0.766294,0.711114,-0.711114,0.766294,-0.639018,0.796157,-0.603843,0.796157,-0.600000,0.800000,0.000000,0.800000,0.000000,0.796148,0.000000,0.796148,$1*%
G04 Aperture macros list end*
%ADD10C,1.750000*%
%ADD11C,3.987800*%
%ADD12C,3.048000*%
%ADD13RoundRect,0.200000X-0.600000X-0.600000X0.600000X-0.600000X0.600000X0.600000X-0.600000X0.600000X0*%
%ADD14C,1.600000*%
%ADD15FreePoly0,0.000000*%
%ADD16FreePoly1,0.000000*%
%ADD17RoundRect,0.250000X-0.550000X-0.550000X0.550000X-0.550000X0.550000X0.550000X-0.550000X0.550000X0*%
%ADD18RoundRect,0.250000X0.550000X-0.550000X0.550000X0.550000X-0.550000X0.550000X-0.550000X-0.550000X0*%
G04 APERTURE END LIST*
D10*
%TO.C,SW15*%
X-28892500Y104775000D03*
D11*
X-23812500Y104775000D03*
D10*
X-18732500Y104775000D03*
%TD*%
%TO.C,SW9*%
X118745000Y123825000D03*
D11*
X123825000Y123825000D03*
D10*
X128905000Y123825000D03*
%TD*%
%TO.C,SW1*%
X-33655000Y123825000D03*
D11*
X-28575000Y123825000D03*
D10*
X-23495000Y123825000D03*
%TD*%
%TO.C,SW6*%
X61595000Y123825000D03*
D11*
X66675000Y123825000D03*
D10*
X71755000Y123825000D03*
%TD*%
%TO.C,SW17*%
X13970000Y104775000D03*
D11*
X19050000Y104775000D03*
D10*
X24130000Y104775000D03*
%TD*%
%TO.C,SW22*%
X109220000Y104775000D03*
D11*
X114300000Y104775000D03*
D10*
X119380000Y104775000D03*
%TD*%
%TO.C,SW11*%
X156845000Y123825000D03*
D11*
X161925000Y123825000D03*
D10*
X167005000Y123825000D03*
%TD*%
%TO.C,SW21*%
X90170000Y104775000D03*
D11*
X95250000Y104775000D03*
D10*
X100330000Y104775000D03*
%TD*%
%TO.C,SW56*%
X16351250Y47625000D03*
D11*
X21431250Y47625000D03*
D10*
X26511250Y47625000D03*
%TD*%
%TO.C,SW29*%
X-26511250Y85725000D03*
D11*
X-21431250Y85725000D03*
D10*
X-16351250Y85725000D03*
%TD*%
%TO.C,SW38*%
X152082500Y85725000D03*
D11*
X157162500Y85725000D03*
D10*
X162242500Y85725000D03*
%TD*%
%TO.C,SW33*%
X56832500Y85725000D03*
D11*
X61912500Y85725000D03*
D10*
X66992500Y85725000D03*
%TD*%
D12*
%TO.C,S3*%
X-28575000Y73660000D03*
D11*
X-28575000Y58420000D03*
D12*
X-4762500Y73660000D03*
D11*
X-4762500Y58420000D03*
%TD*%
D10*
%TO.C,SW35*%
X94932500Y85725000D03*
D11*
X100012500Y85725000D03*
D10*
X105092500Y85725000D03*
%TD*%
%TO.C,SW48*%
X104457500Y66675000D03*
D11*
X109537500Y66675000D03*
D10*
X114617500Y66675000D03*
%TD*%
%TO.C,SW20*%
X71120000Y104775000D03*
D11*
X76200000Y104775000D03*
D10*
X81280000Y104775000D03*
%TD*%
%TO.C,SW42*%
X-21748750Y66675000D03*
D11*
X-16668750Y66675000D03*
D10*
X-11588750Y66675000D03*
%TD*%
%TO.C,SW7*%
X80645000Y123825000D03*
D11*
X85725000Y123825000D03*
D10*
X90805000Y123825000D03*
%TD*%
D12*
%TO.C,S4*%
X209550000Y73660000D03*
D11*
X209550000Y58420000D03*
D12*
X233362500Y73660000D03*
D11*
X233362500Y58420000D03*
%TD*%
D10*
%TO.C,SW19*%
X52070000Y104775000D03*
D11*
X57150000Y104775000D03*
D10*
X62230000Y104775000D03*
%TD*%
%TO.C,SW45*%
X47307500Y66675000D03*
D11*
X52387500Y66675000D03*
D10*
X57467500Y66675000D03*
%TD*%
D12*
%TO.C,S1*%
X216693750Y130810000D03*
D11*
X216693750Y115570000D03*
D12*
X240506250Y130810000D03*
D11*
X240506250Y115570000D03*
%TD*%
D10*
%TO.C,SW5*%
X42545000Y123825000D03*
D11*
X47625000Y123825000D03*
D10*
X52705000Y123825000D03*
%TD*%
%TO.C,SW59*%
X183038750Y47625000D03*
D11*
X188118750Y47625000D03*
D10*
X193198750Y47625000D03*
%TD*%
%TO.C,SW34*%
X75882500Y85725000D03*
D11*
X80962500Y85725000D03*
D10*
X86042500Y85725000D03*
%TD*%
%TO.C,SW55*%
X-7461250Y47625000D03*
D11*
X-2381250Y47625000D03*
D10*
X2698750Y47625000D03*
%TD*%
%TO.C,SW49*%
X123507500Y66675000D03*
D11*
X128587500Y66675000D03*
D10*
X133667500Y66675000D03*
%TD*%
%TO.C,SW2*%
X-14605000Y123825000D03*
D11*
X-9525000Y123825000D03*
D10*
X-4445000Y123825000D03*
%TD*%
D13*
%TO.C,A1*%
X260191250Y136317500D03*
D14*
X260191250Y133777500D03*
D15*
X260191250Y131237500D03*
D14*
X260191250Y128697500D03*
X260191250Y126157500D03*
X260191250Y123617500D03*
X260191250Y121077500D03*
D15*
X260191250Y118537500D03*
D14*
X260191250Y115997500D03*
X260191250Y113457500D03*
X260191250Y110917500D03*
X260191250Y108377500D03*
D15*
X260191250Y105837500D03*
D14*
X260191250Y103297500D03*
X260191250Y100757500D03*
X260191250Y98217500D03*
X260191250Y95677500D03*
D15*
X260191250Y93137500D03*
D14*
X260191250Y90597500D03*
X260191250Y88057500D03*
X277971250Y88057500D03*
X277971250Y90597500D03*
D16*
X277971250Y93137500D03*
D14*
X277971250Y95677500D03*
X277971250Y98217500D03*
X277971250Y100757500D03*
X277971250Y103297500D03*
D16*
X277971250Y105837500D03*
D14*
X277971250Y108377500D03*
X277971250Y110917500D03*
X277971250Y113457500D03*
X277971250Y115997500D03*
D16*
X277971250Y118537500D03*
D14*
X277971250Y121077500D03*
X277971250Y123617500D03*
X277971250Y126157500D03*
X277971250Y128697500D03*
D16*
X277971250Y131237500D03*
D14*
X277971250Y133777500D03*
X277971250Y136317500D03*
%TD*%
D12*
%TO.C,S5*%
X42862500Y54610000D03*
D11*
X42862500Y39370000D03*
D12*
X142875000Y54610000D03*
D11*
X142875000Y39370000D03*
%TD*%
D12*
%TO.C,S2*%
X214312500Y92710000D03*
D11*
X214312500Y77470000D03*
D12*
X238125000Y92710000D03*
D11*
X238125000Y77470000D03*
%TD*%
D10*
%TO.C,SW41*%
X221138750Y85725000D03*
D11*
X226218750Y85725000D03*
D10*
X231298750Y85725000D03*
%TD*%
%TO.C,SW47*%
X85407500Y66675000D03*
D11*
X90487500Y66675000D03*
D10*
X95567500Y66675000D03*
%TD*%
%TO.C,SW40*%
X190182500Y85725000D03*
D11*
X195262500Y85725000D03*
D10*
X200342500Y85725000D03*
%TD*%
%TO.C,SW27*%
X204470000Y104775000D03*
D11*
X209550000Y104775000D03*
D10*
X214630000Y104775000D03*
%TD*%
%TO.C,SW8*%
X99695000Y123825000D03*
D11*
X104775000Y123825000D03*
D10*
X109855000Y123825000D03*
%TD*%
%TO.C,SW36*%
X113982500Y85725000D03*
D11*
X119062500Y85725000D03*
D10*
X124142500Y85725000D03*
%TD*%
%TO.C,SW39*%
X171132500Y85725000D03*
D11*
X176212500Y85725000D03*
D10*
X181292500Y85725000D03*
%TD*%
%TO.C,SW16*%
X-5080000Y104775000D03*
D11*
X0Y104775000D03*
D10*
X5080000Y104775000D03*
%TD*%
%TO.C,SW14*%
X223520000Y123825000D03*
D11*
X228600000Y123825000D03*
D10*
X233680000Y123825000D03*
%TD*%
D17*
%TO.C,D61*%
X236696250Y57150000D03*
D14*
X244316250Y57150000D03*
%TD*%
D10*
%TO.C,SW28*%
X228282500Y104775000D03*
D11*
X233362500Y104775000D03*
D10*
X238442500Y104775000D03*
%TD*%
%TO.C,SW24*%
X147320000Y104775000D03*
D11*
X152400000Y104775000D03*
D10*
X157480000Y104775000D03*
%TD*%
%TO.C,SW61*%
X230663750Y47625000D03*
D11*
X235743750Y47625000D03*
D10*
X240823750Y47625000D03*
%TD*%
%TO.C,SW60*%
X206851250Y47625000D03*
D11*
X211931250Y47625000D03*
D10*
X217011250Y47625000D03*
%TD*%
%TO.C,SW50*%
X142557500Y66675000D03*
D11*
X147637500Y66675000D03*
D10*
X152717500Y66675000D03*
%TD*%
%TO.C,SW13*%
X194945000Y123825000D03*
D11*
X200025000Y123825000D03*
D10*
X205105000Y123825000D03*
%TD*%
%TO.C,SW53*%
X216376250Y66675000D03*
D11*
X221456250Y66675000D03*
D10*
X226536250Y66675000D03*
%TD*%
%TO.C,SW4*%
X23495000Y123825000D03*
D11*
X28575000Y123825000D03*
D10*
X33655000Y123825000D03*
%TD*%
%TO.C,SW51*%
X161607500Y66675000D03*
D11*
X166687500Y66675000D03*
D10*
X171767500Y66675000D03*
%TD*%
%TO.C,SW52*%
X180657500Y66675000D03*
D11*
X185737500Y66675000D03*
D10*
X190817500Y66675000D03*
%TD*%
%TO.C,SW54*%
X-31273750Y47625000D03*
D11*
X-26193750Y47625000D03*
D10*
X-21113750Y47625000D03*
%TD*%
%TO.C,SW12*%
X175895000Y123825000D03*
D11*
X180975000Y123825000D03*
D10*
X186055000Y123825000D03*
%TD*%
%TO.C,SW37*%
X133032500Y85725000D03*
D11*
X138112500Y85725000D03*
D10*
X143192500Y85725000D03*
%TD*%
%TO.C,SW23*%
X128270000Y104775000D03*
D11*
X133350000Y104775000D03*
D10*
X138430000Y104775000D03*
%TD*%
%TO.C,SW18*%
X33020000Y104775000D03*
D11*
X38100000Y104775000D03*
D10*
X43180000Y104775000D03*
%TD*%
%TO.C,SW3*%
X4445000Y123825000D03*
D11*
X9525000Y123825000D03*
D10*
X14605000Y123825000D03*
%TD*%
%TO.C,SW44*%
X28257500Y66675000D03*
D11*
X33337500Y66675000D03*
D10*
X38417500Y66675000D03*
%TD*%
%TO.C,SW30*%
X-317500Y85725000D03*
D11*
X4762500Y85725000D03*
D10*
X9842500Y85725000D03*
%TD*%
%TO.C,SW46*%
X66357500Y66675000D03*
D11*
X71437500Y66675000D03*
D10*
X76517500Y66675000D03*
%TD*%
%TO.C,SW32*%
X37782500Y85725000D03*
D11*
X42862500Y85725000D03*
D10*
X47942500Y85725000D03*
%TD*%
%TO.C,SW10*%
X137795000Y123825000D03*
D11*
X142875000Y123825000D03*
D10*
X147955000Y123825000D03*
%TD*%
%TO.C,SW31*%
X18732500Y85725000D03*
D11*
X23812500Y85725000D03*
D10*
X28892500Y85725000D03*
%TD*%
%TO.C,SW43*%
X9207500Y66675000D03*
D11*
X14287500Y66675000D03*
D10*
X19367500Y66675000D03*
%TD*%
%TO.C,SW58*%
X159226250Y47625000D03*
D11*
X164306250Y47625000D03*
D10*
X169386250Y47625000D03*
%TD*%
%TO.C,SW25*%
X166370000Y104775000D03*
D11*
X171450000Y104775000D03*
D10*
X176530000Y104775000D03*
%TD*%
%TO.C,SW57*%
X87788750Y47625000D03*
D11*
X92868750Y47625000D03*
D10*
X97948750Y47625000D03*
%TD*%
%TO.C,SW26*%
X185420000Y104775000D03*
D11*
X190500000Y104775000D03*
D10*
X195580000Y104775000D03*
%TD*%
D17*
%TO.C,D7*%
X82867500Y114300000D03*
D14*
X90487500Y114300000D03*
%TD*%
D17*
%TO.C,D48*%
X106680000Y57150000D03*
D14*
X114300000Y57150000D03*
%TD*%
D17*
%TO.C,D46*%
X68580000Y57150000D03*
D14*
X76200000Y57150000D03*
%TD*%
D18*
%TO.C,D57*%
X102393750Y45243750D03*
D14*
X102393750Y52863750D03*
%TD*%
D17*
%TO.C,D12*%
X178117500Y114300000D03*
D14*
X185737500Y114300000D03*
%TD*%
D17*
%TO.C,D1*%
X-31432500Y114300000D03*
D14*
X-23812500Y114300000D03*
%TD*%
D17*
%TO.C,D24*%
X149542500Y95250000D03*
D14*
X157162500Y95250000D03*
%TD*%
D18*
%TO.C,D60*%
X223837500Y45243750D03*
D14*
X223837500Y52863750D03*
%TD*%
D17*
%TO.C,D11*%
X159067500Y114300000D03*
D14*
X166687500Y114300000D03*
%TD*%
D17*
%TO.C,D31*%
X20955000Y76200000D03*
D14*
X28575000Y76200000D03*
%TD*%
D17*
%TO.C,D39*%
X173355000Y76200000D03*
D14*
X180975000Y76200000D03*
%TD*%
D17*
%TO.C,D43*%
X11430000Y57150000D03*
D14*
X19050000Y57150000D03*
%TD*%
D17*
%TO.C,D41*%
X220027500Y76200000D03*
D14*
X227647500Y76200000D03*
%TD*%
D17*
%TO.C,D29*%
X-24288750Y76200000D03*
D14*
X-16668750Y76200000D03*
%TD*%
D18*
%TO.C,D59*%
X200025000Y45243750D03*
D14*
X200025000Y52863750D03*
%TD*%
D17*
%TO.C,D28*%
X225742500Y95250000D03*
D14*
X233362500Y95250000D03*
%TD*%
D17*
%TO.C,D53*%
X218598750Y57150000D03*
D14*
X226218750Y57150000D03*
%TD*%
D17*
%TO.C,D32*%
X40005000Y76200000D03*
D14*
X47625000Y76200000D03*
%TD*%
D17*
%TO.C,D22*%
X111442500Y95250000D03*
D14*
X119062500Y95250000D03*
%TD*%
D17*
%TO.C,D3*%
X6667500Y114300000D03*
D14*
X14287500Y114300000D03*
%TD*%
D17*
%TO.C,D33*%
X59055000Y76200000D03*
D14*
X66675000Y76200000D03*
%TD*%
D17*
%TO.C,D44*%
X30480000Y57150000D03*
D14*
X38100000Y57150000D03*
%TD*%
D17*
%TO.C,D4*%
X25717500Y114300000D03*
D14*
X33337500Y114300000D03*
%TD*%
D17*
%TO.C,D47*%
X87630000Y57150000D03*
D14*
X95250000Y57150000D03*
%TD*%
D17*
%TO.C,D21*%
X92392500Y95250000D03*
D14*
X100012500Y95250000D03*
%TD*%
D17*
%TO.C,D52*%
X182880000Y57150000D03*
D14*
X190500000Y57150000D03*
%TD*%
D18*
%TO.C,D55*%
X9525000Y45243750D03*
D14*
X9525000Y52863750D03*
%TD*%
D17*
%TO.C,D49*%
X125730000Y57150000D03*
D14*
X133350000Y57150000D03*
%TD*%
D17*
%TO.C,D19*%
X54292500Y95250000D03*
D14*
X61912500Y95250000D03*
%TD*%
D17*
%TO.C,D51*%
X163830000Y57150000D03*
D14*
X171450000Y57150000D03*
%TD*%
D17*
%TO.C,D10*%
X140017500Y114300000D03*
D14*
X147637500Y114300000D03*
%TD*%
D18*
%TO.C,D58*%
X176212500Y45243750D03*
D14*
X176212500Y52863750D03*
%TD*%
D17*
%TO.C,D37*%
X135255000Y76200000D03*
D14*
X142875000Y76200000D03*
%TD*%
D17*
%TO.C,D2*%
X-12382500Y114300000D03*
D14*
X-4762500Y114300000D03*
%TD*%
D17*
%TO.C,D27*%
X203690000Y95250000D03*
D14*
X211310000Y95250000D03*
%TD*%
D17*
%TO.C,D45*%
X49530000Y57150000D03*
D14*
X57150000Y57150000D03*
%TD*%
D17*
%TO.C,D5*%
X44767500Y114300000D03*
D14*
X52387500Y114300000D03*
%TD*%
D17*
%TO.C,D35*%
X97155000Y76200000D03*
D14*
X104775000Y76200000D03*
%TD*%
D17*
%TO.C,D18*%
X35242500Y95250000D03*
D14*
X42862500Y95250000D03*
%TD*%
D17*
%TO.C,D26*%
X187642500Y95250000D03*
D14*
X195262500Y95250000D03*
%TD*%
D17*
%TO.C,D40*%
X192405000Y76200000D03*
D14*
X200025000Y76200000D03*
%TD*%
D17*
%TO.C,D15*%
X-26670000Y95250000D03*
D14*
X-19050000Y95250000D03*
%TD*%
D17*
%TO.C,D23*%
X130492500Y95250000D03*
D14*
X138112500Y95250000D03*
%TD*%
D17*
%TO.C,D17*%
X16192500Y95250000D03*
D14*
X23812500Y95250000D03*
%TD*%
D17*
%TO.C,D16*%
X-2857500Y95250000D03*
D14*
X4762500Y95250000D03*
%TD*%
D17*
%TO.C,D30*%
X1905000Y76200000D03*
D14*
X9525000Y76200000D03*
%TD*%
D17*
%TO.C,D14*%
X225742500Y114300000D03*
D14*
X233362500Y114300000D03*
%TD*%
D17*
%TO.C,D20*%
X73342500Y95250000D03*
D14*
X80962500Y95250000D03*
%TD*%
D17*
%TO.C,D13*%
X197167500Y114300000D03*
D14*
X204787500Y114300000D03*
%TD*%
D18*
%TO.C,D54*%
X-14287500Y43815000D03*
D14*
X-14287500Y51435000D03*
%TD*%
D17*
%TO.C,D8*%
X101917500Y114300000D03*
D14*
X109537500Y114300000D03*
%TD*%
D17*
%TO.C,D6*%
X63817500Y114300000D03*
D14*
X71437500Y114300000D03*
%TD*%
D17*
%TO.C,D36*%
X116205000Y76200000D03*
D14*
X123825000Y76200000D03*
%TD*%
D17*
%TO.C,D38*%
X154305000Y76200000D03*
D14*
X161925000Y76200000D03*
%TD*%
D17*
%TO.C,D42*%
X-19526250Y57150000D03*
D14*
X-11906250Y57150000D03*
%TD*%
D17*
%TO.C,D50*%
X146208750Y57150000D03*
D14*
X153828750Y57150000D03*
%TD*%
D17*
%TO.C,D34*%
X78105000Y76200000D03*
D14*
X85725000Y76200000D03*
%TD*%
D17*
%TO.C,D9*%
X120967500Y114300000D03*
D14*
X128587500Y114300000D03*
%TD*%
D17*
%TO.C,D25*%
X168592500Y95250000D03*
D14*
X176212500Y95250000D03*
%TD*%
D18*
%TO.C,D56*%
X33337500Y45243750D03*
D14*
X33337500Y52863750D03*
%TD*%
M02*
