M48
; DRILL file KiCad 10.0.4 date 2026-07-22T23:12:39
; FORMAT={-:-/ absolute / metric / decimal}
; #@! TF.CreationDate,2026-07-22T23:12:39+08:00
; #@! TF.GenerationSoftware,Kicad,Pcbnew,10.0.4
; #@! TF.FileFunction,NonPlated,1,2,NPTH
FMAT,2
METRIC
; #@! TA.AperFunction,NonPlated,NPTH,ComponentDrill
T1C1.750
; #@! TA.AperFunction,NonPlated,NPTH,ComponentDrill
T2C3.048
; #@! TA.AperFunction,NonPlated,NPTH,ComponentDrill
T3C3.988
%
G90
G05
T1
X-33.655Y123.825
X-31.274Y47.625
X-28.892Y104.775
X-26.511Y85.725
X-23.495Y123.825
X-21.749Y66.675
X-21.114Y47.625
X-18.732Y104.775
X-16.351Y85.725
X-14.605Y123.825
X-11.589Y66.675
X-7.461Y47.625
X-5.08Y104.775
X-4.445Y123.825
X-0.318Y85.725
X2.699Y47.625
X4.445Y123.825
X5.08Y104.775
X9.207Y66.675
X9.842Y85.725
X13.97Y104.775
X14.605Y123.825
X16.351Y47.625
X18.732Y85.725
X19.367Y66.675
X23.495Y123.825
X24.13Y104.775
X26.511Y47.625
X28.258Y66.675
X28.892Y85.725
X33.02Y104.775
X33.655Y123.825
X37.782Y85.725
X38.417Y66.675
X42.545Y123.825
X43.18Y104.775
X47.307Y66.675
X47.942Y85.725
X52.07Y104.775
X52.705Y123.825
X56.832Y85.725
X57.467Y66.675
X61.595Y123.825
X62.23Y104.775
X66.358Y66.675
X66.992Y85.725
X71.12Y104.775
X71.755Y123.825
X75.882Y85.725
X76.517Y66.675
X80.645Y123.825
X81.28Y104.775
X85.407Y66.675
X86.042Y85.725
X87.789Y47.625
X90.17Y104.775
X90.805Y123.825
X94.932Y85.725
X95.567Y66.675
X97.949Y47.625
X99.695Y123.825
X100.33Y104.775
X104.457Y66.675
X105.093Y85.725
X109.22Y104.775
X109.855Y123.825
X113.983Y85.725
X114.617Y66.675
X118.745Y123.825
X119.38Y104.775
X123.507Y66.675
X124.142Y85.725
X128.27Y104.775
X128.905Y123.825
X133.032Y85.725
X133.667Y66.675
X137.795Y123.825
X138.43Y104.775
X142.558Y66.675
X143.192Y85.725
X147.32Y104.775
X147.955Y123.825
X152.082Y85.725
X152.718Y66.675
X156.845Y123.825
X157.48Y104.775
X159.226Y47.625
X161.607Y66.675
X162.243Y85.725
X166.37Y104.775
X167.005Y123.825
X169.386Y47.625
X171.132Y85.725
X171.767Y66.675
X175.895Y123.825
X176.53Y104.775
X180.657Y66.675
X181.292Y85.725
X183.039Y47.625
X185.42Y104.775
X186.055Y123.825
X190.183Y85.725
X190.817Y66.675
X193.199Y47.625
X194.945Y123.825
X195.58Y104.775
X200.343Y85.725
X204.47Y104.775
X205.105Y123.825
X206.851Y47.625
X214.63Y104.775
X216.376Y66.675
X217.011Y47.625
X221.139Y85.725
X223.52Y123.825
X226.536Y66.675
X228.282Y104.775
X230.664Y47.625
X231.299Y85.725
X233.68Y123.825
X238.442Y104.775
X240.824Y47.625
T2
X-28.575Y73.66
X-4.763Y73.66
X42.862Y54.61
X142.875Y54.61
X209.55Y73.66
X214.312Y92.71
X216.694Y130.81
X233.362Y73.66
X238.125Y92.71
X240.506Y130.81
T3
X-28.575Y123.825
X-28.575Y58.42
X-26.194Y47.625
X-23.812Y104.775
X-21.431Y85.725
X-16.669Y66.675
X-9.525Y123.825
X-4.763Y58.42
X-2.381Y47.625
X0.0Y104.775
X4.763Y85.725
X9.525Y123.825
X14.287Y66.675
X19.05Y104.775
X21.431Y47.625
X23.812Y85.725
X28.575Y123.825
X33.337Y66.675
X38.1Y104.775
X42.862Y85.725
X42.862Y39.37
X47.625Y123.825
X52.387Y66.675
X57.15Y104.775
X61.912Y85.725
X66.675Y123.825
X71.438Y66.675
X76.2Y104.775
X80.962Y85.725
X85.725Y123.825
X90.487Y66.675
X92.869Y47.625
X95.25Y104.775
X100.012Y85.725
X104.775Y123.825
X109.537Y66.675
X114.3Y104.775
X119.062Y85.725
X123.825Y123.825
X128.588Y66.675
X133.35Y104.775
X138.112Y85.725
X142.875Y123.825
X142.875Y39.37
X147.637Y66.675
X152.4Y104.775
X157.162Y85.725
X161.925Y123.825
X164.306Y47.625
X166.688Y66.675
X171.45Y104.775
X176.213Y85.725
X180.975Y123.825
X185.737Y66.675
X188.119Y47.625
X190.5Y104.775
X195.262Y85.725
X200.025Y123.825
X209.55Y104.775
X209.55Y58.42
X211.931Y47.625
X214.312Y77.47
X216.694Y115.57
X221.456Y66.675
X226.219Y85.725
X228.6Y123.825
X233.362Y104.775
X233.362Y58.42
X235.744Y47.625
X238.125Y77.47
X240.506Y115.57
M30
