%TF.GenerationSoftware,KiCad,Pcbnew,10.0.4*%
%TF.CreationDate,2026-07-22T23:12:35+08:00*%
%TF.ProjectId,my-keeb,6d792d6b-6565-4622-9e6b-696361645f70,rev?*%
%TF.SameCoordinates,Original*%
%TF.FileFunction,Legend,Bot*%
%TF.FilePolarity,Positive*%
%FSLAX46Y46*%
G04 Gerber Fmt 4.6, Leading zero omitted, Abs format (unit mm)*
G04 Created by KiCad (PCBNEW 10.0.4) date 2026-07-22 23:12:35*
%MOMM*%
%LPD*%
G01*
G04 APERTURE LIST*
%ADD10C,0.150000*%
%ADD11C,0.120000*%
G04 APERTURE END LIST*
D10*
X87415594Y111725180D02*
X87415594Y112725180D01*
X87415594Y112725180D02*
X87177499Y112725180D01*
X87177499Y112725180D02*
X87034642Y112677561D01*
X87034642Y112677561D02*
X86939404Y112582323D01*
X86939404Y112582323D02*
X86891785Y112487085D01*
X86891785Y112487085D02*
X86844166Y112296609D01*
X86844166Y112296609D02*
X86844166Y112153752D01*
X86844166Y112153752D02*
X86891785Y111963276D01*
X86891785Y111963276D02*
X86939404Y111868038D01*
X86939404Y111868038D02*
X87034642Y111772800D01*
X87034642Y111772800D02*
X87177499Y111725180D01*
X87177499Y111725180D02*
X87415594Y111725180D01*
X86510832Y112725180D02*
X85844166Y112725180D01*
X85844166Y112725180D02*
X86272737Y111725180D01*
X83129404Y112045180D02*
X83129404Y113045180D01*
X82557976Y112045180D02*
X82986547Y112616609D01*
X82557976Y113045180D02*
X83129404Y112473752D01*
X111704285Y54575180D02*
X111704285Y55575180D01*
X111704285Y55575180D02*
X111466190Y55575180D01*
X111466190Y55575180D02*
X111323333Y55527561D01*
X111323333Y55527561D02*
X111228095Y55432323D01*
X111228095Y55432323D02*
X111180476Y55337085D01*
X111180476Y55337085D02*
X111132857Y55146609D01*
X111132857Y55146609D02*
X111132857Y55003752D01*
X111132857Y55003752D02*
X111180476Y54813276D01*
X111180476Y54813276D02*
X111228095Y54718038D01*
X111228095Y54718038D02*
X111323333Y54622800D01*
X111323333Y54622800D02*
X111466190Y54575180D01*
X111466190Y54575180D02*
X111704285Y54575180D01*
X110275714Y55241847D02*
X110275714Y54575180D01*
X110513809Y55622800D02*
X110751904Y54908514D01*
X110751904Y54908514D02*
X110132857Y54908514D01*
X109609047Y55146609D02*
X109704285Y55194228D01*
X109704285Y55194228D02*
X109751904Y55241847D01*
X109751904Y55241847D02*
X109799523Y55337085D01*
X109799523Y55337085D02*
X109799523Y55384704D01*
X109799523Y55384704D02*
X109751904Y55479942D01*
X109751904Y55479942D02*
X109704285Y55527561D01*
X109704285Y55527561D02*
X109609047Y55575180D01*
X109609047Y55575180D02*
X109418571Y55575180D01*
X109418571Y55575180D02*
X109323333Y55527561D01*
X109323333Y55527561D02*
X109275714Y55479942D01*
X109275714Y55479942D02*
X109228095Y55384704D01*
X109228095Y55384704D02*
X109228095Y55337085D01*
X109228095Y55337085D02*
X109275714Y55241847D01*
X109275714Y55241847D02*
X109323333Y55194228D01*
X109323333Y55194228D02*
X109418571Y55146609D01*
X109418571Y55146609D02*
X109609047Y55146609D01*
X109609047Y55146609D02*
X109704285Y55098990D01*
X109704285Y55098990D02*
X109751904Y55051371D01*
X109751904Y55051371D02*
X109799523Y54956133D01*
X109799523Y54956133D02*
X109799523Y54765657D01*
X109799523Y54765657D02*
X109751904Y54670419D01*
X109751904Y54670419D02*
X109704285Y54622800D01*
X109704285Y54622800D02*
X109609047Y54575180D01*
X109609047Y54575180D02*
X109418571Y54575180D01*
X109418571Y54575180D02*
X109323333Y54622800D01*
X109323333Y54622800D02*
X109275714Y54670419D01*
X109275714Y54670419D02*
X109228095Y54765657D01*
X109228095Y54765657D02*
X109228095Y54956133D01*
X109228095Y54956133D02*
X109275714Y55051371D01*
X109275714Y55051371D02*
X109323333Y55098990D01*
X109323333Y55098990D02*
X109418571Y55146609D01*
X106941904Y54895180D02*
X106941904Y55895180D01*
X106370476Y54895180D02*
X106799047Y55466609D01*
X106370476Y55895180D02*
X106941904Y55323752D01*
X73604285Y54575180D02*
X73604285Y55575180D01*
X73604285Y55575180D02*
X73366190Y55575180D01*
X73366190Y55575180D02*
X73223333Y55527561D01*
X73223333Y55527561D02*
X73128095Y55432323D01*
X73128095Y55432323D02*
X73080476Y55337085D01*
X73080476Y55337085D02*
X73032857Y55146609D01*
X73032857Y55146609D02*
X73032857Y55003752D01*
X73032857Y55003752D02*
X73080476Y54813276D01*
X73080476Y54813276D02*
X73128095Y54718038D01*
X73128095Y54718038D02*
X73223333Y54622800D01*
X73223333Y54622800D02*
X73366190Y54575180D01*
X73366190Y54575180D02*
X73604285Y54575180D01*
X72175714Y55241847D02*
X72175714Y54575180D01*
X72413809Y55622800D02*
X72651904Y54908514D01*
X72651904Y54908514D02*
X72032857Y54908514D01*
X71223333Y55575180D02*
X71413809Y55575180D01*
X71413809Y55575180D02*
X71509047Y55527561D01*
X71509047Y55527561D02*
X71556666Y55479942D01*
X71556666Y55479942D02*
X71651904Y55337085D01*
X71651904Y55337085D02*
X71699523Y55146609D01*
X71699523Y55146609D02*
X71699523Y54765657D01*
X71699523Y54765657D02*
X71651904Y54670419D01*
X71651904Y54670419D02*
X71604285Y54622800D01*
X71604285Y54622800D02*
X71509047Y54575180D01*
X71509047Y54575180D02*
X71318571Y54575180D01*
X71318571Y54575180D02*
X71223333Y54622800D01*
X71223333Y54622800D02*
X71175714Y54670419D01*
X71175714Y54670419D02*
X71128095Y54765657D01*
X71128095Y54765657D02*
X71128095Y55003752D01*
X71128095Y55003752D02*
X71175714Y55098990D01*
X71175714Y55098990D02*
X71223333Y55146609D01*
X71223333Y55146609D02*
X71318571Y55194228D01*
X71318571Y55194228D02*
X71509047Y55194228D01*
X71509047Y55194228D02*
X71604285Y55146609D01*
X71604285Y55146609D02*
X71651904Y55098990D01*
X71651904Y55098990D02*
X71699523Y55003752D01*
X68841904Y54895180D02*
X68841904Y55895180D01*
X68270476Y54895180D02*
X68699047Y55466609D01*
X68270476Y55895180D02*
X68841904Y55323752D01*
X104968569Y50268035D02*
X103968569Y50268035D01*
X103968569Y50268035D02*
X103968569Y50029940D01*
X103968569Y50029940D02*
X104016188Y49887083D01*
X104016188Y49887083D02*
X104111426Y49791845D01*
X104111426Y49791845D02*
X104206664Y49744226D01*
X104206664Y49744226D02*
X104397140Y49696607D01*
X104397140Y49696607D02*
X104539997Y49696607D01*
X104539997Y49696607D02*
X104730473Y49744226D01*
X104730473Y49744226D02*
X104825711Y49791845D01*
X104825711Y49791845D02*
X104920950Y49887083D01*
X104920950Y49887083D02*
X104968569Y50029940D01*
X104968569Y50029940D02*
X104968569Y50268035D01*
X103968569Y48791845D02*
X103968569Y49268035D01*
X103968569Y49268035D02*
X104444759Y49315654D01*
X104444759Y49315654D02*
X104397140Y49268035D01*
X104397140Y49268035D02*
X104349521Y49172797D01*
X104349521Y49172797D02*
X104349521Y48934702D01*
X104349521Y48934702D02*
X104397140Y48839464D01*
X104397140Y48839464D02*
X104444759Y48791845D01*
X104444759Y48791845D02*
X104539997Y48744226D01*
X104539997Y48744226D02*
X104778092Y48744226D01*
X104778092Y48744226D02*
X104873330Y48791845D01*
X104873330Y48791845D02*
X104920950Y48839464D01*
X104920950Y48839464D02*
X104968569Y48934702D01*
X104968569Y48934702D02*
X104968569Y49172797D01*
X104968569Y49172797D02*
X104920950Y49268035D01*
X104920950Y49268035D02*
X104873330Y49315654D01*
X103968569Y48410892D02*
X103968569Y47744226D01*
X103968569Y47744226D02*
X104968569Y48172797D01*
X104648569Y45505654D02*
X103648569Y45505654D01*
X104648569Y44934226D02*
X104077140Y45362797D01*
X103648569Y44934226D02*
X104219997Y45505654D01*
X183141785Y111725180D02*
X183141785Y112725180D01*
X183141785Y112725180D02*
X182903690Y112725180D01*
X182903690Y112725180D02*
X182760833Y112677561D01*
X182760833Y112677561D02*
X182665595Y112582323D01*
X182665595Y112582323D02*
X182617976Y112487085D01*
X182617976Y112487085D02*
X182570357Y112296609D01*
X182570357Y112296609D02*
X182570357Y112153752D01*
X182570357Y112153752D02*
X182617976Y111963276D01*
X182617976Y111963276D02*
X182665595Y111868038D01*
X182665595Y111868038D02*
X182760833Y111772800D01*
X182760833Y111772800D02*
X182903690Y111725180D01*
X182903690Y111725180D02*
X183141785Y111725180D01*
X181617976Y111725180D02*
X182189404Y111725180D01*
X181903690Y111725180D02*
X181903690Y112725180D01*
X181903690Y112725180D02*
X181998928Y112582323D01*
X181998928Y112582323D02*
X182094166Y112487085D01*
X182094166Y112487085D02*
X182189404Y112439466D01*
X181237023Y112629942D02*
X181189404Y112677561D01*
X181189404Y112677561D02*
X181094166Y112725180D01*
X181094166Y112725180D02*
X180856071Y112725180D01*
X180856071Y112725180D02*
X180760833Y112677561D01*
X180760833Y112677561D02*
X180713214Y112629942D01*
X180713214Y112629942D02*
X180665595Y112534704D01*
X180665595Y112534704D02*
X180665595Y112439466D01*
X180665595Y112439466D02*
X180713214Y112296609D01*
X180713214Y112296609D02*
X181284642Y111725180D01*
X181284642Y111725180D02*
X180665595Y111725180D01*
X178379404Y112045180D02*
X178379404Y113045180D01*
X177807976Y112045180D02*
X178236547Y112616609D01*
X177807976Y113045180D02*
X178379404Y112473752D01*
X-26884405Y111725180D02*
X-26884405Y112725180D01*
X-26884405Y112725180D02*
X-27122500Y112725180D01*
X-27122500Y112725180D02*
X-27265357Y112677561D01*
X-27265357Y112677561D02*
X-27360595Y112582323D01*
X-27360595Y112582323D02*
X-27408214Y112487085D01*
X-27408214Y112487085D02*
X-27455833Y112296609D01*
X-27455833Y112296609D02*
X-27455833Y112153752D01*
X-27455833Y112153752D02*
X-27408214Y111963276D01*
X-27408214Y111963276D02*
X-27360595Y111868038D01*
X-27360595Y111868038D02*
X-27265357Y111772800D01*
X-27265357Y111772800D02*
X-27122500Y111725180D01*
X-27122500Y111725180D02*
X-26884405Y111725180D01*
X-28408214Y111725180D02*
X-27836786Y111725180D01*
X-28122500Y111725180D02*
X-28122500Y112725180D01*
X-28122500Y112725180D02*
X-28027262Y112582323D01*
X-28027262Y112582323D02*
X-27932024Y112487085D01*
X-27932024Y112487085D02*
X-27836786Y112439466D01*
X-31170595Y112045180D02*
X-31170595Y113045180D01*
X-31742023Y112045180D02*
X-31313452Y112616609D01*
X-31742023Y113045180D02*
X-31170595Y112473752D01*
X154566785Y92675180D02*
X154566785Y93675180D01*
X154566785Y93675180D02*
X154328690Y93675180D01*
X154328690Y93675180D02*
X154185833Y93627561D01*
X154185833Y93627561D02*
X154090595Y93532323D01*
X154090595Y93532323D02*
X154042976Y93437085D01*
X154042976Y93437085D02*
X153995357Y93246609D01*
X153995357Y93246609D02*
X153995357Y93103752D01*
X153995357Y93103752D02*
X154042976Y92913276D01*
X154042976Y92913276D02*
X154090595Y92818038D01*
X154090595Y92818038D02*
X154185833Y92722800D01*
X154185833Y92722800D02*
X154328690Y92675180D01*
X154328690Y92675180D02*
X154566785Y92675180D01*
X153614404Y93579942D02*
X153566785Y93627561D01*
X153566785Y93627561D02*
X153471547Y93675180D01*
X153471547Y93675180D02*
X153233452Y93675180D01*
X153233452Y93675180D02*
X153138214Y93627561D01*
X153138214Y93627561D02*
X153090595Y93579942D01*
X153090595Y93579942D02*
X153042976Y93484704D01*
X153042976Y93484704D02*
X153042976Y93389466D01*
X153042976Y93389466D02*
X153090595Y93246609D01*
X153090595Y93246609D02*
X153662023Y92675180D01*
X153662023Y92675180D02*
X153042976Y92675180D01*
X152185833Y93341847D02*
X152185833Y92675180D01*
X152423928Y93722800D02*
X152662023Y93008514D01*
X152662023Y93008514D02*
X152042976Y93008514D01*
X149804404Y92995180D02*
X149804404Y93995180D01*
X149232976Y92995180D02*
X149661547Y93566609D01*
X149232976Y93995180D02*
X149804404Y93423752D01*
X226412319Y50268035D02*
X225412319Y50268035D01*
X225412319Y50268035D02*
X225412319Y50029940D01*
X225412319Y50029940D02*
X225459938Y49887083D01*
X225459938Y49887083D02*
X225555176Y49791845D01*
X225555176Y49791845D02*
X225650414Y49744226D01*
X225650414Y49744226D02*
X225840890Y49696607D01*
X225840890Y49696607D02*
X225983747Y49696607D01*
X225983747Y49696607D02*
X226174223Y49744226D01*
X226174223Y49744226D02*
X226269461Y49791845D01*
X226269461Y49791845D02*
X226364700Y49887083D01*
X226364700Y49887083D02*
X226412319Y50029940D01*
X226412319Y50029940D02*
X226412319Y50268035D01*
X225412319Y48839464D02*
X225412319Y49029940D01*
X225412319Y49029940D02*
X225459938Y49125178D01*
X225459938Y49125178D02*
X225507557Y49172797D01*
X225507557Y49172797D02*
X225650414Y49268035D01*
X225650414Y49268035D02*
X225840890Y49315654D01*
X225840890Y49315654D02*
X226221842Y49315654D01*
X226221842Y49315654D02*
X226317080Y49268035D01*
X226317080Y49268035D02*
X226364700Y49220416D01*
X226364700Y49220416D02*
X226412319Y49125178D01*
X226412319Y49125178D02*
X226412319Y48934702D01*
X226412319Y48934702D02*
X226364700Y48839464D01*
X226364700Y48839464D02*
X226317080Y48791845D01*
X226317080Y48791845D02*
X226221842Y48744226D01*
X226221842Y48744226D02*
X225983747Y48744226D01*
X225983747Y48744226D02*
X225888509Y48791845D01*
X225888509Y48791845D02*
X225840890Y48839464D01*
X225840890Y48839464D02*
X225793271Y48934702D01*
X225793271Y48934702D02*
X225793271Y49125178D01*
X225793271Y49125178D02*
X225840890Y49220416D01*
X225840890Y49220416D02*
X225888509Y49268035D01*
X225888509Y49268035D02*
X225983747Y49315654D01*
X225412319Y48125178D02*
X225412319Y48029940D01*
X225412319Y48029940D02*
X225459938Y47934702D01*
X225459938Y47934702D02*
X225507557Y47887083D01*
X225507557Y47887083D02*
X225602795Y47839464D01*
X225602795Y47839464D02*
X225793271Y47791845D01*
X225793271Y47791845D02*
X226031366Y47791845D01*
X226031366Y47791845D02*
X226221842Y47839464D01*
X226221842Y47839464D02*
X226317080Y47887083D01*
X226317080Y47887083D02*
X226364700Y47934702D01*
X226364700Y47934702D02*
X226412319Y48029940D01*
X226412319Y48029940D02*
X226412319Y48125178D01*
X226412319Y48125178D02*
X226364700Y48220416D01*
X226364700Y48220416D02*
X226317080Y48268035D01*
X226317080Y48268035D02*
X226221842Y48315654D01*
X226221842Y48315654D02*
X226031366Y48363273D01*
X226031366Y48363273D02*
X225793271Y48363273D01*
X225793271Y48363273D02*
X225602795Y48315654D01*
X225602795Y48315654D02*
X225507557Y48268035D01*
X225507557Y48268035D02*
X225459938Y48220416D01*
X225459938Y48220416D02*
X225412319Y48125178D01*
X226092319Y45505654D02*
X225092319Y45505654D01*
X226092319Y44934226D02*
X225520890Y45362797D01*
X225092319Y44934226D02*
X225663747Y45505654D01*
X164091785Y111725180D02*
X164091785Y112725180D01*
X164091785Y112725180D02*
X163853690Y112725180D01*
X163853690Y112725180D02*
X163710833Y112677561D01*
X163710833Y112677561D02*
X163615595Y112582323D01*
X163615595Y112582323D02*
X163567976Y112487085D01*
X163567976Y112487085D02*
X163520357Y112296609D01*
X163520357Y112296609D02*
X163520357Y112153752D01*
X163520357Y112153752D02*
X163567976Y111963276D01*
X163567976Y111963276D02*
X163615595Y111868038D01*
X163615595Y111868038D02*
X163710833Y111772800D01*
X163710833Y111772800D02*
X163853690Y111725180D01*
X163853690Y111725180D02*
X164091785Y111725180D01*
X162567976Y111725180D02*
X163139404Y111725180D01*
X162853690Y111725180D02*
X162853690Y112725180D01*
X162853690Y112725180D02*
X162948928Y112582323D01*
X162948928Y112582323D02*
X163044166Y112487085D01*
X163044166Y112487085D02*
X163139404Y112439466D01*
X161615595Y111725180D02*
X162187023Y111725180D01*
X161901309Y111725180D02*
X161901309Y112725180D01*
X161901309Y112725180D02*
X161996547Y112582323D01*
X161996547Y112582323D02*
X162091785Y112487085D01*
X162091785Y112487085D02*
X162187023Y112439466D01*
X159329404Y112045180D02*
X159329404Y113045180D01*
X158757976Y112045180D02*
X159186547Y112616609D01*
X158757976Y113045180D02*
X159329404Y112473752D01*
X25979285Y73625180D02*
X25979285Y74625180D01*
X25979285Y74625180D02*
X25741190Y74625180D01*
X25741190Y74625180D02*
X25598333Y74577561D01*
X25598333Y74577561D02*
X25503095Y74482323D01*
X25503095Y74482323D02*
X25455476Y74387085D01*
X25455476Y74387085D02*
X25407857Y74196609D01*
X25407857Y74196609D02*
X25407857Y74053752D01*
X25407857Y74053752D02*
X25455476Y73863276D01*
X25455476Y73863276D02*
X25503095Y73768038D01*
X25503095Y73768038D02*
X25598333Y73672800D01*
X25598333Y73672800D02*
X25741190Y73625180D01*
X25741190Y73625180D02*
X25979285Y73625180D01*
X25074523Y74625180D02*
X24455476Y74625180D01*
X24455476Y74625180D02*
X24788809Y74244228D01*
X24788809Y74244228D02*
X24645952Y74244228D01*
X24645952Y74244228D02*
X24550714Y74196609D01*
X24550714Y74196609D02*
X24503095Y74148990D01*
X24503095Y74148990D02*
X24455476Y74053752D01*
X24455476Y74053752D02*
X24455476Y73815657D01*
X24455476Y73815657D02*
X24503095Y73720419D01*
X24503095Y73720419D02*
X24550714Y73672800D01*
X24550714Y73672800D02*
X24645952Y73625180D01*
X24645952Y73625180D02*
X24931666Y73625180D01*
X24931666Y73625180D02*
X25026904Y73672800D01*
X25026904Y73672800D02*
X25074523Y73720419D01*
X23503095Y73625180D02*
X24074523Y73625180D01*
X23788809Y73625180D02*
X23788809Y74625180D01*
X23788809Y74625180D02*
X23884047Y74482323D01*
X23884047Y74482323D02*
X23979285Y74387085D01*
X23979285Y74387085D02*
X24074523Y74339466D01*
X21216904Y73945180D02*
X21216904Y74945180D01*
X20645476Y73945180D02*
X21074047Y74516609D01*
X20645476Y74945180D02*
X21216904Y74373752D01*
X178379285Y73625180D02*
X178379285Y74625180D01*
X178379285Y74625180D02*
X178141190Y74625180D01*
X178141190Y74625180D02*
X177998333Y74577561D01*
X177998333Y74577561D02*
X177903095Y74482323D01*
X177903095Y74482323D02*
X177855476Y74387085D01*
X177855476Y74387085D02*
X177807857Y74196609D01*
X177807857Y74196609D02*
X177807857Y74053752D01*
X177807857Y74053752D02*
X177855476Y73863276D01*
X177855476Y73863276D02*
X177903095Y73768038D01*
X177903095Y73768038D02*
X177998333Y73672800D01*
X177998333Y73672800D02*
X178141190Y73625180D01*
X178141190Y73625180D02*
X178379285Y73625180D01*
X177474523Y74625180D02*
X176855476Y74625180D01*
X176855476Y74625180D02*
X177188809Y74244228D01*
X177188809Y74244228D02*
X177045952Y74244228D01*
X177045952Y74244228D02*
X176950714Y74196609D01*
X176950714Y74196609D02*
X176903095Y74148990D01*
X176903095Y74148990D02*
X176855476Y74053752D01*
X176855476Y74053752D02*
X176855476Y73815657D01*
X176855476Y73815657D02*
X176903095Y73720419D01*
X176903095Y73720419D02*
X176950714Y73672800D01*
X176950714Y73672800D02*
X177045952Y73625180D01*
X177045952Y73625180D02*
X177331666Y73625180D01*
X177331666Y73625180D02*
X177426904Y73672800D01*
X177426904Y73672800D02*
X177474523Y73720419D01*
X176379285Y73625180D02*
X176188809Y73625180D01*
X176188809Y73625180D02*
X176093571Y73672800D01*
X176093571Y73672800D02*
X176045952Y73720419D01*
X176045952Y73720419D02*
X175950714Y73863276D01*
X175950714Y73863276D02*
X175903095Y74053752D01*
X175903095Y74053752D02*
X175903095Y74434704D01*
X175903095Y74434704D02*
X175950714Y74529942D01*
X175950714Y74529942D02*
X175998333Y74577561D01*
X175998333Y74577561D02*
X176093571Y74625180D01*
X176093571Y74625180D02*
X176284047Y74625180D01*
X176284047Y74625180D02*
X176379285Y74577561D01*
X176379285Y74577561D02*
X176426904Y74529942D01*
X176426904Y74529942D02*
X176474523Y74434704D01*
X176474523Y74434704D02*
X176474523Y74196609D01*
X176474523Y74196609D02*
X176426904Y74101371D01*
X176426904Y74101371D02*
X176379285Y74053752D01*
X176379285Y74053752D02*
X176284047Y74006133D01*
X176284047Y74006133D02*
X176093571Y74006133D01*
X176093571Y74006133D02*
X175998333Y74053752D01*
X175998333Y74053752D02*
X175950714Y74101371D01*
X175950714Y74101371D02*
X175903095Y74196609D01*
X173616904Y73945180D02*
X173616904Y74945180D01*
X173045476Y73945180D02*
X173474047Y74516609D01*
X173045476Y74945180D02*
X173616904Y74373752D01*
X16454285Y54575180D02*
X16454285Y55575180D01*
X16454285Y55575180D02*
X16216190Y55575180D01*
X16216190Y55575180D02*
X16073333Y55527561D01*
X16073333Y55527561D02*
X15978095Y55432323D01*
X15978095Y55432323D02*
X15930476Y55337085D01*
X15930476Y55337085D02*
X15882857Y55146609D01*
X15882857Y55146609D02*
X15882857Y55003752D01*
X15882857Y55003752D02*
X15930476Y54813276D01*
X15930476Y54813276D02*
X15978095Y54718038D01*
X15978095Y54718038D02*
X16073333Y54622800D01*
X16073333Y54622800D02*
X16216190Y54575180D01*
X16216190Y54575180D02*
X16454285Y54575180D01*
X15025714Y55241847D02*
X15025714Y54575180D01*
X15263809Y55622800D02*
X15501904Y54908514D01*
X15501904Y54908514D02*
X14882857Y54908514D01*
X14597142Y55575180D02*
X13978095Y55575180D01*
X13978095Y55575180D02*
X14311428Y55194228D01*
X14311428Y55194228D02*
X14168571Y55194228D01*
X14168571Y55194228D02*
X14073333Y55146609D01*
X14073333Y55146609D02*
X14025714Y55098990D01*
X14025714Y55098990D02*
X13978095Y55003752D01*
X13978095Y55003752D02*
X13978095Y54765657D01*
X13978095Y54765657D02*
X14025714Y54670419D01*
X14025714Y54670419D02*
X14073333Y54622800D01*
X14073333Y54622800D02*
X14168571Y54575180D01*
X14168571Y54575180D02*
X14454285Y54575180D01*
X14454285Y54575180D02*
X14549523Y54622800D01*
X14549523Y54622800D02*
X14597142Y54670419D01*
X11691904Y54895180D02*
X11691904Y55895180D01*
X11120476Y54895180D02*
X11549047Y55466609D01*
X11120476Y55895180D02*
X11691904Y55323752D01*
X225051785Y73625180D02*
X225051785Y74625180D01*
X225051785Y74625180D02*
X224813690Y74625180D01*
X224813690Y74625180D02*
X224670833Y74577561D01*
X224670833Y74577561D02*
X224575595Y74482323D01*
X224575595Y74482323D02*
X224527976Y74387085D01*
X224527976Y74387085D02*
X224480357Y74196609D01*
X224480357Y74196609D02*
X224480357Y74053752D01*
X224480357Y74053752D02*
X224527976Y73863276D01*
X224527976Y73863276D02*
X224575595Y73768038D01*
X224575595Y73768038D02*
X224670833Y73672800D01*
X224670833Y73672800D02*
X224813690Y73625180D01*
X224813690Y73625180D02*
X225051785Y73625180D01*
X223623214Y74291847D02*
X223623214Y73625180D01*
X223861309Y74672800D02*
X224099404Y73958514D01*
X224099404Y73958514D02*
X223480357Y73958514D01*
X222575595Y73625180D02*
X223147023Y73625180D01*
X222861309Y73625180D02*
X222861309Y74625180D01*
X222861309Y74625180D02*
X222956547Y74482323D01*
X222956547Y74482323D02*
X223051785Y74387085D01*
X223051785Y74387085D02*
X223147023Y74339466D01*
X220289404Y73945180D02*
X220289404Y74945180D01*
X219717976Y73945180D02*
X220146547Y74516609D01*
X219717976Y74945180D02*
X220289404Y74373752D01*
X-19264464Y73625180D02*
X-19264464Y74625180D01*
X-19264464Y74625180D02*
X-19502559Y74625180D01*
X-19502559Y74625180D02*
X-19645416Y74577561D01*
X-19645416Y74577561D02*
X-19740654Y74482323D01*
X-19740654Y74482323D02*
X-19788273Y74387085D01*
X-19788273Y74387085D02*
X-19835892Y74196609D01*
X-19835892Y74196609D02*
X-19835892Y74053752D01*
X-19835892Y74053752D02*
X-19788273Y73863276D01*
X-19788273Y73863276D02*
X-19740654Y73768038D01*
X-19740654Y73768038D02*
X-19645416Y73672800D01*
X-19645416Y73672800D02*
X-19502559Y73625180D01*
X-19502559Y73625180D02*
X-19264464Y73625180D01*
X-20216845Y74529942D02*
X-20264464Y74577561D01*
X-20264464Y74577561D02*
X-20359702Y74625180D01*
X-20359702Y74625180D02*
X-20597797Y74625180D01*
X-20597797Y74625180D02*
X-20693035Y74577561D01*
X-20693035Y74577561D02*
X-20740654Y74529942D01*
X-20740654Y74529942D02*
X-20788273Y74434704D01*
X-20788273Y74434704D02*
X-20788273Y74339466D01*
X-20788273Y74339466D02*
X-20740654Y74196609D01*
X-20740654Y74196609D02*
X-20169226Y73625180D01*
X-20169226Y73625180D02*
X-20788273Y73625180D01*
X-21264464Y73625180D02*
X-21454940Y73625180D01*
X-21454940Y73625180D02*
X-21550178Y73672800D01*
X-21550178Y73672800D02*
X-21597797Y73720419D01*
X-21597797Y73720419D02*
X-21693035Y73863276D01*
X-21693035Y73863276D02*
X-21740654Y74053752D01*
X-21740654Y74053752D02*
X-21740654Y74434704D01*
X-21740654Y74434704D02*
X-21693035Y74529942D01*
X-21693035Y74529942D02*
X-21645416Y74577561D01*
X-21645416Y74577561D02*
X-21550178Y74625180D01*
X-21550178Y74625180D02*
X-21359702Y74625180D01*
X-21359702Y74625180D02*
X-21264464Y74577561D01*
X-21264464Y74577561D02*
X-21216845Y74529942D01*
X-21216845Y74529942D02*
X-21169226Y74434704D01*
X-21169226Y74434704D02*
X-21169226Y74196609D01*
X-21169226Y74196609D02*
X-21216845Y74101371D01*
X-21216845Y74101371D02*
X-21264464Y74053752D01*
X-21264464Y74053752D02*
X-21359702Y74006133D01*
X-21359702Y74006133D02*
X-21550178Y74006133D01*
X-21550178Y74006133D02*
X-21645416Y74053752D01*
X-21645416Y74053752D02*
X-21693035Y74101371D01*
X-21693035Y74101371D02*
X-21740654Y74196609D01*
X-24026845Y73945180D02*
X-24026845Y74945180D01*
X-24598273Y73945180D02*
X-24169702Y74516609D01*
X-24598273Y74945180D02*
X-24026845Y74373752D01*
X202599819Y50268035D02*
X201599819Y50268035D01*
X201599819Y50268035D02*
X201599819Y50029940D01*
X201599819Y50029940D02*
X201647438Y49887083D01*
X201647438Y49887083D02*
X201742676Y49791845D01*
X201742676Y49791845D02*
X201837914Y49744226D01*
X201837914Y49744226D02*
X202028390Y49696607D01*
X202028390Y49696607D02*
X202171247Y49696607D01*
X202171247Y49696607D02*
X202361723Y49744226D01*
X202361723Y49744226D02*
X202456961Y49791845D01*
X202456961Y49791845D02*
X202552200Y49887083D01*
X202552200Y49887083D02*
X202599819Y50029940D01*
X202599819Y50029940D02*
X202599819Y50268035D01*
X201599819Y48791845D02*
X201599819Y49268035D01*
X201599819Y49268035D02*
X202076009Y49315654D01*
X202076009Y49315654D02*
X202028390Y49268035D01*
X202028390Y49268035D02*
X201980771Y49172797D01*
X201980771Y49172797D02*
X201980771Y48934702D01*
X201980771Y48934702D02*
X202028390Y48839464D01*
X202028390Y48839464D02*
X202076009Y48791845D01*
X202076009Y48791845D02*
X202171247Y48744226D01*
X202171247Y48744226D02*
X202409342Y48744226D01*
X202409342Y48744226D02*
X202504580Y48791845D01*
X202504580Y48791845D02*
X202552200Y48839464D01*
X202552200Y48839464D02*
X202599819Y48934702D01*
X202599819Y48934702D02*
X202599819Y49172797D01*
X202599819Y49172797D02*
X202552200Y49268035D01*
X202552200Y49268035D02*
X202504580Y49315654D01*
X202599819Y48268035D02*
X202599819Y48077559D01*
X202599819Y48077559D02*
X202552200Y47982321D01*
X202552200Y47982321D02*
X202504580Y47934702D01*
X202504580Y47934702D02*
X202361723Y47839464D01*
X202361723Y47839464D02*
X202171247Y47791845D01*
X202171247Y47791845D02*
X201790295Y47791845D01*
X201790295Y47791845D02*
X201695057Y47839464D01*
X201695057Y47839464D02*
X201647438Y47887083D01*
X201647438Y47887083D02*
X201599819Y47982321D01*
X201599819Y47982321D02*
X201599819Y48172797D01*
X201599819Y48172797D02*
X201647438Y48268035D01*
X201647438Y48268035D02*
X201695057Y48315654D01*
X201695057Y48315654D02*
X201790295Y48363273D01*
X201790295Y48363273D02*
X202028390Y48363273D01*
X202028390Y48363273D02*
X202123628Y48315654D01*
X202123628Y48315654D02*
X202171247Y48268035D01*
X202171247Y48268035D02*
X202218866Y48172797D01*
X202218866Y48172797D02*
X202218866Y47982321D01*
X202218866Y47982321D02*
X202171247Y47887083D01*
X202171247Y47887083D02*
X202123628Y47839464D01*
X202123628Y47839464D02*
X202028390Y47791845D01*
X202279819Y45505654D02*
X201279819Y45505654D01*
X202279819Y44934226D02*
X201708390Y45362797D01*
X201279819Y44934226D02*
X201851247Y45505654D01*
X230766785Y92675180D02*
X230766785Y93675180D01*
X230766785Y93675180D02*
X230528690Y93675180D01*
X230528690Y93675180D02*
X230385833Y93627561D01*
X230385833Y93627561D02*
X230290595Y93532323D01*
X230290595Y93532323D02*
X230242976Y93437085D01*
X230242976Y93437085D02*
X230195357Y93246609D01*
X230195357Y93246609D02*
X230195357Y93103752D01*
X230195357Y93103752D02*
X230242976Y92913276D01*
X230242976Y92913276D02*
X230290595Y92818038D01*
X230290595Y92818038D02*
X230385833Y92722800D01*
X230385833Y92722800D02*
X230528690Y92675180D01*
X230528690Y92675180D02*
X230766785Y92675180D01*
X229814404Y93579942D02*
X229766785Y93627561D01*
X229766785Y93627561D02*
X229671547Y93675180D01*
X229671547Y93675180D02*
X229433452Y93675180D01*
X229433452Y93675180D02*
X229338214Y93627561D01*
X229338214Y93627561D02*
X229290595Y93579942D01*
X229290595Y93579942D02*
X229242976Y93484704D01*
X229242976Y93484704D02*
X229242976Y93389466D01*
X229242976Y93389466D02*
X229290595Y93246609D01*
X229290595Y93246609D02*
X229862023Y92675180D01*
X229862023Y92675180D02*
X229242976Y92675180D01*
X228671547Y93246609D02*
X228766785Y93294228D01*
X228766785Y93294228D02*
X228814404Y93341847D01*
X228814404Y93341847D02*
X228862023Y93437085D01*
X228862023Y93437085D02*
X228862023Y93484704D01*
X228862023Y93484704D02*
X228814404Y93579942D01*
X228814404Y93579942D02*
X228766785Y93627561D01*
X228766785Y93627561D02*
X228671547Y93675180D01*
X228671547Y93675180D02*
X228481071Y93675180D01*
X228481071Y93675180D02*
X228385833Y93627561D01*
X228385833Y93627561D02*
X228338214Y93579942D01*
X228338214Y93579942D02*
X228290595Y93484704D01*
X228290595Y93484704D02*
X228290595Y93437085D01*
X228290595Y93437085D02*
X228338214Y93341847D01*
X228338214Y93341847D02*
X228385833Y93294228D01*
X228385833Y93294228D02*
X228481071Y93246609D01*
X228481071Y93246609D02*
X228671547Y93246609D01*
X228671547Y93246609D02*
X228766785Y93198990D01*
X228766785Y93198990D02*
X228814404Y93151371D01*
X228814404Y93151371D02*
X228862023Y93056133D01*
X228862023Y93056133D02*
X228862023Y92865657D01*
X228862023Y92865657D02*
X228814404Y92770419D01*
X228814404Y92770419D02*
X228766785Y92722800D01*
X228766785Y92722800D02*
X228671547Y92675180D01*
X228671547Y92675180D02*
X228481071Y92675180D01*
X228481071Y92675180D02*
X228385833Y92722800D01*
X228385833Y92722800D02*
X228338214Y92770419D01*
X228338214Y92770419D02*
X228290595Y92865657D01*
X228290595Y92865657D02*
X228290595Y93056133D01*
X228290595Y93056133D02*
X228338214Y93151371D01*
X228338214Y93151371D02*
X228385833Y93198990D01*
X228385833Y93198990D02*
X228481071Y93246609D01*
X226004404Y92995180D02*
X226004404Y93995180D01*
X225432976Y92995180D02*
X225861547Y93566609D01*
X225432976Y93995180D02*
X226004404Y93423752D01*
X223623035Y54575180D02*
X223623035Y55575180D01*
X223623035Y55575180D02*
X223384940Y55575180D01*
X223384940Y55575180D02*
X223242083Y55527561D01*
X223242083Y55527561D02*
X223146845Y55432323D01*
X223146845Y55432323D02*
X223099226Y55337085D01*
X223099226Y55337085D02*
X223051607Y55146609D01*
X223051607Y55146609D02*
X223051607Y55003752D01*
X223051607Y55003752D02*
X223099226Y54813276D01*
X223099226Y54813276D02*
X223146845Y54718038D01*
X223146845Y54718038D02*
X223242083Y54622800D01*
X223242083Y54622800D02*
X223384940Y54575180D01*
X223384940Y54575180D02*
X223623035Y54575180D01*
X222146845Y55575180D02*
X222623035Y55575180D01*
X222623035Y55575180D02*
X222670654Y55098990D01*
X222670654Y55098990D02*
X222623035Y55146609D01*
X222623035Y55146609D02*
X222527797Y55194228D01*
X222527797Y55194228D02*
X222289702Y55194228D01*
X222289702Y55194228D02*
X222194464Y55146609D01*
X222194464Y55146609D02*
X222146845Y55098990D01*
X222146845Y55098990D02*
X222099226Y55003752D01*
X222099226Y55003752D02*
X222099226Y54765657D01*
X222099226Y54765657D02*
X222146845Y54670419D01*
X222146845Y54670419D02*
X222194464Y54622800D01*
X222194464Y54622800D02*
X222289702Y54575180D01*
X222289702Y54575180D02*
X222527797Y54575180D01*
X222527797Y54575180D02*
X222623035Y54622800D01*
X222623035Y54622800D02*
X222670654Y54670419D01*
X221765892Y55575180D02*
X221146845Y55575180D01*
X221146845Y55575180D02*
X221480178Y55194228D01*
X221480178Y55194228D02*
X221337321Y55194228D01*
X221337321Y55194228D02*
X221242083Y55146609D01*
X221242083Y55146609D02*
X221194464Y55098990D01*
X221194464Y55098990D02*
X221146845Y55003752D01*
X221146845Y55003752D02*
X221146845Y54765657D01*
X221146845Y54765657D02*
X221194464Y54670419D01*
X221194464Y54670419D02*
X221242083Y54622800D01*
X221242083Y54622800D02*
X221337321Y54575180D01*
X221337321Y54575180D02*
X221623035Y54575180D01*
X221623035Y54575180D02*
X221718273Y54622800D01*
X221718273Y54622800D02*
X221765892Y54670419D01*
X218860654Y54895180D02*
X218860654Y55895180D01*
X218289226Y54895180D02*
X218717797Y55466609D01*
X218289226Y55895180D02*
X218860654Y55323752D01*
X45029285Y73625180D02*
X45029285Y74625180D01*
X45029285Y74625180D02*
X44791190Y74625180D01*
X44791190Y74625180D02*
X44648333Y74577561D01*
X44648333Y74577561D02*
X44553095Y74482323D01*
X44553095Y74482323D02*
X44505476Y74387085D01*
X44505476Y74387085D02*
X44457857Y74196609D01*
X44457857Y74196609D02*
X44457857Y74053752D01*
X44457857Y74053752D02*
X44505476Y73863276D01*
X44505476Y73863276D02*
X44553095Y73768038D01*
X44553095Y73768038D02*
X44648333Y73672800D01*
X44648333Y73672800D02*
X44791190Y73625180D01*
X44791190Y73625180D02*
X45029285Y73625180D01*
X44124523Y74625180D02*
X43505476Y74625180D01*
X43505476Y74625180D02*
X43838809Y74244228D01*
X43838809Y74244228D02*
X43695952Y74244228D01*
X43695952Y74244228D02*
X43600714Y74196609D01*
X43600714Y74196609D02*
X43553095Y74148990D01*
X43553095Y74148990D02*
X43505476Y74053752D01*
X43505476Y74053752D02*
X43505476Y73815657D01*
X43505476Y73815657D02*
X43553095Y73720419D01*
X43553095Y73720419D02*
X43600714Y73672800D01*
X43600714Y73672800D02*
X43695952Y73625180D01*
X43695952Y73625180D02*
X43981666Y73625180D01*
X43981666Y73625180D02*
X44076904Y73672800D01*
X44076904Y73672800D02*
X44124523Y73720419D01*
X43124523Y74529942D02*
X43076904Y74577561D01*
X43076904Y74577561D02*
X42981666Y74625180D01*
X42981666Y74625180D02*
X42743571Y74625180D01*
X42743571Y74625180D02*
X42648333Y74577561D01*
X42648333Y74577561D02*
X42600714Y74529942D01*
X42600714Y74529942D02*
X42553095Y74434704D01*
X42553095Y74434704D02*
X42553095Y74339466D01*
X42553095Y74339466D02*
X42600714Y74196609D01*
X42600714Y74196609D02*
X43172142Y73625180D01*
X43172142Y73625180D02*
X42553095Y73625180D01*
X40266904Y73945180D02*
X40266904Y74945180D01*
X39695476Y73945180D02*
X40124047Y74516609D01*
X39695476Y74945180D02*
X40266904Y74373752D01*
X116466785Y92675180D02*
X116466785Y93675180D01*
X116466785Y93675180D02*
X116228690Y93675180D01*
X116228690Y93675180D02*
X116085833Y93627561D01*
X116085833Y93627561D02*
X115990595Y93532323D01*
X115990595Y93532323D02*
X115942976Y93437085D01*
X115942976Y93437085D02*
X115895357Y93246609D01*
X115895357Y93246609D02*
X115895357Y93103752D01*
X115895357Y93103752D02*
X115942976Y92913276D01*
X115942976Y92913276D02*
X115990595Y92818038D01*
X115990595Y92818038D02*
X116085833Y92722800D01*
X116085833Y92722800D02*
X116228690Y92675180D01*
X116228690Y92675180D02*
X116466785Y92675180D01*
X115514404Y93579942D02*
X115466785Y93627561D01*
X115466785Y93627561D02*
X115371547Y93675180D01*
X115371547Y93675180D02*
X115133452Y93675180D01*
X115133452Y93675180D02*
X115038214Y93627561D01*
X115038214Y93627561D02*
X114990595Y93579942D01*
X114990595Y93579942D02*
X114942976Y93484704D01*
X114942976Y93484704D02*
X114942976Y93389466D01*
X114942976Y93389466D02*
X114990595Y93246609D01*
X114990595Y93246609D02*
X115562023Y92675180D01*
X115562023Y92675180D02*
X114942976Y92675180D01*
X114562023Y93579942D02*
X114514404Y93627561D01*
X114514404Y93627561D02*
X114419166Y93675180D01*
X114419166Y93675180D02*
X114181071Y93675180D01*
X114181071Y93675180D02*
X114085833Y93627561D01*
X114085833Y93627561D02*
X114038214Y93579942D01*
X114038214Y93579942D02*
X113990595Y93484704D01*
X113990595Y93484704D02*
X113990595Y93389466D01*
X113990595Y93389466D02*
X114038214Y93246609D01*
X114038214Y93246609D02*
X114609642Y92675180D01*
X114609642Y92675180D02*
X113990595Y92675180D01*
X111704404Y92995180D02*
X111704404Y93995180D01*
X111132976Y92995180D02*
X111561547Y93566609D01*
X111132976Y93995180D02*
X111704404Y93423752D01*
X11215594Y111725180D02*
X11215594Y112725180D01*
X11215594Y112725180D02*
X10977499Y112725180D01*
X10977499Y112725180D02*
X10834642Y112677561D01*
X10834642Y112677561D02*
X10739404Y112582323D01*
X10739404Y112582323D02*
X10691785Y112487085D01*
X10691785Y112487085D02*
X10644166Y112296609D01*
X10644166Y112296609D02*
X10644166Y112153752D01*
X10644166Y112153752D02*
X10691785Y111963276D01*
X10691785Y111963276D02*
X10739404Y111868038D01*
X10739404Y111868038D02*
X10834642Y111772800D01*
X10834642Y111772800D02*
X10977499Y111725180D01*
X10977499Y111725180D02*
X11215594Y111725180D01*
X10310832Y112725180D02*
X9691785Y112725180D01*
X9691785Y112725180D02*
X10025118Y112344228D01*
X10025118Y112344228D02*
X9882261Y112344228D01*
X9882261Y112344228D02*
X9787023Y112296609D01*
X9787023Y112296609D02*
X9739404Y112248990D01*
X9739404Y112248990D02*
X9691785Y112153752D01*
X9691785Y112153752D02*
X9691785Y111915657D01*
X9691785Y111915657D02*
X9739404Y111820419D01*
X9739404Y111820419D02*
X9787023Y111772800D01*
X9787023Y111772800D02*
X9882261Y111725180D01*
X9882261Y111725180D02*
X10167975Y111725180D01*
X10167975Y111725180D02*
X10263213Y111772800D01*
X10263213Y111772800D02*
X10310832Y111820419D01*
X6929404Y112045180D02*
X6929404Y113045180D01*
X6357976Y112045180D02*
X6786547Y112616609D01*
X6357976Y113045180D02*
X6929404Y112473752D01*
X64079285Y73625180D02*
X64079285Y74625180D01*
X64079285Y74625180D02*
X63841190Y74625180D01*
X63841190Y74625180D02*
X63698333Y74577561D01*
X63698333Y74577561D02*
X63603095Y74482323D01*
X63603095Y74482323D02*
X63555476Y74387085D01*
X63555476Y74387085D02*
X63507857Y74196609D01*
X63507857Y74196609D02*
X63507857Y74053752D01*
X63507857Y74053752D02*
X63555476Y73863276D01*
X63555476Y73863276D02*
X63603095Y73768038D01*
X63603095Y73768038D02*
X63698333Y73672800D01*
X63698333Y73672800D02*
X63841190Y73625180D01*
X63841190Y73625180D02*
X64079285Y73625180D01*
X63174523Y74625180D02*
X62555476Y74625180D01*
X62555476Y74625180D02*
X62888809Y74244228D01*
X62888809Y74244228D02*
X62745952Y74244228D01*
X62745952Y74244228D02*
X62650714Y74196609D01*
X62650714Y74196609D02*
X62603095Y74148990D01*
X62603095Y74148990D02*
X62555476Y74053752D01*
X62555476Y74053752D02*
X62555476Y73815657D01*
X62555476Y73815657D02*
X62603095Y73720419D01*
X62603095Y73720419D02*
X62650714Y73672800D01*
X62650714Y73672800D02*
X62745952Y73625180D01*
X62745952Y73625180D02*
X63031666Y73625180D01*
X63031666Y73625180D02*
X63126904Y73672800D01*
X63126904Y73672800D02*
X63174523Y73720419D01*
X62222142Y74625180D02*
X61603095Y74625180D01*
X61603095Y74625180D02*
X61936428Y74244228D01*
X61936428Y74244228D02*
X61793571Y74244228D01*
X61793571Y74244228D02*
X61698333Y74196609D01*
X61698333Y74196609D02*
X61650714Y74148990D01*
X61650714Y74148990D02*
X61603095Y74053752D01*
X61603095Y74053752D02*
X61603095Y73815657D01*
X61603095Y73815657D02*
X61650714Y73720419D01*
X61650714Y73720419D02*
X61698333Y73672800D01*
X61698333Y73672800D02*
X61793571Y73625180D01*
X61793571Y73625180D02*
X62079285Y73625180D01*
X62079285Y73625180D02*
X62174523Y73672800D01*
X62174523Y73672800D02*
X62222142Y73720419D01*
X59316904Y73945180D02*
X59316904Y74945180D01*
X58745476Y73945180D02*
X59174047Y74516609D01*
X58745476Y74945180D02*
X59316904Y74373752D01*
X35504285Y54575180D02*
X35504285Y55575180D01*
X35504285Y55575180D02*
X35266190Y55575180D01*
X35266190Y55575180D02*
X35123333Y55527561D01*
X35123333Y55527561D02*
X35028095Y55432323D01*
X35028095Y55432323D02*
X34980476Y55337085D01*
X34980476Y55337085D02*
X34932857Y55146609D01*
X34932857Y55146609D02*
X34932857Y55003752D01*
X34932857Y55003752D02*
X34980476Y54813276D01*
X34980476Y54813276D02*
X35028095Y54718038D01*
X35028095Y54718038D02*
X35123333Y54622800D01*
X35123333Y54622800D02*
X35266190Y54575180D01*
X35266190Y54575180D02*
X35504285Y54575180D01*
X34075714Y55241847D02*
X34075714Y54575180D01*
X34313809Y55622800D02*
X34551904Y54908514D01*
X34551904Y54908514D02*
X33932857Y54908514D01*
X33123333Y55241847D02*
X33123333Y54575180D01*
X33361428Y55622800D02*
X33599523Y54908514D01*
X33599523Y54908514D02*
X32980476Y54908514D01*
X30741904Y54895180D02*
X30741904Y55895180D01*
X30170476Y54895180D02*
X30599047Y55466609D01*
X30170476Y55895180D02*
X30741904Y55323752D01*
X30265594Y111725180D02*
X30265594Y112725180D01*
X30265594Y112725180D02*
X30027499Y112725180D01*
X30027499Y112725180D02*
X29884642Y112677561D01*
X29884642Y112677561D02*
X29789404Y112582323D01*
X29789404Y112582323D02*
X29741785Y112487085D01*
X29741785Y112487085D02*
X29694166Y112296609D01*
X29694166Y112296609D02*
X29694166Y112153752D01*
X29694166Y112153752D02*
X29741785Y111963276D01*
X29741785Y111963276D02*
X29789404Y111868038D01*
X29789404Y111868038D02*
X29884642Y111772800D01*
X29884642Y111772800D02*
X30027499Y111725180D01*
X30027499Y111725180D02*
X30265594Y111725180D01*
X28837023Y112391847D02*
X28837023Y111725180D01*
X29075118Y112772800D02*
X29313213Y112058514D01*
X29313213Y112058514D02*
X28694166Y112058514D01*
X25979404Y112045180D02*
X25979404Y113045180D01*
X25407976Y112045180D02*
X25836547Y112616609D01*
X25407976Y113045180D02*
X25979404Y112473752D01*
X92654285Y54575180D02*
X92654285Y55575180D01*
X92654285Y55575180D02*
X92416190Y55575180D01*
X92416190Y55575180D02*
X92273333Y55527561D01*
X92273333Y55527561D02*
X92178095Y55432323D01*
X92178095Y55432323D02*
X92130476Y55337085D01*
X92130476Y55337085D02*
X92082857Y55146609D01*
X92082857Y55146609D02*
X92082857Y55003752D01*
X92082857Y55003752D02*
X92130476Y54813276D01*
X92130476Y54813276D02*
X92178095Y54718038D01*
X92178095Y54718038D02*
X92273333Y54622800D01*
X92273333Y54622800D02*
X92416190Y54575180D01*
X92416190Y54575180D02*
X92654285Y54575180D01*
X91225714Y55241847D02*
X91225714Y54575180D01*
X91463809Y55622800D02*
X91701904Y54908514D01*
X91701904Y54908514D02*
X91082857Y54908514D01*
X90797142Y55575180D02*
X90130476Y55575180D01*
X90130476Y55575180D02*
X90559047Y54575180D01*
X87891904Y54895180D02*
X87891904Y55895180D01*
X87320476Y54895180D02*
X87749047Y55466609D01*
X87320476Y55895180D02*
X87891904Y55323752D01*
X97416785Y92675180D02*
X97416785Y93675180D01*
X97416785Y93675180D02*
X97178690Y93675180D01*
X97178690Y93675180D02*
X97035833Y93627561D01*
X97035833Y93627561D02*
X96940595Y93532323D01*
X96940595Y93532323D02*
X96892976Y93437085D01*
X96892976Y93437085D02*
X96845357Y93246609D01*
X96845357Y93246609D02*
X96845357Y93103752D01*
X96845357Y93103752D02*
X96892976Y92913276D01*
X96892976Y92913276D02*
X96940595Y92818038D01*
X96940595Y92818038D02*
X97035833Y92722800D01*
X97035833Y92722800D02*
X97178690Y92675180D01*
X97178690Y92675180D02*
X97416785Y92675180D01*
X96464404Y93579942D02*
X96416785Y93627561D01*
X96416785Y93627561D02*
X96321547Y93675180D01*
X96321547Y93675180D02*
X96083452Y93675180D01*
X96083452Y93675180D02*
X95988214Y93627561D01*
X95988214Y93627561D02*
X95940595Y93579942D01*
X95940595Y93579942D02*
X95892976Y93484704D01*
X95892976Y93484704D02*
X95892976Y93389466D01*
X95892976Y93389466D02*
X95940595Y93246609D01*
X95940595Y93246609D02*
X96512023Y92675180D01*
X96512023Y92675180D02*
X95892976Y92675180D01*
X94940595Y92675180D02*
X95512023Y92675180D01*
X95226309Y92675180D02*
X95226309Y93675180D01*
X95226309Y93675180D02*
X95321547Y93532323D01*
X95321547Y93532323D02*
X95416785Y93437085D01*
X95416785Y93437085D02*
X95512023Y93389466D01*
X92654404Y92995180D02*
X92654404Y93995180D01*
X92082976Y92995180D02*
X92511547Y93566609D01*
X92082976Y93995180D02*
X92654404Y93423752D01*
X187904285Y54575180D02*
X187904285Y55575180D01*
X187904285Y55575180D02*
X187666190Y55575180D01*
X187666190Y55575180D02*
X187523333Y55527561D01*
X187523333Y55527561D02*
X187428095Y55432323D01*
X187428095Y55432323D02*
X187380476Y55337085D01*
X187380476Y55337085D02*
X187332857Y55146609D01*
X187332857Y55146609D02*
X187332857Y55003752D01*
X187332857Y55003752D02*
X187380476Y54813276D01*
X187380476Y54813276D02*
X187428095Y54718038D01*
X187428095Y54718038D02*
X187523333Y54622800D01*
X187523333Y54622800D02*
X187666190Y54575180D01*
X187666190Y54575180D02*
X187904285Y54575180D01*
X186428095Y55575180D02*
X186904285Y55575180D01*
X186904285Y55575180D02*
X186951904Y55098990D01*
X186951904Y55098990D02*
X186904285Y55146609D01*
X186904285Y55146609D02*
X186809047Y55194228D01*
X186809047Y55194228D02*
X186570952Y55194228D01*
X186570952Y55194228D02*
X186475714Y55146609D01*
X186475714Y55146609D02*
X186428095Y55098990D01*
X186428095Y55098990D02*
X186380476Y55003752D01*
X186380476Y55003752D02*
X186380476Y54765657D01*
X186380476Y54765657D02*
X186428095Y54670419D01*
X186428095Y54670419D02*
X186475714Y54622800D01*
X186475714Y54622800D02*
X186570952Y54575180D01*
X186570952Y54575180D02*
X186809047Y54575180D01*
X186809047Y54575180D02*
X186904285Y54622800D01*
X186904285Y54622800D02*
X186951904Y54670419D01*
X185999523Y55479942D02*
X185951904Y55527561D01*
X185951904Y55527561D02*
X185856666Y55575180D01*
X185856666Y55575180D02*
X185618571Y55575180D01*
X185618571Y55575180D02*
X185523333Y55527561D01*
X185523333Y55527561D02*
X185475714Y55479942D01*
X185475714Y55479942D02*
X185428095Y55384704D01*
X185428095Y55384704D02*
X185428095Y55289466D01*
X185428095Y55289466D02*
X185475714Y55146609D01*
X185475714Y55146609D02*
X186047142Y54575180D01*
X186047142Y54575180D02*
X185428095Y54575180D01*
X183141904Y54895180D02*
X183141904Y55895180D01*
X182570476Y54895180D02*
X182999047Y55466609D01*
X182570476Y55895180D02*
X183141904Y55323752D01*
X12099819Y50268035D02*
X11099819Y50268035D01*
X11099819Y50268035D02*
X11099819Y50029940D01*
X11099819Y50029940D02*
X11147438Y49887083D01*
X11147438Y49887083D02*
X11242676Y49791845D01*
X11242676Y49791845D02*
X11337914Y49744226D01*
X11337914Y49744226D02*
X11528390Y49696607D01*
X11528390Y49696607D02*
X11671247Y49696607D01*
X11671247Y49696607D02*
X11861723Y49744226D01*
X11861723Y49744226D02*
X11956961Y49791845D01*
X11956961Y49791845D02*
X12052200Y49887083D01*
X12052200Y49887083D02*
X12099819Y50029940D01*
X12099819Y50029940D02*
X12099819Y50268035D01*
X11099819Y48791845D02*
X11099819Y49268035D01*
X11099819Y49268035D02*
X11576009Y49315654D01*
X11576009Y49315654D02*
X11528390Y49268035D01*
X11528390Y49268035D02*
X11480771Y49172797D01*
X11480771Y49172797D02*
X11480771Y48934702D01*
X11480771Y48934702D02*
X11528390Y48839464D01*
X11528390Y48839464D02*
X11576009Y48791845D01*
X11576009Y48791845D02*
X11671247Y48744226D01*
X11671247Y48744226D02*
X11909342Y48744226D01*
X11909342Y48744226D02*
X12004580Y48791845D01*
X12004580Y48791845D02*
X12052200Y48839464D01*
X12052200Y48839464D02*
X12099819Y48934702D01*
X12099819Y48934702D02*
X12099819Y49172797D01*
X12099819Y49172797D02*
X12052200Y49268035D01*
X12052200Y49268035D02*
X12004580Y49315654D01*
X11099819Y47839464D02*
X11099819Y48315654D01*
X11099819Y48315654D02*
X11576009Y48363273D01*
X11576009Y48363273D02*
X11528390Y48315654D01*
X11528390Y48315654D02*
X11480771Y48220416D01*
X11480771Y48220416D02*
X11480771Y47982321D01*
X11480771Y47982321D02*
X11528390Y47887083D01*
X11528390Y47887083D02*
X11576009Y47839464D01*
X11576009Y47839464D02*
X11671247Y47791845D01*
X11671247Y47791845D02*
X11909342Y47791845D01*
X11909342Y47791845D02*
X12004580Y47839464D01*
X12004580Y47839464D02*
X12052200Y47887083D01*
X12052200Y47887083D02*
X12099819Y47982321D01*
X12099819Y47982321D02*
X12099819Y48220416D01*
X12099819Y48220416D02*
X12052200Y48315654D01*
X12052200Y48315654D02*
X12004580Y48363273D01*
X11779819Y45505654D02*
X10779819Y45505654D01*
X11779819Y44934226D02*
X11208390Y45362797D01*
X10779819Y44934226D02*
X11351247Y45505654D01*
X130754285Y54575180D02*
X130754285Y55575180D01*
X130754285Y55575180D02*
X130516190Y55575180D01*
X130516190Y55575180D02*
X130373333Y55527561D01*
X130373333Y55527561D02*
X130278095Y55432323D01*
X130278095Y55432323D02*
X130230476Y55337085D01*
X130230476Y55337085D02*
X130182857Y55146609D01*
X130182857Y55146609D02*
X130182857Y55003752D01*
X130182857Y55003752D02*
X130230476Y54813276D01*
X130230476Y54813276D02*
X130278095Y54718038D01*
X130278095Y54718038D02*
X130373333Y54622800D01*
X130373333Y54622800D02*
X130516190Y54575180D01*
X130516190Y54575180D02*
X130754285Y54575180D01*
X129325714Y55241847D02*
X129325714Y54575180D01*
X129563809Y55622800D02*
X129801904Y54908514D01*
X129801904Y54908514D02*
X129182857Y54908514D01*
X128754285Y54575180D02*
X128563809Y54575180D01*
X128563809Y54575180D02*
X128468571Y54622800D01*
X128468571Y54622800D02*
X128420952Y54670419D01*
X128420952Y54670419D02*
X128325714Y54813276D01*
X128325714Y54813276D02*
X128278095Y55003752D01*
X128278095Y55003752D02*
X128278095Y55384704D01*
X128278095Y55384704D02*
X128325714Y55479942D01*
X128325714Y55479942D02*
X128373333Y55527561D01*
X128373333Y55527561D02*
X128468571Y55575180D01*
X128468571Y55575180D02*
X128659047Y55575180D01*
X128659047Y55575180D02*
X128754285Y55527561D01*
X128754285Y55527561D02*
X128801904Y55479942D01*
X128801904Y55479942D02*
X128849523Y55384704D01*
X128849523Y55384704D02*
X128849523Y55146609D01*
X128849523Y55146609D02*
X128801904Y55051371D01*
X128801904Y55051371D02*
X128754285Y55003752D01*
X128754285Y55003752D02*
X128659047Y54956133D01*
X128659047Y54956133D02*
X128468571Y54956133D01*
X128468571Y54956133D02*
X128373333Y55003752D01*
X128373333Y55003752D02*
X128325714Y55051371D01*
X128325714Y55051371D02*
X128278095Y55146609D01*
X125991904Y54895180D02*
X125991904Y55895180D01*
X125420476Y54895180D02*
X125849047Y55466609D01*
X125420476Y55895180D02*
X125991904Y55323752D01*
X59316785Y92675180D02*
X59316785Y93675180D01*
X59316785Y93675180D02*
X59078690Y93675180D01*
X59078690Y93675180D02*
X58935833Y93627561D01*
X58935833Y93627561D02*
X58840595Y93532323D01*
X58840595Y93532323D02*
X58792976Y93437085D01*
X58792976Y93437085D02*
X58745357Y93246609D01*
X58745357Y93246609D02*
X58745357Y93103752D01*
X58745357Y93103752D02*
X58792976Y92913276D01*
X58792976Y92913276D02*
X58840595Y92818038D01*
X58840595Y92818038D02*
X58935833Y92722800D01*
X58935833Y92722800D02*
X59078690Y92675180D01*
X59078690Y92675180D02*
X59316785Y92675180D01*
X57792976Y92675180D02*
X58364404Y92675180D01*
X58078690Y92675180D02*
X58078690Y93675180D01*
X58078690Y93675180D02*
X58173928Y93532323D01*
X58173928Y93532323D02*
X58269166Y93437085D01*
X58269166Y93437085D02*
X58364404Y93389466D01*
X57316785Y92675180D02*
X57126309Y92675180D01*
X57126309Y92675180D02*
X57031071Y92722800D01*
X57031071Y92722800D02*
X56983452Y92770419D01*
X56983452Y92770419D02*
X56888214Y92913276D01*
X56888214Y92913276D02*
X56840595Y93103752D01*
X56840595Y93103752D02*
X56840595Y93484704D01*
X56840595Y93484704D02*
X56888214Y93579942D01*
X56888214Y93579942D02*
X56935833Y93627561D01*
X56935833Y93627561D02*
X57031071Y93675180D01*
X57031071Y93675180D02*
X57221547Y93675180D01*
X57221547Y93675180D02*
X57316785Y93627561D01*
X57316785Y93627561D02*
X57364404Y93579942D01*
X57364404Y93579942D02*
X57412023Y93484704D01*
X57412023Y93484704D02*
X57412023Y93246609D01*
X57412023Y93246609D02*
X57364404Y93151371D01*
X57364404Y93151371D02*
X57316785Y93103752D01*
X57316785Y93103752D02*
X57221547Y93056133D01*
X57221547Y93056133D02*
X57031071Y93056133D01*
X57031071Y93056133D02*
X56935833Y93103752D01*
X56935833Y93103752D02*
X56888214Y93151371D01*
X56888214Y93151371D02*
X56840595Y93246609D01*
X54554404Y92995180D02*
X54554404Y93995180D01*
X53982976Y92995180D02*
X54411547Y93566609D01*
X53982976Y93995180D02*
X54554404Y93423752D01*
X168854285Y54575180D02*
X168854285Y55575180D01*
X168854285Y55575180D02*
X168616190Y55575180D01*
X168616190Y55575180D02*
X168473333Y55527561D01*
X168473333Y55527561D02*
X168378095Y55432323D01*
X168378095Y55432323D02*
X168330476Y55337085D01*
X168330476Y55337085D02*
X168282857Y55146609D01*
X168282857Y55146609D02*
X168282857Y55003752D01*
X168282857Y55003752D02*
X168330476Y54813276D01*
X168330476Y54813276D02*
X168378095Y54718038D01*
X168378095Y54718038D02*
X168473333Y54622800D01*
X168473333Y54622800D02*
X168616190Y54575180D01*
X168616190Y54575180D02*
X168854285Y54575180D01*
X167378095Y55575180D02*
X167854285Y55575180D01*
X167854285Y55575180D02*
X167901904Y55098990D01*
X167901904Y55098990D02*
X167854285Y55146609D01*
X167854285Y55146609D02*
X167759047Y55194228D01*
X167759047Y55194228D02*
X167520952Y55194228D01*
X167520952Y55194228D02*
X167425714Y55146609D01*
X167425714Y55146609D02*
X167378095Y55098990D01*
X167378095Y55098990D02*
X167330476Y55003752D01*
X167330476Y55003752D02*
X167330476Y54765657D01*
X167330476Y54765657D02*
X167378095Y54670419D01*
X167378095Y54670419D02*
X167425714Y54622800D01*
X167425714Y54622800D02*
X167520952Y54575180D01*
X167520952Y54575180D02*
X167759047Y54575180D01*
X167759047Y54575180D02*
X167854285Y54622800D01*
X167854285Y54622800D02*
X167901904Y54670419D01*
X166378095Y54575180D02*
X166949523Y54575180D01*
X166663809Y54575180D02*
X166663809Y55575180D01*
X166663809Y55575180D02*
X166759047Y55432323D01*
X166759047Y55432323D02*
X166854285Y55337085D01*
X166854285Y55337085D02*
X166949523Y55289466D01*
X164091904Y54895180D02*
X164091904Y55895180D01*
X163520476Y54895180D02*
X163949047Y55466609D01*
X163520476Y55895180D02*
X164091904Y55323752D01*
X145041785Y111725180D02*
X145041785Y112725180D01*
X145041785Y112725180D02*
X144803690Y112725180D01*
X144803690Y112725180D02*
X144660833Y112677561D01*
X144660833Y112677561D02*
X144565595Y112582323D01*
X144565595Y112582323D02*
X144517976Y112487085D01*
X144517976Y112487085D02*
X144470357Y112296609D01*
X144470357Y112296609D02*
X144470357Y112153752D01*
X144470357Y112153752D02*
X144517976Y111963276D01*
X144517976Y111963276D02*
X144565595Y111868038D01*
X144565595Y111868038D02*
X144660833Y111772800D01*
X144660833Y111772800D02*
X144803690Y111725180D01*
X144803690Y111725180D02*
X145041785Y111725180D01*
X143517976Y111725180D02*
X144089404Y111725180D01*
X143803690Y111725180D02*
X143803690Y112725180D01*
X143803690Y112725180D02*
X143898928Y112582323D01*
X143898928Y112582323D02*
X143994166Y112487085D01*
X143994166Y112487085D02*
X144089404Y112439466D01*
X142898928Y112725180D02*
X142803690Y112725180D01*
X142803690Y112725180D02*
X142708452Y112677561D01*
X142708452Y112677561D02*
X142660833Y112629942D01*
X142660833Y112629942D02*
X142613214Y112534704D01*
X142613214Y112534704D02*
X142565595Y112344228D01*
X142565595Y112344228D02*
X142565595Y112106133D01*
X142565595Y112106133D02*
X142613214Y111915657D01*
X142613214Y111915657D02*
X142660833Y111820419D01*
X142660833Y111820419D02*
X142708452Y111772800D01*
X142708452Y111772800D02*
X142803690Y111725180D01*
X142803690Y111725180D02*
X142898928Y111725180D01*
X142898928Y111725180D02*
X142994166Y111772800D01*
X142994166Y111772800D02*
X143041785Y111820419D01*
X143041785Y111820419D02*
X143089404Y111915657D01*
X143089404Y111915657D02*
X143137023Y112106133D01*
X143137023Y112106133D02*
X143137023Y112344228D01*
X143137023Y112344228D02*
X143089404Y112534704D01*
X143089404Y112534704D02*
X143041785Y112629942D01*
X143041785Y112629942D02*
X142994166Y112677561D01*
X142994166Y112677561D02*
X142898928Y112725180D01*
X140279404Y112045180D02*
X140279404Y113045180D01*
X139707976Y112045180D02*
X140136547Y112616609D01*
X139707976Y113045180D02*
X140279404Y112473752D01*
X178787319Y50268035D02*
X177787319Y50268035D01*
X177787319Y50268035D02*
X177787319Y50029940D01*
X177787319Y50029940D02*
X177834938Y49887083D01*
X177834938Y49887083D02*
X177930176Y49791845D01*
X177930176Y49791845D02*
X178025414Y49744226D01*
X178025414Y49744226D02*
X178215890Y49696607D01*
X178215890Y49696607D02*
X178358747Y49696607D01*
X178358747Y49696607D02*
X178549223Y49744226D01*
X178549223Y49744226D02*
X178644461Y49791845D01*
X178644461Y49791845D02*
X178739700Y49887083D01*
X178739700Y49887083D02*
X178787319Y50029940D01*
X178787319Y50029940D02*
X178787319Y50268035D01*
X177787319Y48791845D02*
X177787319Y49268035D01*
X177787319Y49268035D02*
X178263509Y49315654D01*
X178263509Y49315654D02*
X178215890Y49268035D01*
X178215890Y49268035D02*
X178168271Y49172797D01*
X178168271Y49172797D02*
X178168271Y48934702D01*
X178168271Y48934702D02*
X178215890Y48839464D01*
X178215890Y48839464D02*
X178263509Y48791845D01*
X178263509Y48791845D02*
X178358747Y48744226D01*
X178358747Y48744226D02*
X178596842Y48744226D01*
X178596842Y48744226D02*
X178692080Y48791845D01*
X178692080Y48791845D02*
X178739700Y48839464D01*
X178739700Y48839464D02*
X178787319Y48934702D01*
X178787319Y48934702D02*
X178787319Y49172797D01*
X178787319Y49172797D02*
X178739700Y49268035D01*
X178739700Y49268035D02*
X178692080Y49315654D01*
X178215890Y48172797D02*
X178168271Y48268035D01*
X178168271Y48268035D02*
X178120652Y48315654D01*
X178120652Y48315654D02*
X178025414Y48363273D01*
X178025414Y48363273D02*
X177977795Y48363273D01*
X177977795Y48363273D02*
X177882557Y48315654D01*
X177882557Y48315654D02*
X177834938Y48268035D01*
X177834938Y48268035D02*
X177787319Y48172797D01*
X177787319Y48172797D02*
X177787319Y47982321D01*
X177787319Y47982321D02*
X177834938Y47887083D01*
X177834938Y47887083D02*
X177882557Y47839464D01*
X177882557Y47839464D02*
X177977795Y47791845D01*
X177977795Y47791845D02*
X178025414Y47791845D01*
X178025414Y47791845D02*
X178120652Y47839464D01*
X178120652Y47839464D02*
X178168271Y47887083D01*
X178168271Y47887083D02*
X178215890Y47982321D01*
X178215890Y47982321D02*
X178215890Y48172797D01*
X178215890Y48172797D02*
X178263509Y48268035D01*
X178263509Y48268035D02*
X178311128Y48315654D01*
X178311128Y48315654D02*
X178406366Y48363273D01*
X178406366Y48363273D02*
X178596842Y48363273D01*
X178596842Y48363273D02*
X178692080Y48315654D01*
X178692080Y48315654D02*
X178739700Y48268035D01*
X178739700Y48268035D02*
X178787319Y48172797D01*
X178787319Y48172797D02*
X178787319Y47982321D01*
X178787319Y47982321D02*
X178739700Y47887083D01*
X178739700Y47887083D02*
X178692080Y47839464D01*
X178692080Y47839464D02*
X178596842Y47791845D01*
X178596842Y47791845D02*
X178406366Y47791845D01*
X178406366Y47791845D02*
X178311128Y47839464D01*
X178311128Y47839464D02*
X178263509Y47887083D01*
X178263509Y47887083D02*
X178215890Y47982321D01*
X178467319Y45505654D02*
X177467319Y45505654D01*
X178467319Y44934226D02*
X177895890Y45362797D01*
X177467319Y44934226D02*
X178038747Y45505654D01*
X140279285Y73625180D02*
X140279285Y74625180D01*
X140279285Y74625180D02*
X140041190Y74625180D01*
X140041190Y74625180D02*
X139898333Y74577561D01*
X139898333Y74577561D02*
X139803095Y74482323D01*
X139803095Y74482323D02*
X139755476Y74387085D01*
X139755476Y74387085D02*
X139707857Y74196609D01*
X139707857Y74196609D02*
X139707857Y74053752D01*
X139707857Y74053752D02*
X139755476Y73863276D01*
X139755476Y73863276D02*
X139803095Y73768038D01*
X139803095Y73768038D02*
X139898333Y73672800D01*
X139898333Y73672800D02*
X140041190Y73625180D01*
X140041190Y73625180D02*
X140279285Y73625180D01*
X139374523Y74625180D02*
X138755476Y74625180D01*
X138755476Y74625180D02*
X139088809Y74244228D01*
X139088809Y74244228D02*
X138945952Y74244228D01*
X138945952Y74244228D02*
X138850714Y74196609D01*
X138850714Y74196609D02*
X138803095Y74148990D01*
X138803095Y74148990D02*
X138755476Y74053752D01*
X138755476Y74053752D02*
X138755476Y73815657D01*
X138755476Y73815657D02*
X138803095Y73720419D01*
X138803095Y73720419D02*
X138850714Y73672800D01*
X138850714Y73672800D02*
X138945952Y73625180D01*
X138945952Y73625180D02*
X139231666Y73625180D01*
X139231666Y73625180D02*
X139326904Y73672800D01*
X139326904Y73672800D02*
X139374523Y73720419D01*
X138422142Y74625180D02*
X137755476Y74625180D01*
X137755476Y74625180D02*
X138184047Y73625180D01*
X135516904Y73945180D02*
X135516904Y74945180D01*
X134945476Y73945180D02*
X135374047Y74516609D01*
X134945476Y74945180D02*
X135516904Y74373752D01*
X-7834405Y111725180D02*
X-7834405Y112725180D01*
X-7834405Y112725180D02*
X-8072500Y112725180D01*
X-8072500Y112725180D02*
X-8215357Y112677561D01*
X-8215357Y112677561D02*
X-8310595Y112582323D01*
X-8310595Y112582323D02*
X-8358214Y112487085D01*
X-8358214Y112487085D02*
X-8405833Y112296609D01*
X-8405833Y112296609D02*
X-8405833Y112153752D01*
X-8405833Y112153752D02*
X-8358214Y111963276D01*
X-8358214Y111963276D02*
X-8310595Y111868038D01*
X-8310595Y111868038D02*
X-8215357Y111772800D01*
X-8215357Y111772800D02*
X-8072500Y111725180D01*
X-8072500Y111725180D02*
X-7834405Y111725180D01*
X-8786786Y112629942D02*
X-8834405Y112677561D01*
X-8834405Y112677561D02*
X-8929643Y112725180D01*
X-8929643Y112725180D02*
X-9167738Y112725180D01*
X-9167738Y112725180D02*
X-9262976Y112677561D01*
X-9262976Y112677561D02*
X-9310595Y112629942D01*
X-9310595Y112629942D02*
X-9358214Y112534704D01*
X-9358214Y112534704D02*
X-9358214Y112439466D01*
X-9358214Y112439466D02*
X-9310595Y112296609D01*
X-9310595Y112296609D02*
X-8739167Y111725180D01*
X-8739167Y111725180D02*
X-9358214Y111725180D01*
X-12120595Y112045180D02*
X-12120595Y113045180D01*
X-12692023Y112045180D02*
X-12263452Y112616609D01*
X-12692023Y113045180D02*
X-12120595Y112473752D01*
X208714285Y92675180D02*
X208714285Y93675180D01*
X208714285Y93675180D02*
X208476190Y93675180D01*
X208476190Y93675180D02*
X208333333Y93627561D01*
X208333333Y93627561D02*
X208238095Y93532323D01*
X208238095Y93532323D02*
X208190476Y93437085D01*
X208190476Y93437085D02*
X208142857Y93246609D01*
X208142857Y93246609D02*
X208142857Y93103752D01*
X208142857Y93103752D02*
X208190476Y92913276D01*
X208190476Y92913276D02*
X208238095Y92818038D01*
X208238095Y92818038D02*
X208333333Y92722800D01*
X208333333Y92722800D02*
X208476190Y92675180D01*
X208476190Y92675180D02*
X208714285Y92675180D01*
X207761904Y93579942D02*
X207714285Y93627561D01*
X207714285Y93627561D02*
X207619047Y93675180D01*
X207619047Y93675180D02*
X207380952Y93675180D01*
X207380952Y93675180D02*
X207285714Y93627561D01*
X207285714Y93627561D02*
X207238095Y93579942D01*
X207238095Y93579942D02*
X207190476Y93484704D01*
X207190476Y93484704D02*
X207190476Y93389466D01*
X207190476Y93389466D02*
X207238095Y93246609D01*
X207238095Y93246609D02*
X207809523Y92675180D01*
X207809523Y92675180D02*
X207190476Y92675180D01*
X206857142Y93675180D02*
X206190476Y93675180D01*
X206190476Y93675180D02*
X206619047Y92675180D01*
X203951904Y92995180D02*
X203951904Y93995180D01*
X203380476Y92995180D02*
X203809047Y93566609D01*
X203380476Y93995180D02*
X203951904Y93423752D01*
X54554285Y54575180D02*
X54554285Y55575180D01*
X54554285Y55575180D02*
X54316190Y55575180D01*
X54316190Y55575180D02*
X54173333Y55527561D01*
X54173333Y55527561D02*
X54078095Y55432323D01*
X54078095Y55432323D02*
X54030476Y55337085D01*
X54030476Y55337085D02*
X53982857Y55146609D01*
X53982857Y55146609D02*
X53982857Y55003752D01*
X53982857Y55003752D02*
X54030476Y54813276D01*
X54030476Y54813276D02*
X54078095Y54718038D01*
X54078095Y54718038D02*
X54173333Y54622800D01*
X54173333Y54622800D02*
X54316190Y54575180D01*
X54316190Y54575180D02*
X54554285Y54575180D01*
X53125714Y55241847D02*
X53125714Y54575180D01*
X53363809Y55622800D02*
X53601904Y54908514D01*
X53601904Y54908514D02*
X52982857Y54908514D01*
X52125714Y55575180D02*
X52601904Y55575180D01*
X52601904Y55575180D02*
X52649523Y55098990D01*
X52649523Y55098990D02*
X52601904Y55146609D01*
X52601904Y55146609D02*
X52506666Y55194228D01*
X52506666Y55194228D02*
X52268571Y55194228D01*
X52268571Y55194228D02*
X52173333Y55146609D01*
X52173333Y55146609D02*
X52125714Y55098990D01*
X52125714Y55098990D02*
X52078095Y55003752D01*
X52078095Y55003752D02*
X52078095Y54765657D01*
X52078095Y54765657D02*
X52125714Y54670419D01*
X52125714Y54670419D02*
X52173333Y54622800D01*
X52173333Y54622800D02*
X52268571Y54575180D01*
X52268571Y54575180D02*
X52506666Y54575180D01*
X52506666Y54575180D02*
X52601904Y54622800D01*
X52601904Y54622800D02*
X52649523Y54670419D01*
X49791904Y54895180D02*
X49791904Y55895180D01*
X49220476Y54895180D02*
X49649047Y55466609D01*
X49220476Y55895180D02*
X49791904Y55323752D01*
X49315594Y111725180D02*
X49315594Y112725180D01*
X49315594Y112725180D02*
X49077499Y112725180D01*
X49077499Y112725180D02*
X48934642Y112677561D01*
X48934642Y112677561D02*
X48839404Y112582323D01*
X48839404Y112582323D02*
X48791785Y112487085D01*
X48791785Y112487085D02*
X48744166Y112296609D01*
X48744166Y112296609D02*
X48744166Y112153752D01*
X48744166Y112153752D02*
X48791785Y111963276D01*
X48791785Y111963276D02*
X48839404Y111868038D01*
X48839404Y111868038D02*
X48934642Y111772800D01*
X48934642Y111772800D02*
X49077499Y111725180D01*
X49077499Y111725180D02*
X49315594Y111725180D01*
X47839404Y112725180D02*
X48315594Y112725180D01*
X48315594Y112725180D02*
X48363213Y112248990D01*
X48363213Y112248990D02*
X48315594Y112296609D01*
X48315594Y112296609D02*
X48220356Y112344228D01*
X48220356Y112344228D02*
X47982261Y112344228D01*
X47982261Y112344228D02*
X47887023Y112296609D01*
X47887023Y112296609D02*
X47839404Y112248990D01*
X47839404Y112248990D02*
X47791785Y112153752D01*
X47791785Y112153752D02*
X47791785Y111915657D01*
X47791785Y111915657D02*
X47839404Y111820419D01*
X47839404Y111820419D02*
X47887023Y111772800D01*
X47887023Y111772800D02*
X47982261Y111725180D01*
X47982261Y111725180D02*
X48220356Y111725180D01*
X48220356Y111725180D02*
X48315594Y111772800D01*
X48315594Y111772800D02*
X48363213Y111820419D01*
X45029404Y112045180D02*
X45029404Y113045180D01*
X44457976Y112045180D02*
X44886547Y112616609D01*
X44457976Y113045180D02*
X45029404Y112473752D01*
X102179285Y73625180D02*
X102179285Y74625180D01*
X102179285Y74625180D02*
X101941190Y74625180D01*
X101941190Y74625180D02*
X101798333Y74577561D01*
X101798333Y74577561D02*
X101703095Y74482323D01*
X101703095Y74482323D02*
X101655476Y74387085D01*
X101655476Y74387085D02*
X101607857Y74196609D01*
X101607857Y74196609D02*
X101607857Y74053752D01*
X101607857Y74053752D02*
X101655476Y73863276D01*
X101655476Y73863276D02*
X101703095Y73768038D01*
X101703095Y73768038D02*
X101798333Y73672800D01*
X101798333Y73672800D02*
X101941190Y73625180D01*
X101941190Y73625180D02*
X102179285Y73625180D01*
X101274523Y74625180D02*
X100655476Y74625180D01*
X100655476Y74625180D02*
X100988809Y74244228D01*
X100988809Y74244228D02*
X100845952Y74244228D01*
X100845952Y74244228D02*
X100750714Y74196609D01*
X100750714Y74196609D02*
X100703095Y74148990D01*
X100703095Y74148990D02*
X100655476Y74053752D01*
X100655476Y74053752D02*
X100655476Y73815657D01*
X100655476Y73815657D02*
X100703095Y73720419D01*
X100703095Y73720419D02*
X100750714Y73672800D01*
X100750714Y73672800D02*
X100845952Y73625180D01*
X100845952Y73625180D02*
X101131666Y73625180D01*
X101131666Y73625180D02*
X101226904Y73672800D01*
X101226904Y73672800D02*
X101274523Y73720419D01*
X99750714Y74625180D02*
X100226904Y74625180D01*
X100226904Y74625180D02*
X100274523Y74148990D01*
X100274523Y74148990D02*
X100226904Y74196609D01*
X100226904Y74196609D02*
X100131666Y74244228D01*
X100131666Y74244228D02*
X99893571Y74244228D01*
X99893571Y74244228D02*
X99798333Y74196609D01*
X99798333Y74196609D02*
X99750714Y74148990D01*
X99750714Y74148990D02*
X99703095Y74053752D01*
X99703095Y74053752D02*
X99703095Y73815657D01*
X99703095Y73815657D02*
X99750714Y73720419D01*
X99750714Y73720419D02*
X99798333Y73672800D01*
X99798333Y73672800D02*
X99893571Y73625180D01*
X99893571Y73625180D02*
X100131666Y73625180D01*
X100131666Y73625180D02*
X100226904Y73672800D01*
X100226904Y73672800D02*
X100274523Y73720419D01*
X97416904Y73945180D02*
X97416904Y74945180D01*
X96845476Y73945180D02*
X97274047Y74516609D01*
X96845476Y74945180D02*
X97416904Y74373752D01*
X40266785Y92675180D02*
X40266785Y93675180D01*
X40266785Y93675180D02*
X40028690Y93675180D01*
X40028690Y93675180D02*
X39885833Y93627561D01*
X39885833Y93627561D02*
X39790595Y93532323D01*
X39790595Y93532323D02*
X39742976Y93437085D01*
X39742976Y93437085D02*
X39695357Y93246609D01*
X39695357Y93246609D02*
X39695357Y93103752D01*
X39695357Y93103752D02*
X39742976Y92913276D01*
X39742976Y92913276D02*
X39790595Y92818038D01*
X39790595Y92818038D02*
X39885833Y92722800D01*
X39885833Y92722800D02*
X40028690Y92675180D01*
X40028690Y92675180D02*
X40266785Y92675180D01*
X38742976Y92675180D02*
X39314404Y92675180D01*
X39028690Y92675180D02*
X39028690Y93675180D01*
X39028690Y93675180D02*
X39123928Y93532323D01*
X39123928Y93532323D02*
X39219166Y93437085D01*
X39219166Y93437085D02*
X39314404Y93389466D01*
X38171547Y93246609D02*
X38266785Y93294228D01*
X38266785Y93294228D02*
X38314404Y93341847D01*
X38314404Y93341847D02*
X38362023Y93437085D01*
X38362023Y93437085D02*
X38362023Y93484704D01*
X38362023Y93484704D02*
X38314404Y93579942D01*
X38314404Y93579942D02*
X38266785Y93627561D01*
X38266785Y93627561D02*
X38171547Y93675180D01*
X38171547Y93675180D02*
X37981071Y93675180D01*
X37981071Y93675180D02*
X37885833Y93627561D01*
X37885833Y93627561D02*
X37838214Y93579942D01*
X37838214Y93579942D02*
X37790595Y93484704D01*
X37790595Y93484704D02*
X37790595Y93437085D01*
X37790595Y93437085D02*
X37838214Y93341847D01*
X37838214Y93341847D02*
X37885833Y93294228D01*
X37885833Y93294228D02*
X37981071Y93246609D01*
X37981071Y93246609D02*
X38171547Y93246609D01*
X38171547Y93246609D02*
X38266785Y93198990D01*
X38266785Y93198990D02*
X38314404Y93151371D01*
X38314404Y93151371D02*
X38362023Y93056133D01*
X38362023Y93056133D02*
X38362023Y92865657D01*
X38362023Y92865657D02*
X38314404Y92770419D01*
X38314404Y92770419D02*
X38266785Y92722800D01*
X38266785Y92722800D02*
X38171547Y92675180D01*
X38171547Y92675180D02*
X37981071Y92675180D01*
X37981071Y92675180D02*
X37885833Y92722800D01*
X37885833Y92722800D02*
X37838214Y92770419D01*
X37838214Y92770419D02*
X37790595Y92865657D01*
X37790595Y92865657D02*
X37790595Y93056133D01*
X37790595Y93056133D02*
X37838214Y93151371D01*
X37838214Y93151371D02*
X37885833Y93198990D01*
X37885833Y93198990D02*
X37981071Y93246609D01*
X35504404Y92995180D02*
X35504404Y93995180D01*
X34932976Y92995180D02*
X35361547Y93566609D01*
X34932976Y93995180D02*
X35504404Y93423752D01*
X192666785Y92675180D02*
X192666785Y93675180D01*
X192666785Y93675180D02*
X192428690Y93675180D01*
X192428690Y93675180D02*
X192285833Y93627561D01*
X192285833Y93627561D02*
X192190595Y93532323D01*
X192190595Y93532323D02*
X192142976Y93437085D01*
X192142976Y93437085D02*
X192095357Y93246609D01*
X192095357Y93246609D02*
X192095357Y93103752D01*
X192095357Y93103752D02*
X192142976Y92913276D01*
X192142976Y92913276D02*
X192190595Y92818038D01*
X192190595Y92818038D02*
X192285833Y92722800D01*
X192285833Y92722800D02*
X192428690Y92675180D01*
X192428690Y92675180D02*
X192666785Y92675180D01*
X191714404Y93579942D02*
X191666785Y93627561D01*
X191666785Y93627561D02*
X191571547Y93675180D01*
X191571547Y93675180D02*
X191333452Y93675180D01*
X191333452Y93675180D02*
X191238214Y93627561D01*
X191238214Y93627561D02*
X191190595Y93579942D01*
X191190595Y93579942D02*
X191142976Y93484704D01*
X191142976Y93484704D02*
X191142976Y93389466D01*
X191142976Y93389466D02*
X191190595Y93246609D01*
X191190595Y93246609D02*
X191762023Y92675180D01*
X191762023Y92675180D02*
X191142976Y92675180D01*
X190285833Y93675180D02*
X190476309Y93675180D01*
X190476309Y93675180D02*
X190571547Y93627561D01*
X190571547Y93627561D02*
X190619166Y93579942D01*
X190619166Y93579942D02*
X190714404Y93437085D01*
X190714404Y93437085D02*
X190762023Y93246609D01*
X190762023Y93246609D02*
X190762023Y92865657D01*
X190762023Y92865657D02*
X190714404Y92770419D01*
X190714404Y92770419D02*
X190666785Y92722800D01*
X190666785Y92722800D02*
X190571547Y92675180D01*
X190571547Y92675180D02*
X190381071Y92675180D01*
X190381071Y92675180D02*
X190285833Y92722800D01*
X190285833Y92722800D02*
X190238214Y92770419D01*
X190238214Y92770419D02*
X190190595Y92865657D01*
X190190595Y92865657D02*
X190190595Y93103752D01*
X190190595Y93103752D02*
X190238214Y93198990D01*
X190238214Y93198990D02*
X190285833Y93246609D01*
X190285833Y93246609D02*
X190381071Y93294228D01*
X190381071Y93294228D02*
X190571547Y93294228D01*
X190571547Y93294228D02*
X190666785Y93246609D01*
X190666785Y93246609D02*
X190714404Y93198990D01*
X190714404Y93198990D02*
X190762023Y93103752D01*
X187904404Y92995180D02*
X187904404Y93995180D01*
X187332976Y92995180D02*
X187761547Y93566609D01*
X187332976Y93995180D02*
X187904404Y93423752D01*
X197429285Y73625180D02*
X197429285Y74625180D01*
X197429285Y74625180D02*
X197191190Y74625180D01*
X197191190Y74625180D02*
X197048333Y74577561D01*
X197048333Y74577561D02*
X196953095Y74482323D01*
X196953095Y74482323D02*
X196905476Y74387085D01*
X196905476Y74387085D02*
X196857857Y74196609D01*
X196857857Y74196609D02*
X196857857Y74053752D01*
X196857857Y74053752D02*
X196905476Y73863276D01*
X196905476Y73863276D02*
X196953095Y73768038D01*
X196953095Y73768038D02*
X197048333Y73672800D01*
X197048333Y73672800D02*
X197191190Y73625180D01*
X197191190Y73625180D02*
X197429285Y73625180D01*
X196000714Y74291847D02*
X196000714Y73625180D01*
X196238809Y74672800D02*
X196476904Y73958514D01*
X196476904Y73958514D02*
X195857857Y73958514D01*
X195286428Y74625180D02*
X195191190Y74625180D01*
X195191190Y74625180D02*
X195095952Y74577561D01*
X195095952Y74577561D02*
X195048333Y74529942D01*
X195048333Y74529942D02*
X195000714Y74434704D01*
X195000714Y74434704D02*
X194953095Y74244228D01*
X194953095Y74244228D02*
X194953095Y74006133D01*
X194953095Y74006133D02*
X195000714Y73815657D01*
X195000714Y73815657D02*
X195048333Y73720419D01*
X195048333Y73720419D02*
X195095952Y73672800D01*
X195095952Y73672800D02*
X195191190Y73625180D01*
X195191190Y73625180D02*
X195286428Y73625180D01*
X195286428Y73625180D02*
X195381666Y73672800D01*
X195381666Y73672800D02*
X195429285Y73720419D01*
X195429285Y73720419D02*
X195476904Y73815657D01*
X195476904Y73815657D02*
X195524523Y74006133D01*
X195524523Y74006133D02*
X195524523Y74244228D01*
X195524523Y74244228D02*
X195476904Y74434704D01*
X195476904Y74434704D02*
X195429285Y74529942D01*
X195429285Y74529942D02*
X195381666Y74577561D01*
X195381666Y74577561D02*
X195286428Y74625180D01*
X192666904Y73945180D02*
X192666904Y74945180D01*
X192095476Y73945180D02*
X192524047Y74516609D01*
X192095476Y74945180D02*
X192666904Y74373752D01*
X-21645714Y92675180D02*
X-21645714Y93675180D01*
X-21645714Y93675180D02*
X-21883809Y93675180D01*
X-21883809Y93675180D02*
X-22026666Y93627561D01*
X-22026666Y93627561D02*
X-22121904Y93532323D01*
X-22121904Y93532323D02*
X-22169523Y93437085D01*
X-22169523Y93437085D02*
X-22217142Y93246609D01*
X-22217142Y93246609D02*
X-22217142Y93103752D01*
X-22217142Y93103752D02*
X-22169523Y92913276D01*
X-22169523Y92913276D02*
X-22121904Y92818038D01*
X-22121904Y92818038D02*
X-22026666Y92722800D01*
X-22026666Y92722800D02*
X-21883809Y92675180D01*
X-21883809Y92675180D02*
X-21645714Y92675180D01*
X-23169523Y92675180D02*
X-22598095Y92675180D01*
X-22883809Y92675180D02*
X-22883809Y93675180D01*
X-22883809Y93675180D02*
X-22788571Y93532323D01*
X-22788571Y93532323D02*
X-22693333Y93437085D01*
X-22693333Y93437085D02*
X-22598095Y93389466D01*
X-24074285Y93675180D02*
X-23598095Y93675180D01*
X-23598095Y93675180D02*
X-23550476Y93198990D01*
X-23550476Y93198990D02*
X-23598095Y93246609D01*
X-23598095Y93246609D02*
X-23693333Y93294228D01*
X-23693333Y93294228D02*
X-23931428Y93294228D01*
X-23931428Y93294228D02*
X-24026666Y93246609D01*
X-24026666Y93246609D02*
X-24074285Y93198990D01*
X-24074285Y93198990D02*
X-24121904Y93103752D01*
X-24121904Y93103752D02*
X-24121904Y92865657D01*
X-24121904Y92865657D02*
X-24074285Y92770419D01*
X-24074285Y92770419D02*
X-24026666Y92722800D01*
X-24026666Y92722800D02*
X-23931428Y92675180D01*
X-23931428Y92675180D02*
X-23693333Y92675180D01*
X-23693333Y92675180D02*
X-23598095Y92722800D01*
X-23598095Y92722800D02*
X-23550476Y92770419D01*
X-26408095Y92995180D02*
X-26408095Y93995180D01*
X-26979523Y92995180D02*
X-26550952Y93566609D01*
X-26979523Y93995180D02*
X-26408095Y93423752D01*
X135516785Y92675180D02*
X135516785Y93675180D01*
X135516785Y93675180D02*
X135278690Y93675180D01*
X135278690Y93675180D02*
X135135833Y93627561D01*
X135135833Y93627561D02*
X135040595Y93532323D01*
X135040595Y93532323D02*
X134992976Y93437085D01*
X134992976Y93437085D02*
X134945357Y93246609D01*
X134945357Y93246609D02*
X134945357Y93103752D01*
X134945357Y93103752D02*
X134992976Y92913276D01*
X134992976Y92913276D02*
X135040595Y92818038D01*
X135040595Y92818038D02*
X135135833Y92722800D01*
X135135833Y92722800D02*
X135278690Y92675180D01*
X135278690Y92675180D02*
X135516785Y92675180D01*
X134564404Y93579942D02*
X134516785Y93627561D01*
X134516785Y93627561D02*
X134421547Y93675180D01*
X134421547Y93675180D02*
X134183452Y93675180D01*
X134183452Y93675180D02*
X134088214Y93627561D01*
X134088214Y93627561D02*
X134040595Y93579942D01*
X134040595Y93579942D02*
X133992976Y93484704D01*
X133992976Y93484704D02*
X133992976Y93389466D01*
X133992976Y93389466D02*
X134040595Y93246609D01*
X134040595Y93246609D02*
X134612023Y92675180D01*
X134612023Y92675180D02*
X133992976Y92675180D01*
X133659642Y93675180D02*
X133040595Y93675180D01*
X133040595Y93675180D02*
X133373928Y93294228D01*
X133373928Y93294228D02*
X133231071Y93294228D01*
X133231071Y93294228D02*
X133135833Y93246609D01*
X133135833Y93246609D02*
X133088214Y93198990D01*
X133088214Y93198990D02*
X133040595Y93103752D01*
X133040595Y93103752D02*
X133040595Y92865657D01*
X133040595Y92865657D02*
X133088214Y92770419D01*
X133088214Y92770419D02*
X133135833Y92722800D01*
X133135833Y92722800D02*
X133231071Y92675180D01*
X133231071Y92675180D02*
X133516785Y92675180D01*
X133516785Y92675180D02*
X133612023Y92722800D01*
X133612023Y92722800D02*
X133659642Y92770419D01*
X130754404Y92995180D02*
X130754404Y93995180D01*
X130182976Y92995180D02*
X130611547Y93566609D01*
X130182976Y93995180D02*
X130754404Y93423752D01*
X21216785Y92675180D02*
X21216785Y93675180D01*
X21216785Y93675180D02*
X20978690Y93675180D01*
X20978690Y93675180D02*
X20835833Y93627561D01*
X20835833Y93627561D02*
X20740595Y93532323D01*
X20740595Y93532323D02*
X20692976Y93437085D01*
X20692976Y93437085D02*
X20645357Y93246609D01*
X20645357Y93246609D02*
X20645357Y93103752D01*
X20645357Y93103752D02*
X20692976Y92913276D01*
X20692976Y92913276D02*
X20740595Y92818038D01*
X20740595Y92818038D02*
X20835833Y92722800D01*
X20835833Y92722800D02*
X20978690Y92675180D01*
X20978690Y92675180D02*
X21216785Y92675180D01*
X19692976Y92675180D02*
X20264404Y92675180D01*
X19978690Y92675180D02*
X19978690Y93675180D01*
X19978690Y93675180D02*
X20073928Y93532323D01*
X20073928Y93532323D02*
X20169166Y93437085D01*
X20169166Y93437085D02*
X20264404Y93389466D01*
X19359642Y93675180D02*
X18692976Y93675180D01*
X18692976Y93675180D02*
X19121547Y92675180D01*
X16454404Y92995180D02*
X16454404Y93995180D01*
X15882976Y92995180D02*
X16311547Y93566609D01*
X15882976Y93995180D02*
X16454404Y93423752D01*
X2166785Y92675180D02*
X2166785Y93675180D01*
X2166785Y93675180D02*
X1928690Y93675180D01*
X1928690Y93675180D02*
X1785833Y93627561D01*
X1785833Y93627561D02*
X1690595Y93532323D01*
X1690595Y93532323D02*
X1642976Y93437085D01*
X1642976Y93437085D02*
X1595357Y93246609D01*
X1595357Y93246609D02*
X1595357Y93103752D01*
X1595357Y93103752D02*
X1642976Y92913276D01*
X1642976Y92913276D02*
X1690595Y92818038D01*
X1690595Y92818038D02*
X1785833Y92722800D01*
X1785833Y92722800D02*
X1928690Y92675180D01*
X1928690Y92675180D02*
X2166785Y92675180D01*
X642976Y92675180D02*
X1214404Y92675180D01*
X928690Y92675180D02*
X928690Y93675180D01*
X928690Y93675180D02*
X1023928Y93532323D01*
X1023928Y93532323D02*
X1119166Y93437085D01*
X1119166Y93437085D02*
X1214404Y93389466D01*
X-214166Y93675180D02*
X-23690Y93675180D01*
X-23690Y93675180D02*
X71547Y93627561D01*
X71547Y93627561D02*
X119166Y93579942D01*
X119166Y93579942D02*
X214404Y93437085D01*
X214404Y93437085D02*
X262023Y93246609D01*
X262023Y93246609D02*
X262023Y92865657D01*
X262023Y92865657D02*
X214404Y92770419D01*
X214404Y92770419D02*
X166785Y92722800D01*
X166785Y92722800D02*
X71547Y92675180D01*
X71547Y92675180D02*
X-118928Y92675180D01*
X-118928Y92675180D02*
X-214166Y92722800D01*
X-214166Y92722800D02*
X-261785Y92770419D01*
X-261785Y92770419D02*
X-309404Y92865657D01*
X-309404Y92865657D02*
X-309404Y93103752D01*
X-309404Y93103752D02*
X-261785Y93198990D01*
X-261785Y93198990D02*
X-214166Y93246609D01*
X-214166Y93246609D02*
X-118928Y93294228D01*
X-118928Y93294228D02*
X71547Y93294228D01*
X71547Y93294228D02*
X166785Y93246609D01*
X166785Y93246609D02*
X214404Y93198990D01*
X214404Y93198990D02*
X262023Y93103752D01*
X-2595595Y92995180D02*
X-2595595Y93995180D01*
X-3167023Y92995180D02*
X-2738452Y93566609D01*
X-3167023Y93995180D02*
X-2595595Y93423752D01*
X6929285Y73625180D02*
X6929285Y74625180D01*
X6929285Y74625180D02*
X6691190Y74625180D01*
X6691190Y74625180D02*
X6548333Y74577561D01*
X6548333Y74577561D02*
X6453095Y74482323D01*
X6453095Y74482323D02*
X6405476Y74387085D01*
X6405476Y74387085D02*
X6357857Y74196609D01*
X6357857Y74196609D02*
X6357857Y74053752D01*
X6357857Y74053752D02*
X6405476Y73863276D01*
X6405476Y73863276D02*
X6453095Y73768038D01*
X6453095Y73768038D02*
X6548333Y73672800D01*
X6548333Y73672800D02*
X6691190Y73625180D01*
X6691190Y73625180D02*
X6929285Y73625180D01*
X6024523Y74625180D02*
X5405476Y74625180D01*
X5405476Y74625180D02*
X5738809Y74244228D01*
X5738809Y74244228D02*
X5595952Y74244228D01*
X5595952Y74244228D02*
X5500714Y74196609D01*
X5500714Y74196609D02*
X5453095Y74148990D01*
X5453095Y74148990D02*
X5405476Y74053752D01*
X5405476Y74053752D02*
X5405476Y73815657D01*
X5405476Y73815657D02*
X5453095Y73720419D01*
X5453095Y73720419D02*
X5500714Y73672800D01*
X5500714Y73672800D02*
X5595952Y73625180D01*
X5595952Y73625180D02*
X5881666Y73625180D01*
X5881666Y73625180D02*
X5976904Y73672800D01*
X5976904Y73672800D02*
X6024523Y73720419D01*
X4786428Y74625180D02*
X4691190Y74625180D01*
X4691190Y74625180D02*
X4595952Y74577561D01*
X4595952Y74577561D02*
X4548333Y74529942D01*
X4548333Y74529942D02*
X4500714Y74434704D01*
X4500714Y74434704D02*
X4453095Y74244228D01*
X4453095Y74244228D02*
X4453095Y74006133D01*
X4453095Y74006133D02*
X4500714Y73815657D01*
X4500714Y73815657D02*
X4548333Y73720419D01*
X4548333Y73720419D02*
X4595952Y73672800D01*
X4595952Y73672800D02*
X4691190Y73625180D01*
X4691190Y73625180D02*
X4786428Y73625180D01*
X4786428Y73625180D02*
X4881666Y73672800D01*
X4881666Y73672800D02*
X4929285Y73720419D01*
X4929285Y73720419D02*
X4976904Y73815657D01*
X4976904Y73815657D02*
X5024523Y74006133D01*
X5024523Y74006133D02*
X5024523Y74244228D01*
X5024523Y74244228D02*
X4976904Y74434704D01*
X4976904Y74434704D02*
X4929285Y74529942D01*
X4929285Y74529942D02*
X4881666Y74577561D01*
X4881666Y74577561D02*
X4786428Y74625180D01*
X2166904Y73945180D02*
X2166904Y74945180D01*
X1595476Y73945180D02*
X2024047Y74516609D01*
X1595476Y74945180D02*
X2166904Y74373752D01*
X230766785Y111725180D02*
X230766785Y112725180D01*
X230766785Y112725180D02*
X230528690Y112725180D01*
X230528690Y112725180D02*
X230385833Y112677561D01*
X230385833Y112677561D02*
X230290595Y112582323D01*
X230290595Y112582323D02*
X230242976Y112487085D01*
X230242976Y112487085D02*
X230195357Y112296609D01*
X230195357Y112296609D02*
X230195357Y112153752D01*
X230195357Y112153752D02*
X230242976Y111963276D01*
X230242976Y111963276D02*
X230290595Y111868038D01*
X230290595Y111868038D02*
X230385833Y111772800D01*
X230385833Y111772800D02*
X230528690Y111725180D01*
X230528690Y111725180D02*
X230766785Y111725180D01*
X229242976Y111725180D02*
X229814404Y111725180D01*
X229528690Y111725180D02*
X229528690Y112725180D01*
X229528690Y112725180D02*
X229623928Y112582323D01*
X229623928Y112582323D02*
X229719166Y112487085D01*
X229719166Y112487085D02*
X229814404Y112439466D01*
X228385833Y112391847D02*
X228385833Y111725180D01*
X228623928Y112772800D02*
X228862023Y112058514D01*
X228862023Y112058514D02*
X228242976Y112058514D01*
X226004404Y112045180D02*
X226004404Y113045180D01*
X225432976Y112045180D02*
X225861547Y112616609D01*
X225432976Y113045180D02*
X226004404Y112473752D01*
X78366785Y92675180D02*
X78366785Y93675180D01*
X78366785Y93675180D02*
X78128690Y93675180D01*
X78128690Y93675180D02*
X77985833Y93627561D01*
X77985833Y93627561D02*
X77890595Y93532323D01*
X77890595Y93532323D02*
X77842976Y93437085D01*
X77842976Y93437085D02*
X77795357Y93246609D01*
X77795357Y93246609D02*
X77795357Y93103752D01*
X77795357Y93103752D02*
X77842976Y92913276D01*
X77842976Y92913276D02*
X77890595Y92818038D01*
X77890595Y92818038D02*
X77985833Y92722800D01*
X77985833Y92722800D02*
X78128690Y92675180D01*
X78128690Y92675180D02*
X78366785Y92675180D01*
X77414404Y93579942D02*
X77366785Y93627561D01*
X77366785Y93627561D02*
X77271547Y93675180D01*
X77271547Y93675180D02*
X77033452Y93675180D01*
X77033452Y93675180D02*
X76938214Y93627561D01*
X76938214Y93627561D02*
X76890595Y93579942D01*
X76890595Y93579942D02*
X76842976Y93484704D01*
X76842976Y93484704D02*
X76842976Y93389466D01*
X76842976Y93389466D02*
X76890595Y93246609D01*
X76890595Y93246609D02*
X77462023Y92675180D01*
X77462023Y92675180D02*
X76842976Y92675180D01*
X76223928Y93675180D02*
X76128690Y93675180D01*
X76128690Y93675180D02*
X76033452Y93627561D01*
X76033452Y93627561D02*
X75985833Y93579942D01*
X75985833Y93579942D02*
X75938214Y93484704D01*
X75938214Y93484704D02*
X75890595Y93294228D01*
X75890595Y93294228D02*
X75890595Y93056133D01*
X75890595Y93056133D02*
X75938214Y92865657D01*
X75938214Y92865657D02*
X75985833Y92770419D01*
X75985833Y92770419D02*
X76033452Y92722800D01*
X76033452Y92722800D02*
X76128690Y92675180D01*
X76128690Y92675180D02*
X76223928Y92675180D01*
X76223928Y92675180D02*
X76319166Y92722800D01*
X76319166Y92722800D02*
X76366785Y92770419D01*
X76366785Y92770419D02*
X76414404Y92865657D01*
X76414404Y92865657D02*
X76462023Y93056133D01*
X76462023Y93056133D02*
X76462023Y93294228D01*
X76462023Y93294228D02*
X76414404Y93484704D01*
X76414404Y93484704D02*
X76366785Y93579942D01*
X76366785Y93579942D02*
X76319166Y93627561D01*
X76319166Y93627561D02*
X76223928Y93675180D01*
X73604404Y92995180D02*
X73604404Y93995180D01*
X73032976Y92995180D02*
X73461547Y93566609D01*
X73032976Y93995180D02*
X73604404Y93423752D01*
X202191785Y111725180D02*
X202191785Y112725180D01*
X202191785Y112725180D02*
X201953690Y112725180D01*
X201953690Y112725180D02*
X201810833Y112677561D01*
X201810833Y112677561D02*
X201715595Y112582323D01*
X201715595Y112582323D02*
X201667976Y112487085D01*
X201667976Y112487085D02*
X201620357Y112296609D01*
X201620357Y112296609D02*
X201620357Y112153752D01*
X201620357Y112153752D02*
X201667976Y111963276D01*
X201667976Y111963276D02*
X201715595Y111868038D01*
X201715595Y111868038D02*
X201810833Y111772800D01*
X201810833Y111772800D02*
X201953690Y111725180D01*
X201953690Y111725180D02*
X202191785Y111725180D01*
X200667976Y111725180D02*
X201239404Y111725180D01*
X200953690Y111725180D02*
X200953690Y112725180D01*
X200953690Y112725180D02*
X201048928Y112582323D01*
X201048928Y112582323D02*
X201144166Y112487085D01*
X201144166Y112487085D02*
X201239404Y112439466D01*
X200334642Y112725180D02*
X199715595Y112725180D01*
X199715595Y112725180D02*
X200048928Y112344228D01*
X200048928Y112344228D02*
X199906071Y112344228D01*
X199906071Y112344228D02*
X199810833Y112296609D01*
X199810833Y112296609D02*
X199763214Y112248990D01*
X199763214Y112248990D02*
X199715595Y112153752D01*
X199715595Y112153752D02*
X199715595Y111915657D01*
X199715595Y111915657D02*
X199763214Y111820419D01*
X199763214Y111820419D02*
X199810833Y111772800D01*
X199810833Y111772800D02*
X199906071Y111725180D01*
X199906071Y111725180D02*
X200191785Y111725180D01*
X200191785Y111725180D02*
X200287023Y111772800D01*
X200287023Y111772800D02*
X200334642Y111820419D01*
X197429404Y112045180D02*
X197429404Y113045180D01*
X196857976Y112045180D02*
X197286547Y112616609D01*
X196857976Y113045180D02*
X197429404Y112473752D01*
X-11712680Y48839285D02*
X-12712680Y48839285D01*
X-12712680Y48839285D02*
X-12712680Y48601190D01*
X-12712680Y48601190D02*
X-12665061Y48458333D01*
X-12665061Y48458333D02*
X-12569823Y48363095D01*
X-12569823Y48363095D02*
X-12474585Y48315476D01*
X-12474585Y48315476D02*
X-12284109Y48267857D01*
X-12284109Y48267857D02*
X-12141252Y48267857D01*
X-12141252Y48267857D02*
X-11950776Y48315476D01*
X-11950776Y48315476D02*
X-11855538Y48363095D01*
X-11855538Y48363095D02*
X-11760300Y48458333D01*
X-11760300Y48458333D02*
X-11712680Y48601190D01*
X-11712680Y48601190D02*
X-11712680Y48839285D01*
X-12712680Y47363095D02*
X-12712680Y47839285D01*
X-12712680Y47839285D02*
X-12236490Y47886904D01*
X-12236490Y47886904D02*
X-12284109Y47839285D01*
X-12284109Y47839285D02*
X-12331728Y47744047D01*
X-12331728Y47744047D02*
X-12331728Y47505952D01*
X-12331728Y47505952D02*
X-12284109Y47410714D01*
X-12284109Y47410714D02*
X-12236490Y47363095D01*
X-12236490Y47363095D02*
X-12141252Y47315476D01*
X-12141252Y47315476D02*
X-11903157Y47315476D01*
X-11903157Y47315476D02*
X-11807919Y47363095D01*
X-11807919Y47363095D02*
X-11760300Y47410714D01*
X-11760300Y47410714D02*
X-11712680Y47505952D01*
X-11712680Y47505952D02*
X-11712680Y47744047D01*
X-11712680Y47744047D02*
X-11760300Y47839285D01*
X-11760300Y47839285D02*
X-11807919Y47886904D01*
X-12379347Y46458333D02*
X-11712680Y46458333D01*
X-12760300Y46696428D02*
X-12046014Y46934523D01*
X-12046014Y46934523D02*
X-12046014Y46315476D01*
X-12032680Y44076904D02*
X-13032680Y44076904D01*
X-12032680Y43505476D02*
X-12604109Y43934047D01*
X-13032680Y43505476D02*
X-12461252Y44076904D01*
X106465594Y111725180D02*
X106465594Y112725180D01*
X106465594Y112725180D02*
X106227499Y112725180D01*
X106227499Y112725180D02*
X106084642Y112677561D01*
X106084642Y112677561D02*
X105989404Y112582323D01*
X105989404Y112582323D02*
X105941785Y112487085D01*
X105941785Y112487085D02*
X105894166Y112296609D01*
X105894166Y112296609D02*
X105894166Y112153752D01*
X105894166Y112153752D02*
X105941785Y111963276D01*
X105941785Y111963276D02*
X105989404Y111868038D01*
X105989404Y111868038D02*
X106084642Y111772800D01*
X106084642Y111772800D02*
X106227499Y111725180D01*
X106227499Y111725180D02*
X106465594Y111725180D01*
X105322737Y112296609D02*
X105417975Y112344228D01*
X105417975Y112344228D02*
X105465594Y112391847D01*
X105465594Y112391847D02*
X105513213Y112487085D01*
X105513213Y112487085D02*
X105513213Y112534704D01*
X105513213Y112534704D02*
X105465594Y112629942D01*
X105465594Y112629942D02*
X105417975Y112677561D01*
X105417975Y112677561D02*
X105322737Y112725180D01*
X105322737Y112725180D02*
X105132261Y112725180D01*
X105132261Y112725180D02*
X105037023Y112677561D01*
X105037023Y112677561D02*
X104989404Y112629942D01*
X104989404Y112629942D02*
X104941785Y112534704D01*
X104941785Y112534704D02*
X104941785Y112487085D01*
X104941785Y112487085D02*
X104989404Y112391847D01*
X104989404Y112391847D02*
X105037023Y112344228D01*
X105037023Y112344228D02*
X105132261Y112296609D01*
X105132261Y112296609D02*
X105322737Y112296609D01*
X105322737Y112296609D02*
X105417975Y112248990D01*
X105417975Y112248990D02*
X105465594Y112201371D01*
X105465594Y112201371D02*
X105513213Y112106133D01*
X105513213Y112106133D02*
X105513213Y111915657D01*
X105513213Y111915657D02*
X105465594Y111820419D01*
X105465594Y111820419D02*
X105417975Y111772800D01*
X105417975Y111772800D02*
X105322737Y111725180D01*
X105322737Y111725180D02*
X105132261Y111725180D01*
X105132261Y111725180D02*
X105037023Y111772800D01*
X105037023Y111772800D02*
X104989404Y111820419D01*
X104989404Y111820419D02*
X104941785Y111915657D01*
X104941785Y111915657D02*
X104941785Y112106133D01*
X104941785Y112106133D02*
X104989404Y112201371D01*
X104989404Y112201371D02*
X105037023Y112248990D01*
X105037023Y112248990D02*
X105132261Y112296609D01*
X102179404Y112045180D02*
X102179404Y113045180D01*
X101607976Y112045180D02*
X102036547Y112616609D01*
X101607976Y113045180D02*
X102179404Y112473752D01*
X68365594Y111725180D02*
X68365594Y112725180D01*
X68365594Y112725180D02*
X68127499Y112725180D01*
X68127499Y112725180D02*
X67984642Y112677561D01*
X67984642Y112677561D02*
X67889404Y112582323D01*
X67889404Y112582323D02*
X67841785Y112487085D01*
X67841785Y112487085D02*
X67794166Y112296609D01*
X67794166Y112296609D02*
X67794166Y112153752D01*
X67794166Y112153752D02*
X67841785Y111963276D01*
X67841785Y111963276D02*
X67889404Y111868038D01*
X67889404Y111868038D02*
X67984642Y111772800D01*
X67984642Y111772800D02*
X68127499Y111725180D01*
X68127499Y111725180D02*
X68365594Y111725180D01*
X66937023Y112725180D02*
X67127499Y112725180D01*
X67127499Y112725180D02*
X67222737Y112677561D01*
X67222737Y112677561D02*
X67270356Y112629942D01*
X67270356Y112629942D02*
X67365594Y112487085D01*
X67365594Y112487085D02*
X67413213Y112296609D01*
X67413213Y112296609D02*
X67413213Y111915657D01*
X67413213Y111915657D02*
X67365594Y111820419D01*
X67365594Y111820419D02*
X67317975Y111772800D01*
X67317975Y111772800D02*
X67222737Y111725180D01*
X67222737Y111725180D02*
X67032261Y111725180D01*
X67032261Y111725180D02*
X66937023Y111772800D01*
X66937023Y111772800D02*
X66889404Y111820419D01*
X66889404Y111820419D02*
X66841785Y111915657D01*
X66841785Y111915657D02*
X66841785Y112153752D01*
X66841785Y112153752D02*
X66889404Y112248990D01*
X66889404Y112248990D02*
X66937023Y112296609D01*
X66937023Y112296609D02*
X67032261Y112344228D01*
X67032261Y112344228D02*
X67222737Y112344228D01*
X67222737Y112344228D02*
X67317975Y112296609D01*
X67317975Y112296609D02*
X67365594Y112248990D01*
X67365594Y112248990D02*
X67413213Y112153752D01*
X64079404Y112045180D02*
X64079404Y113045180D01*
X63507976Y112045180D02*
X63936547Y112616609D01*
X63507976Y113045180D02*
X64079404Y112473752D01*
X121229285Y73625180D02*
X121229285Y74625180D01*
X121229285Y74625180D02*
X120991190Y74625180D01*
X120991190Y74625180D02*
X120848333Y74577561D01*
X120848333Y74577561D02*
X120753095Y74482323D01*
X120753095Y74482323D02*
X120705476Y74387085D01*
X120705476Y74387085D02*
X120657857Y74196609D01*
X120657857Y74196609D02*
X120657857Y74053752D01*
X120657857Y74053752D02*
X120705476Y73863276D01*
X120705476Y73863276D02*
X120753095Y73768038D01*
X120753095Y73768038D02*
X120848333Y73672800D01*
X120848333Y73672800D02*
X120991190Y73625180D01*
X120991190Y73625180D02*
X121229285Y73625180D01*
X120324523Y74625180D02*
X119705476Y74625180D01*
X119705476Y74625180D02*
X120038809Y74244228D01*
X120038809Y74244228D02*
X119895952Y74244228D01*
X119895952Y74244228D02*
X119800714Y74196609D01*
X119800714Y74196609D02*
X119753095Y74148990D01*
X119753095Y74148990D02*
X119705476Y74053752D01*
X119705476Y74053752D02*
X119705476Y73815657D01*
X119705476Y73815657D02*
X119753095Y73720419D01*
X119753095Y73720419D02*
X119800714Y73672800D01*
X119800714Y73672800D02*
X119895952Y73625180D01*
X119895952Y73625180D02*
X120181666Y73625180D01*
X120181666Y73625180D02*
X120276904Y73672800D01*
X120276904Y73672800D02*
X120324523Y73720419D01*
X118848333Y74625180D02*
X119038809Y74625180D01*
X119038809Y74625180D02*
X119134047Y74577561D01*
X119134047Y74577561D02*
X119181666Y74529942D01*
X119181666Y74529942D02*
X119276904Y74387085D01*
X119276904Y74387085D02*
X119324523Y74196609D01*
X119324523Y74196609D02*
X119324523Y73815657D01*
X119324523Y73815657D02*
X119276904Y73720419D01*
X119276904Y73720419D02*
X119229285Y73672800D01*
X119229285Y73672800D02*
X119134047Y73625180D01*
X119134047Y73625180D02*
X118943571Y73625180D01*
X118943571Y73625180D02*
X118848333Y73672800D01*
X118848333Y73672800D02*
X118800714Y73720419D01*
X118800714Y73720419D02*
X118753095Y73815657D01*
X118753095Y73815657D02*
X118753095Y74053752D01*
X118753095Y74053752D02*
X118800714Y74148990D01*
X118800714Y74148990D02*
X118848333Y74196609D01*
X118848333Y74196609D02*
X118943571Y74244228D01*
X118943571Y74244228D02*
X119134047Y74244228D01*
X119134047Y74244228D02*
X119229285Y74196609D01*
X119229285Y74196609D02*
X119276904Y74148990D01*
X119276904Y74148990D02*
X119324523Y74053752D01*
X116466904Y73945180D02*
X116466904Y74945180D01*
X115895476Y73945180D02*
X116324047Y74516609D01*
X115895476Y74945180D02*
X116466904Y74373752D01*
X159329285Y73625180D02*
X159329285Y74625180D01*
X159329285Y74625180D02*
X159091190Y74625180D01*
X159091190Y74625180D02*
X158948333Y74577561D01*
X158948333Y74577561D02*
X158853095Y74482323D01*
X158853095Y74482323D02*
X158805476Y74387085D01*
X158805476Y74387085D02*
X158757857Y74196609D01*
X158757857Y74196609D02*
X158757857Y74053752D01*
X158757857Y74053752D02*
X158805476Y73863276D01*
X158805476Y73863276D02*
X158853095Y73768038D01*
X158853095Y73768038D02*
X158948333Y73672800D01*
X158948333Y73672800D02*
X159091190Y73625180D01*
X159091190Y73625180D02*
X159329285Y73625180D01*
X158424523Y74625180D02*
X157805476Y74625180D01*
X157805476Y74625180D02*
X158138809Y74244228D01*
X158138809Y74244228D02*
X157995952Y74244228D01*
X157995952Y74244228D02*
X157900714Y74196609D01*
X157900714Y74196609D02*
X157853095Y74148990D01*
X157853095Y74148990D02*
X157805476Y74053752D01*
X157805476Y74053752D02*
X157805476Y73815657D01*
X157805476Y73815657D02*
X157853095Y73720419D01*
X157853095Y73720419D02*
X157900714Y73672800D01*
X157900714Y73672800D02*
X157995952Y73625180D01*
X157995952Y73625180D02*
X158281666Y73625180D01*
X158281666Y73625180D02*
X158376904Y73672800D01*
X158376904Y73672800D02*
X158424523Y73720419D01*
X157234047Y74196609D02*
X157329285Y74244228D01*
X157329285Y74244228D02*
X157376904Y74291847D01*
X157376904Y74291847D02*
X157424523Y74387085D01*
X157424523Y74387085D02*
X157424523Y74434704D01*
X157424523Y74434704D02*
X157376904Y74529942D01*
X157376904Y74529942D02*
X157329285Y74577561D01*
X157329285Y74577561D02*
X157234047Y74625180D01*
X157234047Y74625180D02*
X157043571Y74625180D01*
X157043571Y74625180D02*
X156948333Y74577561D01*
X156948333Y74577561D02*
X156900714Y74529942D01*
X156900714Y74529942D02*
X156853095Y74434704D01*
X156853095Y74434704D02*
X156853095Y74387085D01*
X156853095Y74387085D02*
X156900714Y74291847D01*
X156900714Y74291847D02*
X156948333Y74244228D01*
X156948333Y74244228D02*
X157043571Y74196609D01*
X157043571Y74196609D02*
X157234047Y74196609D01*
X157234047Y74196609D02*
X157329285Y74148990D01*
X157329285Y74148990D02*
X157376904Y74101371D01*
X157376904Y74101371D02*
X157424523Y74006133D01*
X157424523Y74006133D02*
X157424523Y73815657D01*
X157424523Y73815657D02*
X157376904Y73720419D01*
X157376904Y73720419D02*
X157329285Y73672800D01*
X157329285Y73672800D02*
X157234047Y73625180D01*
X157234047Y73625180D02*
X157043571Y73625180D01*
X157043571Y73625180D02*
X156948333Y73672800D01*
X156948333Y73672800D02*
X156900714Y73720419D01*
X156900714Y73720419D02*
X156853095Y73815657D01*
X156853095Y73815657D02*
X156853095Y74006133D01*
X156853095Y74006133D02*
X156900714Y74101371D01*
X156900714Y74101371D02*
X156948333Y74148990D01*
X156948333Y74148990D02*
X157043571Y74196609D01*
X154566904Y73945180D02*
X154566904Y74945180D01*
X153995476Y73945180D02*
X154424047Y74516609D01*
X153995476Y74945180D02*
X154566904Y74373752D01*
X-14501964Y54575180D02*
X-14501964Y55575180D01*
X-14501964Y55575180D02*
X-14740059Y55575180D01*
X-14740059Y55575180D02*
X-14882916Y55527561D01*
X-14882916Y55527561D02*
X-14978154Y55432323D01*
X-14978154Y55432323D02*
X-15025773Y55337085D01*
X-15025773Y55337085D02*
X-15073392Y55146609D01*
X-15073392Y55146609D02*
X-15073392Y55003752D01*
X-15073392Y55003752D02*
X-15025773Y54813276D01*
X-15025773Y54813276D02*
X-14978154Y54718038D01*
X-14978154Y54718038D02*
X-14882916Y54622800D01*
X-14882916Y54622800D02*
X-14740059Y54575180D01*
X-14740059Y54575180D02*
X-14501964Y54575180D01*
X-15930535Y55241847D02*
X-15930535Y54575180D01*
X-15692440Y55622800D02*
X-15454345Y54908514D01*
X-15454345Y54908514D02*
X-16073392Y54908514D01*
X-16406726Y55479942D02*
X-16454345Y55527561D01*
X-16454345Y55527561D02*
X-16549583Y55575180D01*
X-16549583Y55575180D02*
X-16787678Y55575180D01*
X-16787678Y55575180D02*
X-16882916Y55527561D01*
X-16882916Y55527561D02*
X-16930535Y55479942D01*
X-16930535Y55479942D02*
X-16978154Y55384704D01*
X-16978154Y55384704D02*
X-16978154Y55289466D01*
X-16978154Y55289466D02*
X-16930535Y55146609D01*
X-16930535Y55146609D02*
X-16359107Y54575180D01*
X-16359107Y54575180D02*
X-16978154Y54575180D01*
X-19264345Y54895180D02*
X-19264345Y55895180D01*
X-19835773Y54895180D02*
X-19407202Y55466609D01*
X-19835773Y55895180D02*
X-19264345Y55323752D01*
X151233035Y54575180D02*
X151233035Y55575180D01*
X151233035Y55575180D02*
X150994940Y55575180D01*
X150994940Y55575180D02*
X150852083Y55527561D01*
X150852083Y55527561D02*
X150756845Y55432323D01*
X150756845Y55432323D02*
X150709226Y55337085D01*
X150709226Y55337085D02*
X150661607Y55146609D01*
X150661607Y55146609D02*
X150661607Y55003752D01*
X150661607Y55003752D02*
X150709226Y54813276D01*
X150709226Y54813276D02*
X150756845Y54718038D01*
X150756845Y54718038D02*
X150852083Y54622800D01*
X150852083Y54622800D02*
X150994940Y54575180D01*
X150994940Y54575180D02*
X151233035Y54575180D01*
X149756845Y55575180D02*
X150233035Y55575180D01*
X150233035Y55575180D02*
X150280654Y55098990D01*
X150280654Y55098990D02*
X150233035Y55146609D01*
X150233035Y55146609D02*
X150137797Y55194228D01*
X150137797Y55194228D02*
X149899702Y55194228D01*
X149899702Y55194228D02*
X149804464Y55146609D01*
X149804464Y55146609D02*
X149756845Y55098990D01*
X149756845Y55098990D02*
X149709226Y55003752D01*
X149709226Y55003752D02*
X149709226Y54765657D01*
X149709226Y54765657D02*
X149756845Y54670419D01*
X149756845Y54670419D02*
X149804464Y54622800D01*
X149804464Y54622800D02*
X149899702Y54575180D01*
X149899702Y54575180D02*
X150137797Y54575180D01*
X150137797Y54575180D02*
X150233035Y54622800D01*
X150233035Y54622800D02*
X150280654Y54670419D01*
X149090178Y55575180D02*
X148994940Y55575180D01*
X148994940Y55575180D02*
X148899702Y55527561D01*
X148899702Y55527561D02*
X148852083Y55479942D01*
X148852083Y55479942D02*
X148804464Y55384704D01*
X148804464Y55384704D02*
X148756845Y55194228D01*
X148756845Y55194228D02*
X148756845Y54956133D01*
X148756845Y54956133D02*
X148804464Y54765657D01*
X148804464Y54765657D02*
X148852083Y54670419D01*
X148852083Y54670419D02*
X148899702Y54622800D01*
X148899702Y54622800D02*
X148994940Y54575180D01*
X148994940Y54575180D02*
X149090178Y54575180D01*
X149090178Y54575180D02*
X149185416Y54622800D01*
X149185416Y54622800D02*
X149233035Y54670419D01*
X149233035Y54670419D02*
X149280654Y54765657D01*
X149280654Y54765657D02*
X149328273Y54956133D01*
X149328273Y54956133D02*
X149328273Y55194228D01*
X149328273Y55194228D02*
X149280654Y55384704D01*
X149280654Y55384704D02*
X149233035Y55479942D01*
X149233035Y55479942D02*
X149185416Y55527561D01*
X149185416Y55527561D02*
X149090178Y55575180D01*
X146470654Y54895180D02*
X146470654Y55895180D01*
X145899226Y54895180D02*
X146327797Y55466609D01*
X145899226Y55895180D02*
X146470654Y55323752D01*
X83129285Y73625180D02*
X83129285Y74625180D01*
X83129285Y74625180D02*
X82891190Y74625180D01*
X82891190Y74625180D02*
X82748333Y74577561D01*
X82748333Y74577561D02*
X82653095Y74482323D01*
X82653095Y74482323D02*
X82605476Y74387085D01*
X82605476Y74387085D02*
X82557857Y74196609D01*
X82557857Y74196609D02*
X82557857Y74053752D01*
X82557857Y74053752D02*
X82605476Y73863276D01*
X82605476Y73863276D02*
X82653095Y73768038D01*
X82653095Y73768038D02*
X82748333Y73672800D01*
X82748333Y73672800D02*
X82891190Y73625180D01*
X82891190Y73625180D02*
X83129285Y73625180D01*
X82224523Y74625180D02*
X81605476Y74625180D01*
X81605476Y74625180D02*
X81938809Y74244228D01*
X81938809Y74244228D02*
X81795952Y74244228D01*
X81795952Y74244228D02*
X81700714Y74196609D01*
X81700714Y74196609D02*
X81653095Y74148990D01*
X81653095Y74148990D02*
X81605476Y74053752D01*
X81605476Y74053752D02*
X81605476Y73815657D01*
X81605476Y73815657D02*
X81653095Y73720419D01*
X81653095Y73720419D02*
X81700714Y73672800D01*
X81700714Y73672800D02*
X81795952Y73625180D01*
X81795952Y73625180D02*
X82081666Y73625180D01*
X82081666Y73625180D02*
X82176904Y73672800D01*
X82176904Y73672800D02*
X82224523Y73720419D01*
X80748333Y74291847D02*
X80748333Y73625180D01*
X80986428Y74672800D02*
X81224523Y73958514D01*
X81224523Y73958514D02*
X80605476Y73958514D01*
X78366904Y73945180D02*
X78366904Y74945180D01*
X77795476Y73945180D02*
X78224047Y74516609D01*
X77795476Y74945180D02*
X78366904Y74373752D01*
X125515594Y111725180D02*
X125515594Y112725180D01*
X125515594Y112725180D02*
X125277499Y112725180D01*
X125277499Y112725180D02*
X125134642Y112677561D01*
X125134642Y112677561D02*
X125039404Y112582323D01*
X125039404Y112582323D02*
X124991785Y112487085D01*
X124991785Y112487085D02*
X124944166Y112296609D01*
X124944166Y112296609D02*
X124944166Y112153752D01*
X124944166Y112153752D02*
X124991785Y111963276D01*
X124991785Y111963276D02*
X125039404Y111868038D01*
X125039404Y111868038D02*
X125134642Y111772800D01*
X125134642Y111772800D02*
X125277499Y111725180D01*
X125277499Y111725180D02*
X125515594Y111725180D01*
X124467975Y111725180D02*
X124277499Y111725180D01*
X124277499Y111725180D02*
X124182261Y111772800D01*
X124182261Y111772800D02*
X124134642Y111820419D01*
X124134642Y111820419D02*
X124039404Y111963276D01*
X124039404Y111963276D02*
X123991785Y112153752D01*
X123991785Y112153752D02*
X123991785Y112534704D01*
X123991785Y112534704D02*
X124039404Y112629942D01*
X124039404Y112629942D02*
X124087023Y112677561D01*
X124087023Y112677561D02*
X124182261Y112725180D01*
X124182261Y112725180D02*
X124372737Y112725180D01*
X124372737Y112725180D02*
X124467975Y112677561D01*
X124467975Y112677561D02*
X124515594Y112629942D01*
X124515594Y112629942D02*
X124563213Y112534704D01*
X124563213Y112534704D02*
X124563213Y112296609D01*
X124563213Y112296609D02*
X124515594Y112201371D01*
X124515594Y112201371D02*
X124467975Y112153752D01*
X124467975Y112153752D02*
X124372737Y112106133D01*
X124372737Y112106133D02*
X124182261Y112106133D01*
X124182261Y112106133D02*
X124087023Y112153752D01*
X124087023Y112153752D02*
X124039404Y112201371D01*
X124039404Y112201371D02*
X123991785Y112296609D01*
X121229404Y112045180D02*
X121229404Y113045180D01*
X120657976Y112045180D02*
X121086547Y112616609D01*
X120657976Y113045180D02*
X121229404Y112473752D01*
X173616785Y92675180D02*
X173616785Y93675180D01*
X173616785Y93675180D02*
X173378690Y93675180D01*
X173378690Y93675180D02*
X173235833Y93627561D01*
X173235833Y93627561D02*
X173140595Y93532323D01*
X173140595Y93532323D02*
X173092976Y93437085D01*
X173092976Y93437085D02*
X173045357Y93246609D01*
X173045357Y93246609D02*
X173045357Y93103752D01*
X173045357Y93103752D02*
X173092976Y92913276D01*
X173092976Y92913276D02*
X173140595Y92818038D01*
X173140595Y92818038D02*
X173235833Y92722800D01*
X173235833Y92722800D02*
X173378690Y92675180D01*
X173378690Y92675180D02*
X173616785Y92675180D01*
X172664404Y93579942D02*
X172616785Y93627561D01*
X172616785Y93627561D02*
X172521547Y93675180D01*
X172521547Y93675180D02*
X172283452Y93675180D01*
X172283452Y93675180D02*
X172188214Y93627561D01*
X172188214Y93627561D02*
X172140595Y93579942D01*
X172140595Y93579942D02*
X172092976Y93484704D01*
X172092976Y93484704D02*
X172092976Y93389466D01*
X172092976Y93389466D02*
X172140595Y93246609D01*
X172140595Y93246609D02*
X172712023Y92675180D01*
X172712023Y92675180D02*
X172092976Y92675180D01*
X171188214Y93675180D02*
X171664404Y93675180D01*
X171664404Y93675180D02*
X171712023Y93198990D01*
X171712023Y93198990D02*
X171664404Y93246609D01*
X171664404Y93246609D02*
X171569166Y93294228D01*
X171569166Y93294228D02*
X171331071Y93294228D01*
X171331071Y93294228D02*
X171235833Y93246609D01*
X171235833Y93246609D02*
X171188214Y93198990D01*
X171188214Y93198990D02*
X171140595Y93103752D01*
X171140595Y93103752D02*
X171140595Y92865657D01*
X171140595Y92865657D02*
X171188214Y92770419D01*
X171188214Y92770419D02*
X171235833Y92722800D01*
X171235833Y92722800D02*
X171331071Y92675180D01*
X171331071Y92675180D02*
X171569166Y92675180D01*
X171569166Y92675180D02*
X171664404Y92722800D01*
X171664404Y92722800D02*
X171712023Y92770419D01*
X168854404Y92995180D02*
X168854404Y93995180D01*
X168282976Y92995180D02*
X168711547Y93566609D01*
X168282976Y93995180D02*
X168854404Y93423752D01*
X35912319Y50268035D02*
X34912319Y50268035D01*
X34912319Y50268035D02*
X34912319Y50029940D01*
X34912319Y50029940D02*
X34959938Y49887083D01*
X34959938Y49887083D02*
X35055176Y49791845D01*
X35055176Y49791845D02*
X35150414Y49744226D01*
X35150414Y49744226D02*
X35340890Y49696607D01*
X35340890Y49696607D02*
X35483747Y49696607D01*
X35483747Y49696607D02*
X35674223Y49744226D01*
X35674223Y49744226D02*
X35769461Y49791845D01*
X35769461Y49791845D02*
X35864700Y49887083D01*
X35864700Y49887083D02*
X35912319Y50029940D01*
X35912319Y50029940D02*
X35912319Y50268035D01*
X34912319Y48791845D02*
X34912319Y49268035D01*
X34912319Y49268035D02*
X35388509Y49315654D01*
X35388509Y49315654D02*
X35340890Y49268035D01*
X35340890Y49268035D02*
X35293271Y49172797D01*
X35293271Y49172797D02*
X35293271Y48934702D01*
X35293271Y48934702D02*
X35340890Y48839464D01*
X35340890Y48839464D02*
X35388509Y48791845D01*
X35388509Y48791845D02*
X35483747Y48744226D01*
X35483747Y48744226D02*
X35721842Y48744226D01*
X35721842Y48744226D02*
X35817080Y48791845D01*
X35817080Y48791845D02*
X35864700Y48839464D01*
X35864700Y48839464D02*
X35912319Y48934702D01*
X35912319Y48934702D02*
X35912319Y49172797D01*
X35912319Y49172797D02*
X35864700Y49268035D01*
X35864700Y49268035D02*
X35817080Y49315654D01*
X34912319Y47887083D02*
X34912319Y48077559D01*
X34912319Y48077559D02*
X34959938Y48172797D01*
X34959938Y48172797D02*
X35007557Y48220416D01*
X35007557Y48220416D02*
X35150414Y48315654D01*
X35150414Y48315654D02*
X35340890Y48363273D01*
X35340890Y48363273D02*
X35721842Y48363273D01*
X35721842Y48363273D02*
X35817080Y48315654D01*
X35817080Y48315654D02*
X35864700Y48268035D01*
X35864700Y48268035D02*
X35912319Y48172797D01*
X35912319Y48172797D02*
X35912319Y47982321D01*
X35912319Y47982321D02*
X35864700Y47887083D01*
X35864700Y47887083D02*
X35817080Y47839464D01*
X35817080Y47839464D02*
X35721842Y47791845D01*
X35721842Y47791845D02*
X35483747Y47791845D01*
X35483747Y47791845D02*
X35388509Y47839464D01*
X35388509Y47839464D02*
X35340890Y47887083D01*
X35340890Y47887083D02*
X35293271Y47982321D01*
X35293271Y47982321D02*
X35293271Y48172797D01*
X35293271Y48172797D02*
X35340890Y48268035D01*
X35340890Y48268035D02*
X35388509Y48315654D01*
X35388509Y48315654D02*
X35483747Y48363273D01*
X35592319Y45505654D02*
X34592319Y45505654D01*
X35592319Y44934226D02*
X35020890Y45362797D01*
X34592319Y44934226D02*
X35163747Y45505654D01*
%TO.C,D7*%
D11*
X83907500Y114300000D02*
X84557500Y114300000D01*
X85157500Y113180000D02*
X85157500Y115420000D01*
X85277500Y113180000D02*
X85277500Y115420000D01*
X85397500Y113180000D02*
X85397500Y115420000D01*
X89447500Y114300000D02*
X88797500Y114300000D01*
X84557500Y115420000D02*
X88797500Y115420000D01*
X88797500Y113180000D01*
X84557500Y113180000D01*
X84557500Y115420000D01*
%TO.C,D48*%
X107720000Y57150000D02*
X108370000Y57150000D01*
X108970000Y56030000D02*
X108970000Y58270000D01*
X109090000Y56030000D02*
X109090000Y58270000D01*
X109210000Y56030000D02*
X109210000Y58270000D01*
X113260000Y57150000D02*
X112610000Y57150000D01*
X108370000Y58270000D02*
X112610000Y58270000D01*
X112610000Y56030000D01*
X108370000Y56030000D01*
X108370000Y58270000D01*
%TO.C,D46*%
X69620000Y57150000D02*
X70270000Y57150000D01*
X70870000Y56030000D02*
X70870000Y58270000D01*
X70990000Y56030000D02*
X70990000Y58270000D01*
X71110000Y56030000D02*
X71110000Y58270000D01*
X75160000Y57150000D02*
X74510000Y57150000D01*
X70270000Y58270000D02*
X74510000Y58270000D01*
X74510000Y56030000D01*
X70270000Y56030000D01*
X70270000Y58270000D01*
%TO.C,D57*%
X102393750Y51823750D02*
X102393750Y51173750D01*
X102393750Y46283750D02*
X102393750Y46933750D01*
X103513750Y47773750D02*
X101273750Y47773750D01*
X103513750Y47653750D02*
X101273750Y47653750D01*
X103513750Y47533750D02*
X101273750Y47533750D01*
X101273750Y51173750D02*
X103513750Y51173750D01*
X103513750Y46933750D01*
X101273750Y46933750D01*
X101273750Y51173750D01*
%TO.C,D12*%
X179157500Y114300000D02*
X179807500Y114300000D01*
X180407500Y113180000D02*
X180407500Y115420000D01*
X180527500Y113180000D02*
X180527500Y115420000D01*
X180647500Y113180000D02*
X180647500Y115420000D01*
X184697500Y114300000D02*
X184047500Y114300000D01*
X179807500Y115420000D02*
X184047500Y115420000D01*
X184047500Y113180000D01*
X179807500Y113180000D01*
X179807500Y115420000D01*
%TO.C,D1*%
X-30392500Y114300000D02*
X-29742500Y114300000D01*
X-29142500Y113180000D02*
X-29142500Y115420000D01*
X-29022500Y113180000D02*
X-29022500Y115420000D01*
X-28902500Y113180000D02*
X-28902500Y115420000D01*
X-24852500Y114300000D02*
X-25502500Y114300000D01*
X-29742500Y115420000D02*
X-25502500Y115420000D01*
X-25502500Y113180000D01*
X-29742500Y113180000D01*
X-29742500Y115420000D01*
%TO.C,D24*%
X150582500Y95250000D02*
X151232500Y95250000D01*
X151832500Y94130000D02*
X151832500Y96370000D01*
X151952500Y94130000D02*
X151952500Y96370000D01*
X152072500Y94130000D02*
X152072500Y96370000D01*
X156122500Y95250000D02*
X155472500Y95250000D01*
X151232500Y96370000D02*
X155472500Y96370000D01*
X155472500Y94130000D01*
X151232500Y94130000D01*
X151232500Y96370000D01*
%TO.C,D60*%
X223837500Y51823750D02*
X223837500Y51173750D01*
X223837500Y46283750D02*
X223837500Y46933750D01*
X224957500Y47773750D02*
X222717500Y47773750D01*
X224957500Y47653750D02*
X222717500Y47653750D01*
X224957500Y47533750D02*
X222717500Y47533750D01*
X222717500Y51173750D02*
X224957500Y51173750D01*
X224957500Y46933750D01*
X222717500Y46933750D01*
X222717500Y51173750D01*
%TO.C,D11*%
X160107500Y114300000D02*
X160757500Y114300000D01*
X161357500Y113180000D02*
X161357500Y115420000D01*
X161477500Y113180000D02*
X161477500Y115420000D01*
X161597500Y113180000D02*
X161597500Y115420000D01*
X165647500Y114300000D02*
X164997500Y114300000D01*
X160757500Y115420000D02*
X164997500Y115420000D01*
X164997500Y113180000D01*
X160757500Y113180000D01*
X160757500Y115420000D01*
%TO.C,D31*%
X21995000Y76200000D02*
X22645000Y76200000D01*
X23245000Y75080000D02*
X23245000Y77320000D01*
X23365000Y75080000D02*
X23365000Y77320000D01*
X23485000Y75080000D02*
X23485000Y77320000D01*
X27535000Y76200000D02*
X26885000Y76200000D01*
X22645000Y77320000D02*
X26885000Y77320000D01*
X26885000Y75080000D01*
X22645000Y75080000D01*
X22645000Y77320000D01*
%TO.C,D39*%
X174395000Y76200000D02*
X175045000Y76200000D01*
X175645000Y75080000D02*
X175645000Y77320000D01*
X175765000Y75080000D02*
X175765000Y77320000D01*
X175885000Y75080000D02*
X175885000Y77320000D01*
X179935000Y76200000D02*
X179285000Y76200000D01*
X175045000Y77320000D02*
X179285000Y77320000D01*
X179285000Y75080000D01*
X175045000Y75080000D01*
X175045000Y77320000D01*
%TO.C,D43*%
X12470000Y57150000D02*
X13120000Y57150000D01*
X13720000Y56030000D02*
X13720000Y58270000D01*
X13840000Y56030000D02*
X13840000Y58270000D01*
X13960000Y56030000D02*
X13960000Y58270000D01*
X18010000Y57150000D02*
X17360000Y57150000D01*
X13120000Y58270000D02*
X17360000Y58270000D01*
X17360000Y56030000D01*
X13120000Y56030000D01*
X13120000Y58270000D01*
%TO.C,D41*%
X221067500Y76200000D02*
X221717500Y76200000D01*
X222317500Y75080000D02*
X222317500Y77320000D01*
X222437500Y75080000D02*
X222437500Y77320000D01*
X222557500Y75080000D02*
X222557500Y77320000D01*
X226607500Y76200000D02*
X225957500Y76200000D01*
X221717500Y77320000D02*
X225957500Y77320000D01*
X225957500Y75080000D01*
X221717500Y75080000D01*
X221717500Y77320000D01*
%TO.C,D29*%
X-23248750Y76200000D02*
X-22598750Y76200000D01*
X-21998750Y75080000D02*
X-21998750Y77320000D01*
X-21878750Y75080000D02*
X-21878750Y77320000D01*
X-21758750Y75080000D02*
X-21758750Y77320000D01*
X-17708750Y76200000D02*
X-18358750Y76200000D01*
X-22598750Y77320000D02*
X-18358750Y77320000D01*
X-18358750Y75080000D01*
X-22598750Y75080000D01*
X-22598750Y77320000D01*
%TO.C,D59*%
X200025000Y51823750D02*
X200025000Y51173750D01*
X200025000Y46283750D02*
X200025000Y46933750D01*
X201145000Y47773750D02*
X198905000Y47773750D01*
X201145000Y47653750D02*
X198905000Y47653750D01*
X201145000Y47533750D02*
X198905000Y47533750D01*
X198905000Y51173750D02*
X201145000Y51173750D01*
X201145000Y46933750D01*
X198905000Y46933750D01*
X198905000Y51173750D01*
%TO.C,D28*%
X226782500Y95250000D02*
X227432500Y95250000D01*
X228032500Y94130000D02*
X228032500Y96370000D01*
X228152500Y94130000D02*
X228152500Y96370000D01*
X228272500Y94130000D02*
X228272500Y96370000D01*
X232322500Y95250000D02*
X231672500Y95250000D01*
X227432500Y96370000D02*
X231672500Y96370000D01*
X231672500Y94130000D01*
X227432500Y94130000D01*
X227432500Y96370000D01*
%TO.C,D53*%
X219638750Y57150000D02*
X220288750Y57150000D01*
X220888750Y56030000D02*
X220888750Y58270000D01*
X221008750Y56030000D02*
X221008750Y58270000D01*
X221128750Y56030000D02*
X221128750Y58270000D01*
X225178750Y57150000D02*
X224528750Y57150000D01*
X220288750Y58270000D02*
X224528750Y58270000D01*
X224528750Y56030000D01*
X220288750Y56030000D01*
X220288750Y58270000D01*
%TO.C,D32*%
X41045000Y76200000D02*
X41695000Y76200000D01*
X42295000Y75080000D02*
X42295000Y77320000D01*
X42415000Y75080000D02*
X42415000Y77320000D01*
X42535000Y75080000D02*
X42535000Y77320000D01*
X46585000Y76200000D02*
X45935000Y76200000D01*
X41695000Y77320000D02*
X45935000Y77320000D01*
X45935000Y75080000D01*
X41695000Y75080000D01*
X41695000Y77320000D01*
%TO.C,D22*%
X112482500Y95250000D02*
X113132500Y95250000D01*
X113732500Y94130000D02*
X113732500Y96370000D01*
X113852500Y94130000D02*
X113852500Y96370000D01*
X113972500Y94130000D02*
X113972500Y96370000D01*
X118022500Y95250000D02*
X117372500Y95250000D01*
X113132500Y96370000D02*
X117372500Y96370000D01*
X117372500Y94130000D01*
X113132500Y94130000D01*
X113132500Y96370000D01*
%TO.C,D3*%
X7707500Y114300000D02*
X8357500Y114300000D01*
X8957500Y113180000D02*
X8957500Y115420000D01*
X9077500Y113180000D02*
X9077500Y115420000D01*
X9197500Y113180000D02*
X9197500Y115420000D01*
X13247500Y114300000D02*
X12597500Y114300000D01*
X8357500Y115420000D02*
X12597500Y115420000D01*
X12597500Y113180000D01*
X8357500Y113180000D01*
X8357500Y115420000D01*
%TO.C,D33*%
X60095000Y76200000D02*
X60745000Y76200000D01*
X61345000Y75080000D02*
X61345000Y77320000D01*
X61465000Y75080000D02*
X61465000Y77320000D01*
X61585000Y75080000D02*
X61585000Y77320000D01*
X65635000Y76200000D02*
X64985000Y76200000D01*
X60745000Y77320000D02*
X64985000Y77320000D01*
X64985000Y75080000D01*
X60745000Y75080000D01*
X60745000Y77320000D01*
%TO.C,D44*%
X31520000Y57150000D02*
X32170000Y57150000D01*
X32770000Y56030000D02*
X32770000Y58270000D01*
X32890000Y56030000D02*
X32890000Y58270000D01*
X33010000Y56030000D02*
X33010000Y58270000D01*
X37060000Y57150000D02*
X36410000Y57150000D01*
X32170000Y58270000D02*
X36410000Y58270000D01*
X36410000Y56030000D01*
X32170000Y56030000D01*
X32170000Y58270000D01*
%TO.C,D4*%
X26757500Y114300000D02*
X27407500Y114300000D01*
X28007500Y113180000D02*
X28007500Y115420000D01*
X28127500Y113180000D02*
X28127500Y115420000D01*
X28247500Y113180000D02*
X28247500Y115420000D01*
X32297500Y114300000D02*
X31647500Y114300000D01*
X27407500Y115420000D02*
X31647500Y115420000D01*
X31647500Y113180000D01*
X27407500Y113180000D01*
X27407500Y115420000D01*
%TO.C,D47*%
X88670000Y57150000D02*
X89320000Y57150000D01*
X89920000Y56030000D02*
X89920000Y58270000D01*
X90040000Y56030000D02*
X90040000Y58270000D01*
X90160000Y56030000D02*
X90160000Y58270000D01*
X94210000Y57150000D02*
X93560000Y57150000D01*
X89320000Y58270000D02*
X93560000Y58270000D01*
X93560000Y56030000D01*
X89320000Y56030000D01*
X89320000Y58270000D01*
%TO.C,D21*%
X93432500Y95250000D02*
X94082500Y95250000D01*
X94682500Y94130000D02*
X94682500Y96370000D01*
X94802500Y94130000D02*
X94802500Y96370000D01*
X94922500Y94130000D02*
X94922500Y96370000D01*
X98972500Y95250000D02*
X98322500Y95250000D01*
X94082500Y96370000D02*
X98322500Y96370000D01*
X98322500Y94130000D01*
X94082500Y94130000D01*
X94082500Y96370000D01*
%TO.C,D52*%
X183920000Y57150000D02*
X184570000Y57150000D01*
X185170000Y56030000D02*
X185170000Y58270000D01*
X185290000Y56030000D02*
X185290000Y58270000D01*
X185410000Y56030000D02*
X185410000Y58270000D01*
X189460000Y57150000D02*
X188810000Y57150000D01*
X184570000Y58270000D02*
X188810000Y58270000D01*
X188810000Y56030000D01*
X184570000Y56030000D01*
X184570000Y58270000D01*
%TO.C,D55*%
X9525000Y51823750D02*
X9525000Y51173750D01*
X9525000Y46283750D02*
X9525000Y46933750D01*
X10645000Y47773750D02*
X8405000Y47773750D01*
X10645000Y47653750D02*
X8405000Y47653750D01*
X10645000Y47533750D02*
X8405000Y47533750D01*
X8405000Y51173750D02*
X10645000Y51173750D01*
X10645000Y46933750D01*
X8405000Y46933750D01*
X8405000Y51173750D01*
%TO.C,D49*%
X126770000Y57150000D02*
X127420000Y57150000D01*
X128020000Y56030000D02*
X128020000Y58270000D01*
X128140000Y56030000D02*
X128140000Y58270000D01*
X128260000Y56030000D02*
X128260000Y58270000D01*
X132310000Y57150000D02*
X131660000Y57150000D01*
X127420000Y58270000D02*
X131660000Y58270000D01*
X131660000Y56030000D01*
X127420000Y56030000D01*
X127420000Y58270000D01*
%TO.C,D19*%
X55332500Y95250000D02*
X55982500Y95250000D01*
X56582500Y94130000D02*
X56582500Y96370000D01*
X56702500Y94130000D02*
X56702500Y96370000D01*
X56822500Y94130000D02*
X56822500Y96370000D01*
X60872500Y95250000D02*
X60222500Y95250000D01*
X55982500Y96370000D02*
X60222500Y96370000D01*
X60222500Y94130000D01*
X55982500Y94130000D01*
X55982500Y96370000D01*
%TO.C,D51*%
X164870000Y57150000D02*
X165520000Y57150000D01*
X166120000Y56030000D02*
X166120000Y58270000D01*
X166240000Y56030000D02*
X166240000Y58270000D01*
X166360000Y56030000D02*
X166360000Y58270000D01*
X170410000Y57150000D02*
X169760000Y57150000D01*
X165520000Y58270000D02*
X169760000Y58270000D01*
X169760000Y56030000D01*
X165520000Y56030000D01*
X165520000Y58270000D01*
%TO.C,D10*%
X141057500Y114300000D02*
X141707500Y114300000D01*
X142307500Y113180000D02*
X142307500Y115420000D01*
X142427500Y113180000D02*
X142427500Y115420000D01*
X142547500Y113180000D02*
X142547500Y115420000D01*
X146597500Y114300000D02*
X145947500Y114300000D01*
X141707500Y115420000D02*
X145947500Y115420000D01*
X145947500Y113180000D01*
X141707500Y113180000D01*
X141707500Y115420000D01*
%TO.C,D58*%
X176212500Y51823750D02*
X176212500Y51173750D01*
X176212500Y46283750D02*
X176212500Y46933750D01*
X177332500Y47773750D02*
X175092500Y47773750D01*
X177332500Y47653750D02*
X175092500Y47653750D01*
X177332500Y47533750D02*
X175092500Y47533750D01*
X175092500Y51173750D02*
X177332500Y51173750D01*
X177332500Y46933750D01*
X175092500Y46933750D01*
X175092500Y51173750D01*
%TO.C,D37*%
X136295000Y76200000D02*
X136945000Y76200000D01*
X137545000Y75080000D02*
X137545000Y77320000D01*
X137665000Y75080000D02*
X137665000Y77320000D01*
X137785000Y75080000D02*
X137785000Y77320000D01*
X141835000Y76200000D02*
X141185000Y76200000D01*
X136945000Y77320000D02*
X141185000Y77320000D01*
X141185000Y75080000D01*
X136945000Y75080000D01*
X136945000Y77320000D01*
%TO.C,D2*%
X-11342500Y114300000D02*
X-10692500Y114300000D01*
X-10092500Y113180000D02*
X-10092500Y115420000D01*
X-9972500Y113180000D02*
X-9972500Y115420000D01*
X-9852500Y113180000D02*
X-9852500Y115420000D01*
X-5802500Y114300000D02*
X-6452500Y114300000D01*
X-10692500Y115420000D02*
X-6452500Y115420000D01*
X-6452500Y113180000D01*
X-10692500Y113180000D01*
X-10692500Y115420000D01*
%TO.C,D27*%
X204730000Y95250000D02*
X205380000Y95250000D01*
X205980000Y94130000D02*
X205980000Y96370000D01*
X206100000Y94130000D02*
X206100000Y96370000D01*
X206220000Y94130000D02*
X206220000Y96370000D01*
X210270000Y95250000D02*
X209620000Y95250000D01*
X205380000Y96370000D02*
X209620000Y96370000D01*
X209620000Y94130000D01*
X205380000Y94130000D01*
X205380000Y96370000D01*
%TO.C,D45*%
X50570000Y57150000D02*
X51220000Y57150000D01*
X51820000Y56030000D02*
X51820000Y58270000D01*
X51940000Y56030000D02*
X51940000Y58270000D01*
X52060000Y56030000D02*
X52060000Y58270000D01*
X56110000Y57150000D02*
X55460000Y57150000D01*
X51220000Y58270000D02*
X55460000Y58270000D01*
X55460000Y56030000D01*
X51220000Y56030000D01*
X51220000Y58270000D01*
%TO.C,D5*%
X45807500Y114300000D02*
X46457500Y114300000D01*
X47057500Y113180000D02*
X47057500Y115420000D01*
X47177500Y113180000D02*
X47177500Y115420000D01*
X47297500Y113180000D02*
X47297500Y115420000D01*
X51347500Y114300000D02*
X50697500Y114300000D01*
X46457500Y115420000D02*
X50697500Y115420000D01*
X50697500Y113180000D01*
X46457500Y113180000D01*
X46457500Y115420000D01*
%TO.C,D35*%
X98195000Y76200000D02*
X98845000Y76200000D01*
X99445000Y75080000D02*
X99445000Y77320000D01*
X99565000Y75080000D02*
X99565000Y77320000D01*
X99685000Y75080000D02*
X99685000Y77320000D01*
X103735000Y76200000D02*
X103085000Y76200000D01*
X98845000Y77320000D02*
X103085000Y77320000D01*
X103085000Y75080000D01*
X98845000Y75080000D01*
X98845000Y77320000D01*
%TO.C,D18*%
X36282500Y95250000D02*
X36932500Y95250000D01*
X37532500Y94130000D02*
X37532500Y96370000D01*
X37652500Y94130000D02*
X37652500Y96370000D01*
X37772500Y94130000D02*
X37772500Y96370000D01*
X41822500Y95250000D02*
X41172500Y95250000D01*
X36932500Y96370000D02*
X41172500Y96370000D01*
X41172500Y94130000D01*
X36932500Y94130000D01*
X36932500Y96370000D01*
%TO.C,D26*%
X188682500Y95250000D02*
X189332500Y95250000D01*
X189932500Y94130000D02*
X189932500Y96370000D01*
X190052500Y94130000D02*
X190052500Y96370000D01*
X190172500Y94130000D02*
X190172500Y96370000D01*
X194222500Y95250000D02*
X193572500Y95250000D01*
X189332500Y96370000D02*
X193572500Y96370000D01*
X193572500Y94130000D01*
X189332500Y94130000D01*
X189332500Y96370000D01*
%TO.C,D40*%
X193445000Y76200000D02*
X194095000Y76200000D01*
X194695000Y75080000D02*
X194695000Y77320000D01*
X194815000Y75080000D02*
X194815000Y77320000D01*
X194935000Y75080000D02*
X194935000Y77320000D01*
X198985000Y76200000D02*
X198335000Y76200000D01*
X194095000Y77320000D02*
X198335000Y77320000D01*
X198335000Y75080000D01*
X194095000Y75080000D01*
X194095000Y77320000D01*
%TO.C,D15*%
X-25630000Y95250000D02*
X-24980000Y95250000D01*
X-24380000Y94130000D02*
X-24380000Y96370000D01*
X-24260000Y94130000D02*
X-24260000Y96370000D01*
X-24140000Y94130000D02*
X-24140000Y96370000D01*
X-20090000Y95250000D02*
X-20740000Y95250000D01*
X-24980000Y96370000D02*
X-20740000Y96370000D01*
X-20740000Y94130000D01*
X-24980000Y94130000D01*
X-24980000Y96370000D01*
%TO.C,D23*%
X131532500Y95250000D02*
X132182500Y95250000D01*
X132782500Y94130000D02*
X132782500Y96370000D01*
X132902500Y94130000D02*
X132902500Y96370000D01*
X133022500Y94130000D02*
X133022500Y96370000D01*
X137072500Y95250000D02*
X136422500Y95250000D01*
X132182500Y96370000D02*
X136422500Y96370000D01*
X136422500Y94130000D01*
X132182500Y94130000D01*
X132182500Y96370000D01*
%TO.C,D17*%
X17232500Y95250000D02*
X17882500Y95250000D01*
X18482500Y94130000D02*
X18482500Y96370000D01*
X18602500Y94130000D02*
X18602500Y96370000D01*
X18722500Y94130000D02*
X18722500Y96370000D01*
X22772500Y95250000D02*
X22122500Y95250000D01*
X17882500Y96370000D02*
X22122500Y96370000D01*
X22122500Y94130000D01*
X17882500Y94130000D01*
X17882500Y96370000D01*
%TO.C,D16*%
X-1817500Y95250000D02*
X-1167500Y95250000D01*
X-567500Y94130000D02*
X-567500Y96370000D01*
X-447500Y94130000D02*
X-447500Y96370000D01*
X-327500Y94130000D02*
X-327500Y96370000D01*
X3722500Y95250000D02*
X3072500Y95250000D01*
X-1167500Y96370000D02*
X3072500Y96370000D01*
X3072500Y94130000D01*
X-1167500Y94130000D01*
X-1167500Y96370000D01*
%TO.C,D30*%
X2945000Y76200000D02*
X3595000Y76200000D01*
X4195000Y75080000D02*
X4195000Y77320000D01*
X4315000Y75080000D02*
X4315000Y77320000D01*
X4435000Y75080000D02*
X4435000Y77320000D01*
X8485000Y76200000D02*
X7835000Y76200000D01*
X3595000Y77320000D02*
X7835000Y77320000D01*
X7835000Y75080000D01*
X3595000Y75080000D01*
X3595000Y77320000D01*
%TO.C,D14*%
X226782500Y114300000D02*
X227432500Y114300000D01*
X228032500Y113180000D02*
X228032500Y115420000D01*
X228152500Y113180000D02*
X228152500Y115420000D01*
X228272500Y113180000D02*
X228272500Y115420000D01*
X232322500Y114300000D02*
X231672500Y114300000D01*
X227432500Y115420000D02*
X231672500Y115420000D01*
X231672500Y113180000D01*
X227432500Y113180000D01*
X227432500Y115420000D01*
%TO.C,D20*%
X74382500Y95250000D02*
X75032500Y95250000D01*
X75632500Y94130000D02*
X75632500Y96370000D01*
X75752500Y94130000D02*
X75752500Y96370000D01*
X75872500Y94130000D02*
X75872500Y96370000D01*
X79922500Y95250000D02*
X79272500Y95250000D01*
X75032500Y96370000D02*
X79272500Y96370000D01*
X79272500Y94130000D01*
X75032500Y94130000D01*
X75032500Y96370000D01*
%TO.C,D13*%
X198207500Y114300000D02*
X198857500Y114300000D01*
X199457500Y113180000D02*
X199457500Y115420000D01*
X199577500Y113180000D02*
X199577500Y115420000D01*
X199697500Y113180000D02*
X199697500Y115420000D01*
X203747500Y114300000D02*
X203097500Y114300000D01*
X198857500Y115420000D02*
X203097500Y115420000D01*
X203097500Y113180000D01*
X198857500Y113180000D01*
X198857500Y115420000D01*
%TO.C,D54*%
X-14287500Y50395000D02*
X-14287500Y49745000D01*
X-14287500Y44855000D02*
X-14287500Y45505000D01*
X-13167500Y46345000D02*
X-15407500Y46345000D01*
X-13167500Y46225000D02*
X-15407500Y46225000D01*
X-13167500Y46105000D02*
X-15407500Y46105000D01*
X-15407500Y49745000D02*
X-13167500Y49745000D01*
X-13167500Y45505000D01*
X-15407500Y45505000D01*
X-15407500Y49745000D01*
%TO.C,D8*%
X102957500Y114300000D02*
X103607500Y114300000D01*
X104207500Y113180000D02*
X104207500Y115420000D01*
X104327500Y113180000D02*
X104327500Y115420000D01*
X104447500Y113180000D02*
X104447500Y115420000D01*
X108497500Y114300000D02*
X107847500Y114300000D01*
X103607500Y115420000D02*
X107847500Y115420000D01*
X107847500Y113180000D01*
X103607500Y113180000D01*
X103607500Y115420000D01*
%TO.C,D6*%
X64857500Y114300000D02*
X65507500Y114300000D01*
X66107500Y113180000D02*
X66107500Y115420000D01*
X66227500Y113180000D02*
X66227500Y115420000D01*
X66347500Y113180000D02*
X66347500Y115420000D01*
X70397500Y114300000D02*
X69747500Y114300000D01*
X65507500Y115420000D02*
X69747500Y115420000D01*
X69747500Y113180000D01*
X65507500Y113180000D01*
X65507500Y115420000D01*
%TO.C,D36*%
X117245000Y76200000D02*
X117895000Y76200000D01*
X118495000Y75080000D02*
X118495000Y77320000D01*
X118615000Y75080000D02*
X118615000Y77320000D01*
X118735000Y75080000D02*
X118735000Y77320000D01*
X122785000Y76200000D02*
X122135000Y76200000D01*
X117895000Y77320000D02*
X122135000Y77320000D01*
X122135000Y75080000D01*
X117895000Y75080000D01*
X117895000Y77320000D01*
%TO.C,D38*%
X155345000Y76200000D02*
X155995000Y76200000D01*
X156595000Y75080000D02*
X156595000Y77320000D01*
X156715000Y75080000D02*
X156715000Y77320000D01*
X156835000Y75080000D02*
X156835000Y77320000D01*
X160885000Y76200000D02*
X160235000Y76200000D01*
X155995000Y77320000D02*
X160235000Y77320000D01*
X160235000Y75080000D01*
X155995000Y75080000D01*
X155995000Y77320000D01*
%TO.C,D42*%
X-18486250Y57150000D02*
X-17836250Y57150000D01*
X-17236250Y56030000D02*
X-17236250Y58270000D01*
X-17116250Y56030000D02*
X-17116250Y58270000D01*
X-16996250Y56030000D02*
X-16996250Y58270000D01*
X-12946250Y57150000D02*
X-13596250Y57150000D01*
X-17836250Y58270000D02*
X-13596250Y58270000D01*
X-13596250Y56030000D01*
X-17836250Y56030000D01*
X-17836250Y58270000D01*
%TO.C,D50*%
X147248750Y57150000D02*
X147898750Y57150000D01*
X148498750Y56030000D02*
X148498750Y58270000D01*
X148618750Y56030000D02*
X148618750Y58270000D01*
X148738750Y56030000D02*
X148738750Y58270000D01*
X152788750Y57150000D02*
X152138750Y57150000D01*
X147898750Y58270000D02*
X152138750Y58270000D01*
X152138750Y56030000D01*
X147898750Y56030000D01*
X147898750Y58270000D01*
%TO.C,D34*%
X79145000Y76200000D02*
X79795000Y76200000D01*
X80395000Y75080000D02*
X80395000Y77320000D01*
X80515000Y75080000D02*
X80515000Y77320000D01*
X80635000Y75080000D02*
X80635000Y77320000D01*
X84685000Y76200000D02*
X84035000Y76200000D01*
X79795000Y77320000D02*
X84035000Y77320000D01*
X84035000Y75080000D01*
X79795000Y75080000D01*
X79795000Y77320000D01*
%TO.C,D9*%
X122007500Y114300000D02*
X122657500Y114300000D01*
X123257500Y113180000D02*
X123257500Y115420000D01*
X123377500Y113180000D02*
X123377500Y115420000D01*
X123497500Y113180000D02*
X123497500Y115420000D01*
X127547500Y114300000D02*
X126897500Y114300000D01*
X122657500Y115420000D02*
X126897500Y115420000D01*
X126897500Y113180000D01*
X122657500Y113180000D01*
X122657500Y115420000D01*
%TO.C,D25*%
X169632500Y95250000D02*
X170282500Y95250000D01*
X170882500Y94130000D02*
X170882500Y96370000D01*
X171002500Y94130000D02*
X171002500Y96370000D01*
X171122500Y94130000D02*
X171122500Y96370000D01*
X175172500Y95250000D02*
X174522500Y95250000D01*
X170282500Y96370000D02*
X174522500Y96370000D01*
X174522500Y94130000D01*
X170282500Y94130000D01*
X170282500Y96370000D01*
%TO.C,D56*%
X33337500Y51823750D02*
X33337500Y51173750D01*
X33337500Y46283750D02*
X33337500Y46933750D01*
X34457500Y47773750D02*
X32217500Y47773750D01*
X34457500Y47653750D02*
X32217500Y47653750D01*
X34457500Y47533750D02*
X32217500Y47533750D01*
X32217500Y51173750D02*
X34457500Y51173750D01*
X34457500Y46933750D01*
X32217500Y46933750D01*
X32217500Y51173750D01*
%TD*%
M02*
